<svg width="742" height="742" viewBox="0 0 742 742" fill="none" xmlns="http://www.w3.org/2000/svg">
<path d="M410.04 70.92C410.5 75.15 410.63 77.72 410.5 78.63C410.46 78.88 410.41 79.07 410.35 79.2C410.14 79.62 409.33 79.73 407.92 79.55C406.4 79.35 405.3 79.17 404.65 79.06C403.4 78.83 402.76 78.5 402.82 78.01C402.9 77.26 403.77 74.79 405.47 70.63C407.07 66.72 408.2 64.18 408.83 63.03C409.17 64.19 409.59 66.82 410.04 70.92Z" fill="white"/>
<path d="M643.42 190.92C643.64 191.28 643.53 191.73 643.09 192.3C641.75 193.97 639.51 197.32 636.25 202.22C636.15 202.38 636.05 202.48 635.96 202.54C635.55 202.78 635.23 202.7 634.98 202.29C634.87 202.1 634.72 201.77 634.53 201.3C634.34 200.82 634.18 200.47 634.04 200.24C633.04 198.61 631.75 197.44 630.24 196.72C628.44 195.86 626.73 195.92 625.15 196.94C623.72 197.86 622.48 199.77 621.36 202.64C619.32 207.75 618.17 210.36 618.05 210.61C616.36 213.71 614.19 216.01 611.58 217.55C606.74 220.44 601.54 221.11 596.06 219.94C591.25 218.92 587.15 216.76 583.68 213.42C583.56 213.29 583.46 213.18 583.4 213.09C583.12 212.68 584.09 210.65 586.25 206.95C588.41 203.24 589.79 201.09 590.49 200.59C590.73 200.41 590.99 200.43 591.26 200.66C593.94 202.82 595.85 204.22 596.99 204.76C599.55 205.94 602.01 205.79 604.36 204.21C605.86 203.2 607.08 201.4 607.99 198.78C609.49 194.26 610.28 191.74 610.47 191.3C611.85 188.23 613.93 185.65 616.77 183.6C620.89 180.63 625.61 179.94 630.93 181.75C635.28 183.23 639.37 186.09 643.01 190.35C643.2 190.59 643.33 190.78 643.42 190.92Z" fill="black"/>
<path d="M567.84 187.42C567.33 187.88 567.21 188.39 567.49 188.97C567.88 189.76 569.11 191.34 571.11 193.77C572.61 195.58 573.87 196.99 574.92 197.96C575.31 198.31 575.52 198.5 575.57 198.52C575.8 198.59 576.14 198.45 576.57 198.1C579.14 196.07 582.97 192.96 588.05 188.77C593.13 184.57 596.95 181.45 599.52 179.41C601.85 177.56 605.43 174.9 610.27 171.44C615.12 167.99 618.72 165.35 621.05 163.51C621.53 163.13 621.54 162.64 621.06 162.03C620.55 161.38 619.76 160.45 618.69 159.26C617.62 158.06 616.83 157.15 616.31 156.52C615.79 155.89 615.03 154.91 614.03 153.6C613.04 152.28 612.27 151.32 611.73 150.71C611.34 150.25 610.91 150.22 610.45 150.63C608.21 152.59 604.92 155.6 600.56 159.65C596.2 163.7 592.89 166.69 590.65 168.65C588 170.97 582.28 175.68 573.56 182.79C569.97 185.72 568.06 187.26 567.84 187.42ZM371 6C572.58 6 736 169.42 736 371C736 572.58 572.58 736 371 736C169.42 736 6 572.58 6 371C6 169.42 169.42 6 371 6ZM643.09 192.3C643.53 191.73 643.64 191.28 643.42 190.92C643.33 190.78 643.2 190.59 643.01 190.35C639.37 186.09 635.28 183.23 630.93 181.75C625.61 179.94 620.89 180.63 616.77 183.6C613.93 185.65 611.85 188.23 610.47 191.3C610.28 191.74 609.49 194.26 607.99 198.78C607.08 201.4 605.86 203.2 604.36 204.21C602.01 205.79 599.55 205.94 596.99 204.76C595.85 204.22 593.94 202.82 591.26 200.66C590.99 200.43 590.73 200.41 590.49 200.59C589.79 201.09 588.41 203.24 586.25 206.95C584.09 210.65 583.12 212.68 583.4 213.09C583.46 213.18 583.56 213.29 583.68 213.42C587.15 216.76 591.25 218.92 596.06 219.94C601.54 221.11 606.74 220.44 611.58 217.55C614.19 216.01 616.36 213.71 618.05 210.61C618.17 210.36 619.32 207.75 621.36 202.64C622.48 199.77 623.72 197.86 625.15 196.94C626.73 195.92 628.44 195.86 630.24 196.72C631.75 197.44 633.04 198.61 634.04 200.24C634.18 200.47 634.34 200.82 634.53 201.3C634.72 201.77 634.87 202.1 634.98 202.29C635.23 202.7 635.55 202.78 635.96 202.54C636.05 202.48 636.15 202.38 636.25 202.22C639.51 197.32 641.75 193.97 643.09 192.3ZM601.13 140.47C601.61 140.01 601.59 139.5 601.07 138.96C600.02 137.85 598.36 136.23 596.09 134.15C593.83 132.07 592.13 130.53 591.04 129.48C590.58 129.03 590.05 129.12 589.45 129.75C586.68 132.68 582.59 137.13 577.16 143.1C571.73 149.06 567.63 153.5 564.85 156.43C561.04 160.44 557.52 160.86 554.2 157.83C551.93 155.77 551.12 153.66 551.74 151.45C552.19 149.83 553.83 147.34 556.67 144.03C559.06 141.24 562.72 137.13 567.65 131.71C572.58 126.28 576.25 122.19 578.65 119.41C579.05 118.95 579.01 118.5 578.53 118.09C577.35 117.08 575.61 115.5 573.28 113.4C570.95 111.3 569.16 109.79 567.95 108.84C567.53 108.51 567.12 108.61 566.71 109.14C564.74 111.66 561.89 115.55 558.12 120.8C554.36 126.05 551.47 129.94 549.48 132.48C548.8 133.35 547.73 134.66 546.29 136.39C544.85 138.12 543.78 139.44 543.07 140.34C540.04 144.21 538.16 147.09 537.4 148.93C535.86 152.7 536.04 156.24 537.93 159.63C539.12 161.75 541.29 164.16 544.41 166.98C551.32 173.21 557.05 175.8 562.12 174.25C564.89 173.4 568.85 170.54 573.96 165.63C574.6 165.02 575.56 164.08 576.84 162.82C578.12 161.56 579.08 160.62 579.72 160.01C582.04 157.77 585.61 154.5 590.43 150.21C595.24 145.92 598.82 142.68 601.13 140.47ZM589.56 550.31V232.69H529.31V172.44H211.69V232.69H151.44V550.31H211.69V610.56H529.31V550.31H589.56ZM540.52 90.54C540.82 90.1 540.81 89.79 540.5 89.59C539.8 89.15 538.74 88.55 537.3 87.79C535.87 87.03 534.8 86.45 534.1 86.03C533.48 85.66 532.55 85.07 531.32 84.26C530.08 83.44 529.13 82.86 528.49 82.49C527.84 82.13 527.36 82.21 527.06 82.74C525.48 85.56 523.19 89.81 520.17 95.5C517.15 101.19 514.84 105.44 513.26 108.25C511.76 110.89 509.5 114.82 506.46 120.05C503.42 125.28 501.16 129.22 499.67 131.86C499.31 132.49 499.36 133.07 499.8 133.42C501.04 134.41 502.32 135.09 503.12 135.53C506.23 137.43 507.77 138.41 510.81 140.42C511.56 140.93 513.47 142.2 516.43 144.35C518.7 146 520.55 147.38 521.98 148.4C522.58 148.83 522.94 149.06 523.05 149.07C523.4 149.15 523.83 148.93 524.33 148.4C526.77 145.91 529.41 142.75 532.21 138.91C532.58 138.39 532.53 137.96 532.06 137.61C530.48 136.47 528.04 134.88 524.69 132.93C521.34 130.99 518.84 129.55 517.21 128.52C516.75 128.23 516.52 128.09 516.5 128.08C516.29 127.85 516.26 127.58 516.42 127.29C516.58 127 516.74 126.69 516.9 126.41C517.69 125.02 519.12 122.79 521 119.77C523.35 116.04 524.52 114.17 526.86 110.44C532.71 101.73 537.16 95.25 540.2 90.98C540.33 90.8 540.39 90.71 540.52 90.54ZM492.53 66.39C492.86 65.59 492.81 65.1 492.38 64.93C491.02 64.37 488.93 63.61 486.11 62.67C483.29 61.74 481.19 61.05 479.81 60.55C479.33 60.38 478.91 60.78 478.56 61.75C477.56 64.52 476.2 68.71 474.45 74.31C472.7 79.92 471.32 84.09 470.32 86.83C469.58 88.87 469.07 89.84 468.8 89.74C468.43 89.61 468.13 89.05 467.89 88.05C467.02 83.82 466.31 80.62 465.84 78.44C463.73 68.75 462.48 63.9 459.62 54.22C459.3 53.14 458.99 52.56 458.71 52.48C458.03 52.29 457.06 52.15 455.82 52.07C454.35 51.98 453.36 51.92 452.88 51.85C450.82 51.54 449.1 51.22 447.73 50.89C446.81 50.66 446.27 50.85 446.13 51.44C445.38 54.52 444.36 59.18 443.06 65.41C441.75 71.64 440.71 76.31 439.94 79.41C439.22 82.35 438.02 86.73 436.36 92.56C434.7 98.4 433.52 102.77 432.81 105.69C432.61 106.52 432.79 107.01 433.35 107.15C437.37 108.13 439.37 108.66 443.35 109.79C443.87 109.94 444.26 109.55 444.54 108.62C445.44 105.52 446.74 100.87 448.42 94.64C450.1 88.41 451.38 83.75 452.29 80.65C452.4 80.25 452.57 79.98 452.8 79.85C452.99 80.08 453.11 80.28 453.14 80.47C454.74 86.17 455.76 90.48 456.38 93.39C458.71 103.83 459.71 110.56 460.16 113.58C460.32 114.61 460.57 115.19 460.91 115.31C461.4 115.49 462.11 115.81 463.05 116.28C463.98 116.75 464.69 117.08 465.18 117.27C465.63 117.44 466.31 117.68 467.24 117.98C468.16 118.28 468.85 118.53 469.3 118.71C469.84 118.93 470.25 118.69 470.53 118C474.72 107.83 476.81 102.75 481 92.58C482.21 89.62 484.13 85.25 486.76 79.46C489.39 73.67 491.32 69.32 492.53 66.39ZM424.92 104.17C425.07 103.44 424.94 94.04 422.78 76.33C421.52 65.94 420.1 55.45 417.93 45.14C417.68 44.17 417.32 43.66 416.86 43.59C416.24 43.5 415.28 43.42 414 43.34C412.72 43.27 411.76 43.19 411.1 43.11C410.43 43.03 409.41 42.83 408.06 42.54C406.71 42.24 405.71 42.06 405.05 41.99C404.67 41.95 404.28 42.46 403.87 43.46C399.93 53.14 395.69 63.01 391.98 72.9C385.75 89.48 383.29 98.32 383.26 99.04C383.22 99.85 384.71 100.31 387.74 100.51C391.58 100.76 393.85 100.87 394.53 100.7C395.08 100.57 395.65 99.35 396.26 97.1C396.92 94.62 397.46 93.18 397.85 92.77C398.1 92.55 399.96 92.59 403.43 93.01C408.56 93.63 411.28 94.17 411.55 94.41C411.89 94.71 412.11 96.94 412.15 100.99C412.16 102.06 412.48 102.75 413.12 103.05C413.88 103.4 415.67 103.8 418.46 104.31C421.51 104.87 423.35 105.14 423.97 105.04C424.49 104.96 424.81 104.66 424.92 104.17ZM422.68 680.59C422.76 679.32 422.8 678.36 422.8 677.73C422.8 676.7 422.56 676.19 422.06 676.19C419.62 676.19 416.25 676.37 411.95 676.73C418.01 667.82 421.04 660.03 421.04 653.36C421.04 648.35 419.78 644.5 417.28 641.78C415.15 639.46 412.51 638.3 409.36 638.3C407.42 638.3 405.41 638.71 403.36 639.54C401.05 640.48 399.21 641.77 397.83 643.4C397.54 643.73 397.4 644.08 397.4 644.44C397.4 644.91 397.5 645.63 397.7 646.6C397.92 647.73 398.04 648.48 398.08 648.84C398.16 649.61 398.2 650.86 398.2 652.57C398.2 654.79 398.48 655.89 399.05 655.89C399.13 655.89 399.58 655.47 400.39 654.61C401.36 653.56 402.28 652.75 403.16 652.2C404.47 651.32 405.79 650.87 407.12 650.87C408.29 650.87 409.31 651.54 410.17 652.88C411.02 654.23 411.45 655.88 411.45 657.84C411.45 660.11 410.33 663.52 408.09 668.05C406.33 671.65 404.61 674.63 402.93 676.98C402.47 677.62 401.42 678.11 399.79 678.47C398.4 678.78 397.7 679.23 397.7 679.84C397.7 680.26 397.91 681.88 398.33 684.7C398.53 686.55 398.65 687.95 398.7 688.89C398.75 689.58 398.99 689.93 399.42 689.93C400.67 689.93 402.57 689.81 405.12 689.57C407.68 689.34 409.6 689.22 410.88 689.22C415.01 689.22 417.83 689.5 419.34 690.05C420.7 690.58 421.49 690.84 421.68 690.84C422.23 690.84 422.51 690.49 422.51 689.8C422.51 689.11 422.51 688.05 422.53 686.63C422.55 685.2 422.56 684.16 422.56 683.49C422.56 682.83 422.6 681.86 422.68 680.59ZM391.56 672.21C391.56 667.11 390.45 663.1 388.24 660.17C386.2 657.43 383.64 656.06 380.55 656.06C380.08 656.06 379.43 656.13 378.58 656.27C377.68 656.41 377.03 656.48 376.61 656.48C376.53 656.28 376.49 656 376.49 655.65C376.49 653.35 376.63 651.79 376.91 650.96C377.05 650.62 378.02 650.46 379.85 650.46C380.78 650.46 383.12 650.73 386.87 651.29L387.15 651.33C387.5 651.33 387.79 649.57 388.04 646.06C388.24 643.32 388.34 641.16 388.34 639.58C388.34 638.97 388.12 638.66 387.67 638.63C386.01 638.57 382.76 638.55 377.93 638.55C373.68 638.55 371.38 638.6 371.01 638.71C370.71 638.82 370.44 639.16 370.2 639.73C369.96 640.3 369.84 640.84 369.84 641.37C369.84 644.02 369.77 648.08 369.63 653.53C369.49 658.98 369.42 663.03 369.42 665.69C369.42 666.58 369.71 667.02 370.29 667.02C370.9 667.02 371.82 666.89 373.04 666.64C374.26 666.39 375.18 666.27 375.79 666.27C377.25 666.27 378.51 666.71 379.55 667.6C380.9 668.71 381.57 670.35 381.57 672.54C381.57 676.52 379.74 678.51 376.07 678.51C373.53 678.51 371.26 677.68 369.27 676.02C369.07 675.86 368.93 675.77 368.84 675.77C368.56 675.77 368.31 677.02 368.1 679.51C367.93 681.45 367.85 683 367.85 684.16C367.85 686.26 367.88 687.49 367.95 687.85C368.1 688.71 369.62 689.44 372.5 690.05C374.73 690.52 376.51 690.76 377.83 690.76C386.98 690.76 391.56 684.57 391.56 672.21ZM376.5 51.88C376.51 51.77 376.47 51.63 376.41 51.47C374.28 46.12 372.82 42.45 372.2 40.42C371.98 39.75 371.69 39.41 371.33 39.41C371.18 39.41 370.97 39.43 370.7 39.45C365.8 40.28 361.7 42.21 358.5 45.09C354.6 48.6 352.86 52.95 353.15 58.02C353.35 61.52 354.32 64.66 356 67.47C356.25 67.87 357.79 69.89 360.5 73.58C362.06 75.75 362.84 77.75 362.89 79.55C362.97 82.38 361.92 84.54 359.81 86.07C358.85 86.75 356.88 87.6 353.94 88.69C353.63 88.79 353.49 89 353.51 89.3C353.56 90.16 354.54 92.49 356.34 96.3C358.13 100.11 359.21 102.02 359.66 102C359.76 102 359.88 101.98 360.04 101.95C364.23 100.81 367.79 98.49 370.82 94.95C374.27 90.93 376.18 86.15 376.3 80.51C376.36 77.48 375.67 74.42 374.15 71.35C374.02 71.12 372.61 68.76 369.74 64.33C368.11 61.86 367.26 59.79 367.24 58.09C367.22 56.21 367.98 54.73 369.47 53.66C370.72 52.76 372.21 52.29 373.89 52.3C374.13 52.31 374.47 52.35 374.91 52.44C375.35 52.53 375.67 52.58 375.86 52.58C376.28 52.59 376.49 52.36 376.5 51.88ZM361.48 661.33C361.48 654.39 360.32 648.78 358.01 644.52C355.61 640.1 352.34 637.88 348.2 637.88C344.37 637.88 341.3 639.43 339.01 642.53C336.51 645.88 335.25 650.68 335.25 656.93C335.25 661.75 336.2 665.61 338.09 668.51C339.94 671.39 342.31 672.83 345.21 672.83C346.97 672.83 348.55 672.29 349.95 671.21C350.25 670.99 350.44 670.88 350.52 670.88C350.62 670.88 350.67 670.96 350.67 671.13C350.67 671.4 350.56 671.85 350.34 672.45C348.77 676.99 345.32 679.26 340.01 679.26C339.23 679.26 338.84 679.7 338.84 680.59C338.84 682.03 339.43 685.15 340.61 689.97C340.79 690.72 341.05 691.09 341.38 691.09C346.94 691.09 351.61 688.49 355.4 683.29C359.45 677.73 361.48 670.41 361.48 661.33ZM326.89 103.21C327.34 102.94 327.53 102.56 327.45 102.06C327.33 101.32 323.78 92.61 315.3 76.88C310.33 67.64 305.17 58.37 299.37 49.54C298.78 48.73 298.26 48.38 297.81 48.48C297.19 48.62 296.27 48.89 295.04 49.28C293.82 49.67 292.89 49.95 292.25 50.11C291.58 50.27 290.57 50.46 289.2 50.67C287.82 50.88 286.82 51.07 286.18 51.24C285.8 51.34 285.62 51.96 285.61 53.04C285.46 63.48 285.1 74.21 285.23 84.77C285.46 102.47 286.39 111.61 286.62 112.29C286.87 113.05 288.45 112.94 291.36 112.03C295.05 110.87 297.22 110.15 297.8 109.75C298.26 109.43 298.36 108.09 298.1 105.77C297.82 103.22 297.79 101.69 298.01 101.16C298.16 100.86 299.92 100.23 303.32 99.38C308.34 98.11 311.08 97.63 311.42 97.76C311.85 97.92 312.87 99.91 314.39 103.68C314.79 104.67 315.34 105.2 316.04 105.25C316.88 105.3 318.7 105.03 321.49 104.51C324.53 103.93 326.34 103.53 326.89 103.21ZM327.21 640.83C327.25 640.41 327.26 640.12 327.26 639.96C327.26 639.46 327.15 639.15 326.91 639.04C325.64 638.68 324.66 638.44 324 638.3C322.76 637.83 321.82 637.48 321.19 637.26C321.02 637.2 320.92 637.18 320.89 637.18C320.69 637.18 320.45 637.47 320.17 638.05C318.77 640.9 316.85 643.17 314.41 644.85C314 645.13 313.79 645.55 313.79 646.1C313.79 647.07 313.8 648.49 313.82 650.37C313.83 652.26 313.84 653.67 313.84 654.61C313.84 655.63 314.1 656.14 314.61 656.14C314.96 656.14 315.47 655.98 316.14 655.65C316.82 655.31 317.32 655.15 317.65 655.15C317.87 655.15 317.97 655.54 317.97 656.31V668.64C317.97 670.88 317.86 677.28 317.63 687.85L317.6 688.31C317.58 689.19 317.88 689.64 318.5 689.64C319.29 689.64 320.49 689.62 322.08 689.59C323.68 689.57 324.87 689.55 325.67 689.55C326 689.55 326.31 689.33 326.59 688.89C326.87 688.45 327.01 687.96 327.01 687.44C327.01 684.26 327 679.47 326.98 673.08C326.95 666.68 326.94 661.9 326.94 658.72C326.94 649.23 327.03 643.26 327.21 640.83ZM270.09 98.03C271.17 93.18 270.64 87.57 268.33 81.25C266.08 75.09 262.64 70.65 257.87 68.14C253.21 65.69 248.03 65.5 242.61 67.63C239.32 68.93 235.92 70.41 232.42 72.07C226.49 74.88 222.79 76.99 221.22 78.13C220.57 78.59 220.39 79.05 220.68 79.49C220.81 79.69 220.87 79.79 220.99 79.99C226.1 88.18 230.65 96.15 234.73 103.88C236.17 106.61 238.3 110.73 241.13 116.23C243.95 121.74 246.09 125.85 247.54 128.58C247.91 129.3 248.36 129.51 248.88 129.24C249.97 128.67 251.64 127.87 253.89 126.86C256.13 125.86 257.82 125.11 258.93 124.59C259.31 124.41 259.37 124.04 259.1 123.46C258.57 122.32 257.68 120.65 256.44 118.44C255.19 116.23 254.29 114.55 253.75 113.39C253.31 112.46 253.5 111.8 254.33 111.42C255.09 111.06 256.28 110.58 257.89 110.01C259.49 109.43 260.69 108.98 261.46 108.65C266.1 106.67 268.94 103.19 270.09 98.03ZM230.29 131.27C230.79 124.1 229.07 116.71 224.72 109.2C220.41 101.77 214.75 96.58 207.49 94.06C200.1 91.49 192.97 92.44 186.62 96.87C180.23 101.32 176.82 107.74 176.6 115.6C176.39 123.3 179.25 130.43 184.77 137.08C190.28 143.72 196.64 147.81 203.61 149.78C210.73 151.78 216.66 151.04 221.83 147.44C227.03 143.82 229.77 138.55 230.29 131.27ZM197.22 164.9C197.48 164.56 197.54 164.32 197.41 164.17C196.93 163.63 193.46 161.53 186.78 158.14C180.14 154.77 176.71 153.21 176.69 153.21C176.43 152.93 176.33 152.44 176.41 151.76C176.75 148.32 176.51 145.37 175.63 142.91C174.75 140.45 172.98 137.69 170.29 134.65C166.25 130.09 161.66 127.91 156.45 128.34C151.85 128.72 147.36 130.99 143.22 135.2C141.22 137.23 138.59 140.02 135.42 143.66C130.73 149.03 128.28 152.24 127.85 153C127.43 153.76 127.4 154.29 127.78 154.57C127.97 154.71 128.06 154.78 128.25 154.92C133.59 158.81 140.71 164.59 149.65 172.22C151.99 174.23 155.43 177.33 159.97 181.52C164.51 185.7 167.95 188.78 170.28 190.76C170.81 191.21 171.34 191.25 171.87 190.88C172.4 190.51 173.66 189.15 175.68 186.86C177.46 184.86 178.74 183.38 179.51 182.38C179.7 182.14 179.94 181.89 180.06 181.67C180.15 181.51 180 181.21 179.65 180.88C178.28 179.59 176.13 177.75 173.21 175.38C170.29 173.01 168.14 171.18 166.76 169.89C165.72 168.92 165.32 168.31 165.56 168.06C167.22 166.27 168.07 165.36 168.07 165.31C169.13 164.41 170.17 164.2 171.17 164.64C176.35 167.1 180.19 169.08 182.72 170.47C184.67 171.54 186.13 172.38 187.11 172.93C187.56 173.15 187.86 173.24 188.01 173.22C188.1 173.21 188.33 173.08 188.72 172.81C189.55 172.24 190.95 171 192.96 169.12C195.3 166.94 196.74 165.55 197.22 164.9ZM158.85 207.56C159.1 207.06 159.22 206.77 159.22 206.69C159.22 206.44 159.01 206.17 158.58 205.85C155.94 203.92 151.9 201.09 146.45 197.39C141 193.68 136.95 190.88 134.3 188.95C132.05 187.31 128.13 184.37 122.54 180.1C126.86 174.85 129.4 171.99 130 171.22C130.34 170.78 130.3 170.39 129.86 170.04C129.34 169.63 128.5 169.07 127.34 168.36C126.18 167.66 125.33 167.09 124.78 166.66C124.3 166.28 123.5 165.62 122.38 164.66C121.36 163.8 120.56 163.09 119.98 162.66C119.61 162.39 119.34 162.26 119.24 162.28C119.14 162.3 118.92 162.52 118.59 162.94C118.57 162.96 117.6 164.42 115.73 167.36C112.26 172.84 109.93 176.68 108.54 178.68C103.68 185.72 99.97 191.13 97.15 194.65C96.95 194.92 96.84 195.07 96.81 195.12C96.57 195.52 97.29 196.36 98.98 197.58C100.03 198.35 101.17 199.1 102.19 199.85C102.51 200.09 103.4 200.94 104.85 202.29C106.18 203.52 107.01 204.23 107.32 204.41C107.56 204.55 107.79 204.44 108.01 204.08C109.62 201.38 111.57 197.65 113.96 192.97C120.35 196.9 124.44 199.47 126.25 200.66C128.99 202.46 133.03 205.26 138.39 209.05C143.75 212.84 147.8 215.62 150.55 217.41C151.15 217.8 151.7 217.78 152.14 217.33C152.96 216.51 154.16 214.86 155.77 212.51C157.22 210.4 158.26 208.76 158.85 207.56Z" fill="white"/>
<path d="M621.06 162.03C621.54 162.64 621.53 163.13 621.05 163.51C618.72 165.35 615.12 167.99 610.27 171.44C605.43 174.9 601.85 177.56 599.52 179.41C596.95 181.45 593.13 184.57 588.05 188.77C582.97 192.96 579.14 196.07 576.57 198.1C576.14 198.45 575.8 198.59 575.57 198.52C575.52 198.5 575.31 198.31 574.92 197.96C573.87 196.99 572.61 195.58 571.11 193.77C569.11 191.34 567.88 189.76 567.49 188.97C567.21 188.39 567.33 187.88 567.84 187.42C568.06 187.26 569.97 185.72 573.56 182.79C582.28 175.68 588 170.97 590.65 168.65C592.89 166.69 596.2 163.7 600.56 159.65C604.92 155.6 608.21 152.59 610.45 150.63C610.91 150.22 611.34 150.25 611.73 150.71C612.27 151.32 613.04 152.28 614.03 153.6C615.03 154.91 615.79 155.89 616.31 156.52C616.83 157.15 617.62 158.06 618.69 159.26C619.76 160.45 620.55 161.38 621.06 162.03Z" fill="black"/>
<path d="M601.07 138.96C601.59 139.5 601.61 140.01 601.13 140.47C598.82 142.68 595.24 145.92 590.43 150.21C585.61 154.5 582.04 157.77 579.72 160.01C579.08 160.62 578.12 161.56 576.84 162.82C575.56 164.08 574.6 165.02 573.96 165.63C568.85 170.54 564.89 173.4 562.12 174.25C557.05 175.8 551.32 173.21 544.41 166.98C541.29 164.16 539.12 161.75 537.93 159.63C536.04 156.24 535.86 152.7 537.4 148.93C538.16 147.09 540.04 144.21 543.07 140.34C543.78 139.44 544.85 138.12 546.29 136.39C547.73 134.66 548.8 133.35 549.48 132.48C551.47 129.94 554.36 126.05 558.12 120.8C561.89 115.55 564.74 111.66 566.71 109.14C567.12 108.61 567.53 108.51 567.95 108.84C569.16 109.79 570.95 111.3 573.28 113.4C575.61 115.5 577.35 117.08 578.53 118.09C579.01 118.5 579.05 118.95 578.65 119.41C576.25 122.19 572.58 126.28 567.65 131.71C562.72 137.13 559.06 141.24 556.67 144.03C553.83 147.34 552.19 149.83 551.74 151.45C551.12 153.66 551.93 155.77 554.2 157.83C557.52 160.86 561.04 160.44 564.85 156.43C567.63 153.5 571.73 149.06 577.16 143.1C582.59 137.13 586.68 132.68 589.45 129.75C590.05 129.12 590.58 129.03 591.04 129.48C592.13 130.53 593.83 132.07 596.09 134.15C598.36 136.23 600.02 137.85 601.07 138.96Z" fill="black"/>
<path d="M589.56 232.69V550.31H529.31V424.48V424.47C548.97 407.19 565.79 382.11 545.92 354.79C540.75 347.68 535.15 342.57 529.31 339.06V232.69H589.56Z" fill="#C1272D"/>
<path d="M545.92 354.79C565.79 382.11 548.97 407.19 529.31 424.47C512.84 438.96 494.36 447.97 493.84 448.22C501.74 437.58 503.45 424.04 497.92 413.51C492.03 402.29 480.28 398.98 477.49 398.19C465.35 394.77 445.42 404.63 442.61 405.92L441.6 405.73C442.52 401.13 443 396.37 443 391.5C443 382.38 441.32 373.66 438.24 365.62L439.09 365.29C439.09 365.29 489.64 315.19 529.31 339.06C535.15 342.57 540.75 347.68 545.92 354.79Z" fill="#0071BC"/>
<path d="M540.5 89.59C540.81 89.79 540.82 90.1 540.52 90.54C540.39 90.71 540.33 90.8 540.2 90.98C537.16 95.25 532.71 101.73 526.86 110.44C524.52 114.17 523.35 116.04 521 119.77C519.12 122.79 517.69 125.02 516.9 126.41C516.74 126.69 516.58 127 516.42 127.29C516.26 127.58 516.29 127.85 516.5 128.08C516.52 128.09 516.75 128.23 517.21 128.52C518.84 129.55 521.34 130.99 524.69 132.93C528.04 134.88 530.48 136.47 532.06 137.61C532.53 137.96 532.58 138.39 532.21 138.91C529.41 142.75 526.77 145.91 524.33 148.4C523.83 148.93 523.4 149.15 523.05 149.07C522.94 149.06 522.58 148.83 521.98 148.4C520.55 147.38 518.7 146 516.43 144.35C513.47 142.2 511.56 140.93 510.81 140.42C507.77 138.41 506.23 137.43 503.12 135.53C502.32 135.09 501.04 134.41 499.8 133.42C499.36 133.07 499.31 132.49 499.67 131.86C501.16 129.22 503.42 125.28 506.46 120.05C509.5 114.82 511.76 110.89 513.26 108.25C514.84 105.44 517.15 101.19 520.17 95.5C523.19 89.81 525.48 85.56 527.06 82.74C527.36 82.21 527.84 82.13 528.49 82.49C529.13 82.86 530.08 83.44 531.32 84.26C532.55 85.07 533.48 85.66 534.1 86.03C534.8 86.45 535.87 87.03 537.3 87.79C538.74 88.55 539.8 89.15 540.5 89.59Z" fill="black"/>
<path d="M370.97 571.84L371 571.81L393.62 550.31H529.31V610.56H211.69V550.31H348.31L370.97 571.84Z" fill="#C1272D"/>
<path d="M493.84 448.22C494.36 447.97 512.84 438.96 529.31 424.47V424.48V550.31H393.62L419 526.19C419 526.19 395.85 514.62 390.4 484.66L389.31 478.5C429.9 555.95 472.9 490.36 472.9 490.36C467.34 490.94 434.53 493.87 419.39 473.51C417.84 471.42 416.37 468.96 415.16 466.06V466.05C416.86 466 418.42 465.97 419.79 465.98C421.83 466 426.52 466.06 431.92 463.94C435.2 462.65 439.7 460.95 441.62 456.4C441.9 455.75 443.8 451.05 441.49 446.7C439.6 443.13 435.83 441.76 432.56 440.57C430.04 439.66 427.82 439.32 426.28 439.18L425.6 438.61C433.51 429.37 439.13 418.12 441.6 405.73L442.61 405.92C445.42 404.63 465.35 394.77 477.49 398.19C480.28 398.98 492.03 402.29 497.92 413.51C503.45 424.04 501.74 437.58 493.84 448.22Z" fill="white"/>
<path d="M529.31 232.69V339.06C489.64 315.19 439.09 365.29 439.09 365.29L438.24 365.62C435.62 358.77 431.99 352.42 427.53 346.74L429.15 345.79C438.79 338.85 444.02 326.17 444.02 326.17C448.41 315.75 453.8 297.6 447.6 278.68C442.99 264.64 433.63 255.16 422.57 243.96C417.38 238.7 413.68 235.7 409.86 232.7L409.87 232.69H529.31Z" fill="white"/>
<path d="M529.31 172.44V232.69H409.87L409.86 232.7C405.84 229.52 401.68 226.33 395.51 220.47C384.05 209.59 376.02 199.36 371 192.38C365.98 199.36 357.95 209.59 346.49 220.47C340.32 226.33 336.16 229.52 332.14 232.7L332.13 232.69H211.69V172.44H529.31Z" fill="#C1272D"/>
<path d="M492.38 64.93C492.81 65.1 492.86 65.59 492.53 66.39C491.32 69.32 489.39 73.67 486.76 79.46C484.13 85.25 482.21 89.62 481 92.58C476.81 102.75 474.72 107.83 470.53 118C470.25 118.69 469.84 118.93 469.3 118.71C468.85 118.53 468.16 118.28 467.24 117.98C466.31 117.68 465.63 117.44 465.18 117.27C464.69 117.08 463.98 116.75 463.05 116.28C462.11 115.81 461.4 115.49 460.91 115.31C460.57 115.19 460.32 114.61 460.16 113.58C459.71 110.56 458.71 103.83 456.38 93.39C455.76 90.48 454.74 86.17 453.14 80.47C453.11 80.28 452.99 80.08 452.8 79.85C452.57 79.98 452.4 80.25 452.29 80.65C451.38 83.75 450.1 88.41 448.42 94.64C446.74 100.87 445.44 105.52 444.54 108.62C444.26 109.55 443.87 109.94 443.35 109.79C439.37 108.66 437.37 108.13 433.35 107.15C432.79 107.01 432.61 106.52 432.81 105.69C433.52 102.77 434.7 98.4 436.36 92.56C438.02 86.73 439.22 82.35 439.94 79.41C440.71 76.31 441.75 71.64 443.06 65.41C444.36 59.18 445.38 54.52 446.13 51.44C446.27 50.85 446.81 50.66 447.73 50.89C449.1 51.22 450.82 51.54 452.88 51.85C453.36 51.92 454.35 51.98 455.82 52.07C457.06 52.15 458.03 52.29 458.71 52.48C458.99 52.56 459.3 53.14 459.62 54.22C462.48 63.9 463.73 68.75 465.84 78.44C466.31 80.62 467.02 83.82 467.89 88.05C468.13 89.05 468.43 89.61 468.8 89.74C469.07 89.84 469.58 88.87 470.32 86.83C471.32 84.09 472.7 79.92 474.45 74.31C476.2 68.71 477.56 64.52 478.56 61.75C478.91 60.78 479.33 60.38 479.81 60.55C481.19 61.05 483.29 61.74 486.11 62.67C488.93 63.61 491.02 64.37 492.38 64.93Z" fill="black"/>
<path d="M419.39 473.51C434.53 493.87 467.34 490.94 472.9 490.36C472.9 490.36 429.9 555.95 389.31 478.5L387.35 467.5L387.69 467.44C397.34 467.15 407.67 466.32 415.16 466.05V466.06C416.37 468.96 417.84 471.42 419.39 473.51Z" fill="#0071BC"/>
<path d="M447.6 278.68C453.8 297.6 448.41 315.75 444.02 326.17C444.02 326.17 438.79 338.85 429.15 345.79L427.53 346.74C414.26 329.85 393.65 319 370.5 319C347.48 319 326.96 329.73 313.69 346.47L312.85 345.79C303.21 338.85 297.98 326.17 297.98 326.17C293.59 315.75 288.2 297.6 294.4 278.68C299.01 264.64 308.37 255.16 319.43 243.96C324.62 238.7 328.32 235.7 332.14 232.7C336.16 229.52 340.32 226.33 346.49 220.47C357.95 209.59 365.98 199.36 371 192.38C376.02 199.36 384.05 209.59 395.51 220.47C401.68 226.33 405.84 229.52 409.86 232.7C413.68 235.7 417.38 238.7 422.57 243.96C433.63 255.16 442.99 264.64 447.6 278.68Z" fill="#0071BC"/>
<path d="M302.88 365.32C305.53 358.47 309.19 352.13 313.69 346.47C326.96 329.73 347.48 319 370.5 319C393.65 319 414.26 329.85 427.53 346.74C431.99 352.42 435.62 358.77 438.24 365.62C441.32 373.66 443 382.38 443 391.5C443 396.37 442.52 401.13 441.6 405.73C439.13 418.12 433.51 429.37 425.6 438.61C415.6 450.31 401.94 458.78 386.39 462.25C381.28 463.4 375.96 464 370.5 464C365.38 464 360.39 463.47 355.57 462.46C339.86 459.17 326.02 450.8 315.85 439.13C307.76 429.86 301.98 418.5 299.44 405.97C298.5 401.3 298 396.46 298 391.5C298 382.27 299.73 373.44 302.88 365.32ZM417.68 427.5C419.57 425.43 421.21 420.82 418.25 410.58L407.68 413.63C408.41 416.16 408.71 417.95 408.82 419.16C402.95 420.22 397.12 420.61 394.97 420.02C394.52 418.14 395.46 412.64 396.17 408.55C397.25 402.28 398.6 394.48 398.68 385.46C398.73 379.47 396.61 363.5 396.37 361.69L385.46 363.16C386.09 367.84 387.71 380.95 387.68 385.37C387.61 393.49 386.35 400.8 385.33 406.68C383.71 416.05 382.55 422.82 386.81 427.6C389.25 430.34 393.7 431.32 398.8 431.32C403.97 431.32 409.8 430.32 414.87 429.14L416.53 428.75L417.68 427.5ZM409.4 349.9V338.9H331.45V349.9H365.5V442.79H376.5V349.9H409.4ZM350.51 382.45L361.36 380.61C361.24 379.93 358.28 364.03 335.65 361.78C329.39 361.15 323.73 364.77 320.17 371.69C316.29 379.24 314.98 390.65 319.61 395.93C324.65 401.65 332.19 400.98 337.18 400.53C338.35 400.43 339.44 400.34 340.12 400.36C341.85 400.42 345.47 400.54 345.21 411.45C345.08 417.31 339.07 420.07 336.8 420.13C332.36 420.25 330.69 420.29 325.01 403.89L314.61 407.49C320.61 424.78 324.86 431.14 336.24 431.14C336.52 431.14 336.81 431.13 337.1 431.12C344.73 430.92 355.93 423.89 356.21 411.7C356.65 392.76 346.56 389.58 340.51 389.36C339.16 389.31 337.72 389.44 336.21 389.58C333.34 389.83 329.45 390.18 327.99 388.79C327.22 386.99 327.66 379.9 330.82 375.25C332.66 372.54 334.09 372.68 334.56 372.73C348.54 374.12 350.44 382.11 350.51 382.45Z" fill="#C1272D"/>
<path d="M441.49 446.7C443.8 451.05 441.9 455.75 441.62 456.4C439.7 460.95 435.2 462.65 431.92 463.94C426.52 466.06 421.83 466 419.79 465.98C418.42 465.97 416.86 466 415.16 466.05C407.67 466.32 397.34 467.15 387.69 467.44L387.35 467.5L386.47 462.6L386.39 462.25C401.94 458.78 415.6 450.31 425.6 438.61L426.28 439.18C427.82 439.32 430.04 439.66 432.56 440.57C435.83 441.76 439.6 443.13 441.49 446.7Z" fill="#0071BC"/>
<path d="M422.78 76.33C424.94 94.04 425.07 103.44 424.92 104.17C424.81 104.66 424.49 104.96 423.97 105.04C423.35 105.14 421.51 104.87 418.46 104.31C415.67 103.8 413.88 103.4 413.12 103.05C412.48 102.75 412.16 102.06 412.15 100.99C412.11 96.94 411.89 94.71 411.55 94.41C411.28 94.17 408.56 93.63 403.43 93.01C399.96 92.59 398.1 92.55 397.85 92.77C397.46 93.18 396.92 94.62 396.26 97.1C395.65 99.35 395.08 100.57 394.53 100.7C393.85 100.87 391.58 100.76 387.74 100.51C384.71 100.31 383.22 99.85 383.26 99.04C383.29 98.32 385.75 89.48 391.98 72.9C395.69 63.01 399.93 53.14 403.87 43.46C404.28 42.46 404.67 41.95 405.05 41.99C405.71 42.06 406.71 42.24 408.06 42.54C409.41 42.83 410.43 43.03 411.1 43.11C411.76 43.19 412.72 43.27 414 43.34C415.28 43.42 416.24 43.5 416.86 43.59C417.32 43.66 417.68 44.17 417.93 45.14C420.1 55.45 421.52 65.94 422.78 76.33ZM410.5 78.63C410.63 77.72 410.5 75.15 410.04 70.92C409.59 66.82 409.17 64.19 408.83 63.03C408.2 64.18 407.07 66.72 405.47 70.63C403.77 74.79 402.9 77.26 402.82 78.01C402.76 78.5 403.4 78.83 404.65 79.06C405.3 79.17 406.4 79.35 407.92 79.55C409.33 79.73 410.14 79.62 410.35 79.2C410.41 79.07 410.46 78.88 410.5 78.63Z" fill="black"/>
<path d="M422.8 677.73C422.8 678.36 422.76 679.32 422.68 680.59C422.6 681.86 422.56 682.83 422.56 683.49C422.56 684.16 422.55 685.2 422.53 686.63C422.51 688.05 422.51 689.11 422.51 689.8C422.51 690.49 422.23 690.84 421.68 690.84C421.49 690.84 420.7 690.58 419.34 690.05C417.83 689.5 415.01 689.22 410.88 689.22C409.6 689.22 407.68 689.34 405.12 689.57C402.57 689.81 400.67 689.93 399.42 689.93C398.99 689.93 398.75 689.58 398.7 688.89C398.65 687.95 398.53 686.55 398.33 684.7C397.91 681.88 397.7 680.26 397.7 679.84C397.7 679.23 398.4 678.78 399.79 678.47C401.42 678.11 402.47 677.62 402.93 676.98C404.61 674.63 406.33 671.65 408.09 668.05C410.33 663.52 411.45 660.11 411.45 657.84C411.45 655.88 411.02 654.23 410.17 652.88C409.31 651.54 408.29 650.87 407.12 650.87C405.79 650.87 404.47 651.32 403.16 652.2C402.28 652.75 401.36 653.56 400.39 654.61C399.58 655.47 399.13 655.89 399.05 655.89C398.48 655.89 398.2 654.79 398.2 652.57C398.2 650.86 398.16 649.61 398.08 648.84C398.04 648.48 397.92 647.73 397.7 646.6C397.5 645.63 397.4 644.91 397.4 644.44C397.4 644.08 397.54 643.73 397.83 643.4C399.21 641.77 401.05 640.48 403.36 639.54C405.41 638.71 407.42 638.3 409.36 638.3C412.51 638.3 415.15 639.46 417.28 641.78C419.78 644.5 421.04 648.35 421.04 653.36C421.04 660.03 418.01 667.82 411.95 676.73C416.25 676.37 419.62 676.19 422.06 676.19C422.56 676.19 422.8 676.7 422.8 677.73Z" fill="black"/>
<path d="M419 526.19L393.62 550.31L371 571.81L370.97 571.84L348.31 550.31L323 526.25C323 526.25 346.15 514.68 351.6 484.72L352.69 478.56L354.65 467.56L355.53 462.66L355.57 462.46C360.39 463.47 365.38 464 370.5 464C375.96 464 381.28 463.4 386.39 462.25L386.47 462.6L387.35 467.5L389.31 478.5L390.4 484.66C395.85 514.62 419 526.19 419 526.19Z" fill="#0071BC"/>
<path d="M418.25 410.58C421.21 420.82 419.57 425.43 417.68 427.5L416.53 428.75L414.87 429.14C409.8 430.32 403.97 431.32 398.8 431.32C393.7 431.32 389.25 430.34 386.81 427.6C382.55 422.82 383.71 416.05 385.33 406.68C386.35 400.8 387.61 393.49 387.68 385.37C387.71 380.95 386.09 367.84 385.46 363.16L396.37 361.69C396.61 363.5 398.73 379.47 398.68 385.46C398.6 394.48 397.25 402.28 396.17 408.55C395.46 412.64 394.52 418.14 394.97 420.02C397.12 420.61 402.95 420.22 408.82 419.16C408.71 417.95 408.41 416.16 407.68 413.63L418.25 410.58Z" fill="black"/>
<path d="M409.4 338.9V349.9H376.5V442.79H365.5V349.9H331.45V338.9H409.4Z" fill="black"/>
<path d="M388.24 660.17C390.45 663.1 391.56 667.11 391.56 672.21C391.56 684.57 386.98 690.76 377.83 690.76C376.51 690.76 374.73 690.52 372.5 690.05C369.62 689.44 368.1 688.71 367.95 687.85C367.88 687.49 367.85 686.26 367.85 684.16C367.85 683 367.93 681.45 368.1 679.51C368.31 677.02 368.56 675.77 368.84 675.77C368.93 675.77 369.07 675.86 369.27 676.02C371.26 677.68 373.53 678.51 376.07 678.51C379.74 678.51 381.57 676.52 381.57 672.54C381.57 670.35 380.9 668.71 379.55 667.6C378.51 666.71 377.25 666.27 375.79 666.27C375.18 666.27 374.26 666.39 373.04 666.64C371.82 666.89 370.9 667.02 370.29 667.02C369.71 667.02 369.42 666.58 369.42 665.69C369.42 663.03 369.49 658.98 369.63 653.53C369.77 648.08 369.84 644.02 369.84 641.37C369.84 640.84 369.96 640.3 370.2 639.73C370.44 639.16 370.71 638.82 371.01 638.71C371.38 638.6 373.68 638.55 377.93 638.55C382.76 638.55 386.01 638.57 387.67 638.63C388.12 638.66 388.34 638.97 388.34 639.58C388.34 641.16 388.24 643.32 388.04 646.06C387.79 649.57 387.5 651.33 387.15 651.33L386.87 651.29C383.12 650.73 380.78 650.46 379.85 650.46C378.02 650.46 377.05 650.62 376.91 650.96C376.63 651.79 376.49 653.35 376.49 655.65C376.49 656 376.53 656.28 376.61 656.48C377.03 656.48 377.68 656.41 378.58 656.27C379.43 656.13 380.08 656.06 380.55 656.06C383.64 656.06 386.2 657.43 388.24 660.17Z" fill="black"/>
<path d="M376.41 51.47C376.47 51.63 376.51 51.77 376.5 51.88C376.49 52.36 376.28 52.59 375.86 52.58C375.67 52.58 375.35 52.53 374.91 52.44C374.47 52.35 374.13 52.31 373.89 52.3C372.21 52.29 370.72 52.76 369.47 53.66C367.98 54.73 367.22 56.21 367.24 58.09C367.26 59.79 368.11 61.86 369.74 64.33C372.61 68.76 374.02 71.12 374.15 71.35C375.67 74.42 376.36 77.48 376.3 80.51C376.18 86.15 374.27 90.93 370.82 94.95C367.79 98.49 364.23 100.81 360.04 101.95C359.88 101.98 359.76 102 359.66 102C359.21 102.02 358.13 100.11 356.34 96.3C354.54 92.49 353.56 90.16 353.51 89.3C353.49 89 353.63 88.79 353.94 88.69C356.88 87.6 358.85 86.75 359.81 86.07C361.92 84.54 362.97 82.38 362.89 79.55C362.84 77.75 362.06 75.75 360.5 73.58C357.79 69.89 356.25 67.87 356 67.47C354.32 64.66 353.35 61.52 353.15 58.02C352.86 52.95 354.6 48.6 358.5 45.09C361.7 42.21 365.8 40.28 370.7 39.45C370.97 39.43 371.18 39.41 371.33 39.41C371.69 39.41 371.98 39.75 372.2 40.42C372.82 42.45 374.28 46.12 376.41 51.47Z" fill="black"/>
<path d="M361.36 380.61L350.51 382.45C350.44 382.11 348.54 374.12 334.56 372.73C334.09 372.68 332.66 372.54 330.82 375.25C327.66 379.9 327.22 386.99 327.99 388.79C329.45 390.18 333.34 389.83 336.21 389.58C337.72 389.44 339.16 389.31 340.51 389.36C346.56 389.58 356.65 392.76 356.21 411.7C355.93 423.89 344.73 430.92 337.1 431.12C336.81 431.13 336.52 431.14 336.24 431.14C324.86 431.14 320.61 424.78 314.61 407.49L325.01 403.89C330.69 420.29 332.36 420.25 336.8 420.13C339.07 420.07 345.08 417.31 345.21 411.45C345.47 400.54 341.85 400.42 340.12 400.36C339.44 400.34 338.35 400.43 337.18 400.53C332.19 400.98 324.65 401.65 319.61 395.93C314.98 390.65 316.29 379.24 320.17 371.69C323.73 364.77 329.39 361.15 335.65 361.78C358.28 364.03 361.24 379.93 361.36 380.61Z" fill="black"/>
<path d="M358.01 644.52C360.32 648.78 361.48 654.39 361.48 661.33C361.48 670.41 359.45 677.73 355.4 683.29C351.61 688.49 346.94 691.09 341.38 691.09C341.05 691.09 340.79 690.72 340.61 689.97C339.43 685.15 338.84 682.03 338.84 680.59C338.84 679.7 339.23 679.26 340.01 679.26C345.32 679.26 348.77 676.99 350.34 672.45C350.56 671.85 350.67 671.4 350.67 671.13C350.67 670.96 350.62 670.88 350.52 670.88C350.44 670.88 350.25 670.99 349.95 671.21C348.55 672.29 346.97 672.83 345.21 672.83C342.31 672.83 339.94 671.39 338.09 668.51C336.2 665.61 335.25 661.75 335.25 656.93C335.25 650.68 336.51 645.88 339.01 642.53C341.3 639.43 344.37 637.88 348.2 637.88C352.34 637.88 355.61 640.1 358.01 644.52ZM352.14 657.35C352.14 655.24 351.78 653.45 351.07 651.95C350.29 650.32 349.28 649.5 348.05 649.5C345.3 649.5 343.92 651.91 343.92 656.72C343.92 658.69 344.29 660.33 345.04 661.64C345.79 662.96 346.74 663.61 347.9 663.61C349.08 663.61 350.07 663.07 350.87 662C351.71 660.81 352.14 659.26 352.14 657.35Z" fill="black"/>
<path d="M355.57 462.46L355.53 462.66L354.65 467.56L354.31 467.5C344.66 467.21 334.33 466.38 326.84 466.11C325.14 466.06 323.58 466.03 322.21 466.04C320.17 466.06 315.48 466.12 310.08 464C306.8 462.71 302.3 461.01 300.38 456.46C300.1 455.81 298.2 451.11 300.51 446.76C302.4 443.19 306.17 441.82 309.44 440.63C311.96 439.72 314.18 439.38 315.72 439.24L315.85 439.13C326.02 450.8 339.86 459.17 355.57 462.46Z" fill="#0071BC"/>
<path d="M354.65 467.56L352.69 478.56C312.1 556.01 269.1 490.42 269.1 490.42C274.66 491 307.47 493.93 322.61 473.57C324.16 471.48 325.63 469.02 326.84 466.12V466.11C334.33 466.38 344.66 467.21 354.31 467.5L354.65 467.56Z" fill="#0071BC"/>
<path d="M248.16 448.28C240.26 437.64 238.55 424.1 244.08 413.57C249.97 402.35 261.72 399.04 264.51 398.25C276.65 394.83 296.58 404.69 299.39 405.98L299.44 405.97C301.98 418.5 307.76 429.86 315.85 439.13L315.72 439.24C314.18 439.38 311.96 439.72 309.44 440.63C306.17 441.82 302.4 443.19 300.51 446.76C298.2 451.11 300.1 455.81 300.38 456.46C302.3 461.01 306.8 462.71 310.08 464C315.48 466.12 320.17 466.06 322.21 466.04C323.58 466.03 325.14 466.06 326.84 466.11V466.12C325.63 469.02 324.16 471.48 322.61 473.57C307.47 493.93 274.66 491 269.1 490.42C269.1 490.42 312.1 556.01 352.69 478.56L351.6 484.72C346.15 514.68 323 526.25 323 526.25L348.31 550.31H211.69V423.65C228.41 438.66 247.63 448.03 248.16 448.28Z" fill="white"/>
<path d="M351.07 651.95C351.78 653.45 352.14 655.24 352.14 657.35C352.14 659.26 351.71 660.81 350.87 662C350.07 663.07 349.08 663.61 347.9 663.61C346.74 663.61 345.79 662.96 345.04 661.64C344.29 660.33 343.92 658.69 343.92 656.72C343.92 651.91 345.3 649.5 348.05 649.5C349.28 649.5 350.29 650.32 351.07 651.95Z" fill="white"/>
<path d="M332.13 232.69L332.14 232.7C328.32 235.7 324.62 238.7 319.43 243.96C308.37 255.16 299.01 264.64 294.4 278.68C288.2 297.6 293.59 315.75 297.98 326.17C297.98 326.17 303.21 338.85 312.85 345.79L313.69 346.47C309.19 352.13 305.53 358.47 302.88 365.32C301.46 363.93 250.94 314.76 211.69 339.74V232.69H332.13Z" fill="white"/>
<path d="M327.45 102.06C327.53 102.56 327.34 102.94 326.89 103.21C326.34 103.53 324.53 103.93 321.49 104.51C318.7 105.03 316.88 105.3 316.04 105.25C315.34 105.2 314.79 104.67 314.39 103.68C312.87 99.91 311.85 97.92 311.42 97.76C311.08 97.63 308.34 98.11 303.32 99.38C299.92 100.23 298.16 100.86 298.01 101.16C297.79 101.69 297.82 103.22 298.1 105.77C298.36 108.09 298.26 109.43 297.8 109.75C297.22 110.15 295.05 110.87 291.36 112.03C288.45 112.94 286.87 113.05 286.62 112.29C286.39 111.61 285.46 102.47 285.23 84.77C285.1 74.21 285.46 63.48 285.61 53.04C285.62 51.96 285.8 51.34 286.18 51.24C286.82 51.07 287.82 50.88 289.2 50.67C290.57 50.46 291.58 50.27 292.25 50.11C292.89 49.95 293.82 49.67 295.04 49.28C296.27 48.89 297.19 48.62 297.81 48.48C298.26 48.38 298.78 48.73 299.37 49.54C305.17 58.37 310.33 67.64 315.3 76.88C323.78 92.61 327.33 101.32 327.45 102.06ZM304.74 84.02C304.75 83.87 304.73 83.68 304.67 83.43C304.46 82.54 303.4 80.18 301.42 76.4C299.51 72.75 298.15 70.45 297.41 69.49C297.24 70.79 297.11 73.57 297.05 77.79C296.98 82.27 297.06 84.89 297.26 85.61C297.39 86.1 298.11 86.17 299.36 85.93C300.01 85.81 301.1 85.57 302.59 85.21C303.98 84.88 304.7 84.48 304.74 84.02Z" fill="black"/>
<path d="M327.26 639.96C327.26 640.12 327.25 640.41 327.21 640.83C327.03 643.26 326.94 649.23 326.94 658.72C326.94 661.9 326.95 666.68 326.98 673.08C327 679.47 327.01 684.26 327.01 687.44C327.01 687.96 326.87 688.45 326.59 688.89C326.31 689.33 326 689.55 325.67 689.55C324.87 689.55 323.68 689.57 322.08 689.59C320.49 689.62 319.29 689.64 318.5 689.64C317.88 689.64 317.58 689.19 317.6 688.31L317.63 687.85C317.86 677.28 317.97 670.88 317.97 668.64V656.31C317.97 655.54 317.87 655.15 317.65 655.15C317.32 655.15 316.82 655.31 316.14 655.65C315.47 655.98 314.96 656.14 314.61 656.14C314.1 656.14 313.84 655.63 313.84 654.61C313.84 653.67 313.83 652.26 313.82 650.37C313.8 648.49 313.79 647.07 313.79 646.1C313.79 645.55 314 645.13 314.41 644.85C316.85 643.17 318.77 640.9 320.17 638.05C320.45 637.47 320.69 637.18 320.89 637.18C320.92 637.18 321.02 637.2 321.19 637.26C321.82 637.48 322.76 637.83 324 638.3C324.66 638.44 325.64 638.68 326.91 639.04C327.15 639.15 327.26 639.46 327.26 639.96Z" fill="black"/>
<path d="M304.67 83.43C304.73 83.68 304.75 83.87 304.74 84.02C304.7 84.48 303.98 84.88 302.59 85.21C301.1 85.57 300.01 85.81 299.36 85.93C298.11 86.17 297.39 86.1 297.26 85.61C297.06 84.89 296.98 82.27 297.05 77.79C297.11 73.57 297.24 70.79 297.41 69.49C298.15 70.45 299.51 72.75 301.42 76.4C303.4 80.18 304.46 82.54 304.67 83.43Z" fill="white"/>
<path d="M299.44 405.97L299.39 405.98C296.58 404.69 276.65 394.83 264.51 398.25C261.72 399.04 249.97 402.35 244.08 413.57C238.55 424.1 240.26 437.64 248.16 448.28C247.63 448.03 228.41 438.66 211.69 423.65C192.47 406.4 176.55 381.7 196.08 354.85C200.95 348.15 206.21 343.22 211.69 339.74C250.94 314.76 301.46 363.93 302.88 365.32C299.73 373.44 298 382.27 298 391.5C298 396.46 298.5 401.3 299.44 405.97Z" fill="#0071BC"/>
<path d="M268.33 81.25C270.64 87.57 271.17 93.18 270.09 98.03C268.94 103.19 266.1 106.67 261.46 108.65C260.69 108.98 259.49 109.43 257.89 110.01C256.28 110.58 255.09 111.06 254.33 111.42C253.5 111.8 253.31 112.46 253.75 113.39C254.29 114.55 255.19 116.23 256.44 118.44C257.68 120.65 258.57 122.32 259.1 123.46C259.37 124.04 259.31 124.41 258.93 124.59C257.82 125.11 256.13 125.86 253.89 126.86C251.64 127.87 249.97 128.67 248.88 129.24C248.36 129.51 247.91 129.3 247.54 128.58C246.09 125.85 243.95 121.74 241.13 116.23C238.3 110.73 236.17 106.61 234.73 103.88C230.65 96.15 226.1 88.18 220.99 79.99C220.87 79.79 220.81 79.69 220.68 79.49C220.39 79.05 220.57 78.59 221.22 78.13C222.79 76.99 226.49 74.88 232.42 72.07C235.92 70.41 239.32 68.93 242.61 67.63C248.03 65.5 253.21 65.69 257.87 68.14C262.64 70.65 266.08 75.09 268.33 81.25ZM252.76 98.07C257.15 96.12 258.21 92.42 255.86 86.8C253.36 80.82 249.63 78.82 244.73 81C241.29 82.54 239.62 83.64 239.65 84.15C239.66 84.54 240.95 87.49 243.55 92.97C243.92 93.75 244.49 94.89 245.26 96.38C246.03 97.88 246.6 99.02 246.97 99.8C247.21 100.3 249.12 99.68 252.76 98.07Z" fill="black"/>
<path d="M255.86 86.8C258.21 92.42 257.15 96.12 252.76 98.07C249.12 99.68 247.21 100.3 246.97 99.8C246.6 99.02 246.03 97.88 245.26 96.38C244.49 94.89 243.92 93.75 243.55 92.97C240.95 87.49 239.66 84.54 239.65 84.15C239.62 83.64 241.29 82.54 244.73 81C249.63 78.82 253.36 80.82 255.86 86.8Z" fill="white"/>
<path d="M224.72 109.2C229.07 116.71 230.79 124.1 230.29 131.27C229.77 138.55 227.03 143.82 221.83 147.44C216.66 151.04 210.73 151.78 203.61 149.78C196.64 147.81 190.28 143.72 184.77 137.08C179.25 130.43 176.39 123.3 176.6 115.6C176.82 107.74 180.23 101.32 186.62 96.87C192.97 92.44 200.1 91.49 207.49 94.06C214.75 96.58 220.41 101.77 224.72 109.2ZM216.74 126.31C216.82 122.67 215.83 119.16 213.68 115.81C211.44 112.3 208.64 109.86 205.26 108.59C201.71 107.26 198.42 107.61 195.51 109.64C192.73 111.57 191.33 114.56 191.34 118.49C191.35 122.29 192.6 125.77 195 128.94C197.57 132.34 200.52 134.55 203.78 135.66C207.2 136.82 210.21 136.47 212.89 134.6C215.39 132.86 216.65 130.12 216.74 126.31Z" fill="black"/>
<path d="M213.68 115.81C215.83 119.16 216.82 122.67 216.74 126.31C216.65 130.12 215.39 132.86 212.89 134.6C210.21 136.47 207.2 136.82 203.78 135.66C200.52 134.55 197.57 132.34 195 128.94C192.6 125.77 191.35 122.29 191.34 118.49C191.33 114.56 192.73 111.57 195.51 109.64C198.42 107.61 201.71 107.26 205.26 108.59C208.64 109.86 211.44 112.3 213.68 115.81Z" fill="white"/>
<path d="M211.69 423.65V550.31H151.44V232.69H211.69V339.74C206.21 343.22 200.95 348.15 196.08 354.85C176.55 381.7 192.47 406.4 211.69 423.65Z" fill="#C1272D"/>
<path d="M168.07 165.31C168.07 165.36 167.22 166.27 165.56 168.06C165.32 168.31 165.72 168.92 166.76 169.89C168.14 171.18 170.29 173.01 173.21 175.38C176.13 177.75 178.28 179.59 179.65 180.88C180 181.21 180.15 181.51 180.06 181.67C179.94 181.89 179.7 182.14 179.51 182.38C178.74 183.38 177.46 184.86 175.68 186.86C173.66 189.15 172.4 190.51 171.87 190.88C171.34 191.25 170.81 191.21 170.28 190.76C167.95 188.78 164.51 185.7 159.97 181.52C155.43 177.33 151.99 174.23 149.65 172.22C140.71 164.59 133.59 158.81 128.25 154.92C128.06 154.78 127.97 154.71 127.78 154.57C127.4 154.29 127.43 153.76 127.85 153C128.28 152.24 130.73 149.03 135.42 143.66C138.59 140.02 141.22 137.23 143.22 135.2C147.36 130.99 151.85 128.72 156.45 128.34C161.66 127.91 166.25 130.09 170.29 134.65C172.98 137.69 174.75 140.45 175.63 142.91C176.51 145.37 176.75 148.32 176.41 151.76C176.33 152.44 176.43 152.93 176.69 153.21C176.71 153.21 180.14 154.77 186.78 158.14C193.46 161.53 196.93 163.63 197.41 164.17C197.54 164.32 197.48 164.56 197.22 164.9C196.74 165.55 195.3 166.94 192.96 169.12C190.95 171 189.55 172.24 188.72 172.81C188.33 173.08 188.1 173.21 188.01 173.22C187.86 173.24 187.56 173.15 187.11 172.93C186.13 172.38 184.67 171.54 182.72 170.47C180.19 169.08 176.35 167.1 171.17 164.64C170.17 164.2 169.13 164.41 168.07 165.31ZM161.24 157.1C164.84 153.37 165.01 149.86 161.64 146.39C159.27 143.96 156.93 142.95 154.61 143.43C152.83 143.8 150.77 145.17 148.49 147.56C146.85 149.28 146.29 150.5 146.77 151.15C147.34 151.9 149.3 153.82 152.59 156.9C153.05 157.34 153.75 157.97 154.68 158.81C155.61 159.65 156.3 160.28 156.74 160.7C156.85 160.79 157.21 160.61 157.83 160.15C159 159.27 160.14 158.24 161.24 157.1Z" fill="black"/>
<path d="M161.64 146.39C165.01 149.86 164.84 153.37 161.24 157.1C160.14 158.24 159 159.27 157.83 160.15C157.21 160.61 156.85 160.79 156.74 160.7C156.3 160.28 155.61 159.65 154.68 158.81C153.75 157.97 153.05 157.34 152.59 156.9C149.3 153.82 147.34 151.9 146.77 151.15C146.29 150.5 146.85 149.28 148.49 147.56C150.77 145.17 152.83 143.8 154.61 143.43C156.93 142.95 159.27 143.96 161.64 146.39Z" fill="white"/>
<path d="M159.22 206.69C159.22 206.77 159.1 207.06 158.85 207.56C158.26 208.76 157.22 210.4 155.77 212.51C154.16 214.86 152.96 216.51 152.14 217.33C151.7 217.78 151.15 217.8 150.55 217.41C147.8 215.62 143.75 212.84 138.39 209.05C133.03 205.26 128.99 202.46 126.25 200.66C124.44 199.47 120.35 196.9 113.96 192.97C111.57 197.65 109.62 201.38 108.01 204.08C107.79 204.44 107.56 204.55 107.32 204.41C107.01 204.23 106.18 203.52 104.85 202.29C103.4 200.94 102.51 200.09 102.19 199.85C101.17 199.1 100.03 198.35 98.98 197.58C97.29 196.36 96.57 195.52 96.81 195.12C96.84 195.07 96.95 194.92 97.15 194.65C99.97 191.13 103.68 185.72 108.54 178.68C109.93 176.68 112.26 172.84 115.73 167.36C117.6 164.42 118.57 162.96 118.59 162.94C118.92 162.52 119.14 162.3 119.24 162.28C119.34 162.26 119.61 162.39 119.98 162.66C120.56 163.09 121.36 163.8 122.38 164.66C123.5 165.62 124.3 166.28 124.78 166.66C125.33 167.09 126.18 167.66 127.34 168.36C128.5 169.07 129.34 169.63 129.86 170.04C130.3 170.39 130.34 170.78 130 171.22C129.4 171.99 126.86 174.85 122.54 180.1C128.13 184.37 132.05 187.31 134.3 188.95C136.95 190.88 141 193.68 146.45 197.39C151.9 201.09 155.94 203.92 158.58 205.85C159.01 206.17 159.22 206.44 159.22 206.69Z" fill="black"/>
<path d="M129.86 170.04C130.3 170.39 130.34 170.78 130 171.22C129.4 171.99 126.86 174.85 122.54 180.1C128.13 184.37 132.05 187.31 134.3 188.95C136.95 190.88 141 193.68 146.45 197.39C151.9 201.09 155.94 203.92 158.58 205.85C159.01 206.17 159.22 206.44 159.22 206.69C159.22 206.77 159.1 207.06 158.85 207.56C158.26 208.76 157.22 210.4 155.77 212.51C154.16 214.86 152.96 216.51 152.14 217.33C151.7 217.78 151.15 217.8 150.55 217.41C147.8 215.62 143.75 212.84 138.39 209.05C133.03 205.26 128.99 202.46 126.25 200.66C124.44 199.47 120.35 196.9 113.96 192.97C111.57 197.65 109.62 201.38 108.01 204.08C107.79 204.44 107.56 204.55 107.32 204.41C107.01 204.23 106.18 203.52 104.85 202.29C103.4 200.94 102.51 200.09 102.19 199.85C101.17 199.1 100.03 198.35 98.98 197.58C97.29 196.36 96.57 195.52 96.81 195.12C96.84 195.07 96.95 194.92 97.15 194.65C99.97 191.13 103.68 185.72 108.54 178.68C109.93 176.68 112.26 172.84 115.73 167.36C117.6 164.42 118.57 162.96 118.59 162.94C118.92 162.52 119.14 162.3 119.24 162.28C119.34 162.26 119.61 162.39 119.98 162.66C120.56 163.09 121.36 163.8 122.38 164.66C123.5 165.62 124.3 166.28 124.78 166.66C125.33 167.09 126.18 167.66 127.34 168.36C128.5 169.07 129.34 169.63 129.86 170.04Z" stroke="black" stroke-miterlimit="10"/>
<path d="M167.92 165.43C167.96 165.39 168 165.36 168.04 165.33C168.06 165.32 168.07 165.31 168.07 165.31" stroke="black" stroke-miterlimit="10"/>
<path d="M168.07 165.31C168.07 165.36 167.22 166.27 165.56 168.06C165.32 168.31 165.72 168.92 166.76 169.89C168.14 171.18 170.29 173.01 173.21 175.38C176.13 177.75 178.28 179.59 179.65 180.88C180 181.21 180.15 181.51 180.06 181.67C179.94 181.89 179.7 182.14 179.51 182.38C178.74 183.38 177.46 184.86 175.68 186.86C173.66 189.15 172.4 190.51 171.87 190.88C171.34 191.25 170.81 191.21 170.28 190.76C167.95 188.78 164.51 185.7 159.97 181.52C155.43 177.33 151.99 174.23 149.65 172.22C140.71 164.59 133.59 158.81 128.25 154.92C128.06 154.78 127.97 154.71 127.78 154.57C127.4 154.29 127.43 153.76 127.85 153C128.28 152.24 130.73 149.03 135.42 143.66C138.59 140.02 141.22 137.23 143.22 135.2C147.36 130.99 151.85 128.72 156.45 128.34C161.66 127.91 166.25 130.09 170.29 134.65C172.98 137.69 174.75 140.45 175.63 142.91C176.51 145.37 176.75 148.32 176.41 151.76C176.33 152.44 176.43 152.93 176.69 153.21C176.71 153.21 180.14 154.77 186.78 158.14C193.46 161.53 196.93 163.63 197.41 164.17C197.54 164.32 197.48 164.56 197.22 164.9C196.74 165.55 195.3 166.94 192.96 169.12C190.95 171 189.55 172.24 188.72 172.81C188.33 173.08 188.1 173.21 188.01 173.22C187.86 173.24 187.56 173.15 187.11 172.93C186.13 172.38 184.67 171.54 182.72 170.47C180.19 169.08 176.35 167.1 171.17 164.64C170.17 164.2 169.13 164.41 168.07 165.31Z" stroke="black" stroke-miterlimit="10"/>
<path d="M161.64 146.39C159.27 143.96 156.93 142.95 154.61 143.43C152.83 143.8 150.77 145.17 148.49 147.56C146.85 149.28 146.29 150.5 146.77 151.15C147.34 151.9 149.3 153.82 152.59 156.9C153.05 157.34 153.75 157.97 154.68 158.81C155.61 159.65 156.3 160.28 156.74 160.7C156.85 160.79 157.21 160.61 157.83 160.15C159 159.27 160.14 158.24 161.24 157.1C164.84 153.37 165.01 149.86 161.64 146.39Z" stroke="black" stroke-miterlimit="10"/>
<path d="M224.72 109.2C229.07 116.71 230.79 124.1 230.29 131.27C229.77 138.55 227.03 143.82 221.83 147.44C216.66 151.04 210.73 151.78 203.61 149.78C196.64 147.81 190.28 143.72 184.77 137.08C179.25 130.43 176.39 123.3 176.6 115.6C176.82 107.74 180.23 101.32 186.62 96.87C192.97 92.44 200.1 91.49 207.49 94.06C214.75 96.58 220.41 101.77 224.72 109.2Z" stroke="black" stroke-miterlimit="10"/>
<path d="M213.68 115.81C211.44 112.3 208.64 109.86 205.26 108.59C201.71 107.26 198.42 107.61 195.51 109.64C192.73 111.57 191.33 114.56 191.34 118.49C191.35 122.29 192.6 125.77 195 128.94C197.57 132.34 200.52 134.55 203.78 135.66C207.2 136.82 210.21 136.47 212.89 134.6C215.39 132.86 216.65 130.12 216.74 126.31C216.82 122.67 215.83 119.16 213.68 115.81Z" stroke="black" stroke-miterlimit="10"/>
<path d="M268.33 81.25C270.64 87.57 271.17 93.18 270.09 98.03C268.94 103.19 266.1 106.67 261.46 108.65C260.69 108.98 259.49 109.43 257.89 110.01C256.28 110.58 255.09 111.06 254.33 111.42C253.5 111.8 253.31 112.46 253.75 113.39C254.29 114.55 255.19 116.23 256.44 118.44C257.68 120.65 258.57 122.32 259.1 123.46C259.37 124.04 259.31 124.41 258.93 124.59C257.82 125.11 256.13 125.86 253.89 126.86C251.64 127.87 249.97 128.67 248.88 129.24C248.36 129.51 247.91 129.3 247.54 128.58C246.09 125.85 243.95 121.74 241.13 116.23C238.3 110.73 236.17 106.61 234.73 103.88C230.65 96.15 226.1 88.18 220.99 79.99C220.87 79.79 220.81 79.69 220.68 79.49C220.39 79.05 220.57 78.59 221.22 78.13C222.79 76.99 226.49 74.88 232.42 72.07C235.92 70.41 239.32 68.93 242.61 67.63C248.03 65.5 253.21 65.69 257.87 68.14C262.64 70.65 266.08 75.09 268.33 81.25Z" stroke="black" stroke-miterlimit="10"/>
<path d="M255.86 86.8C253.36 80.82 249.63 78.82 244.73 81C241.29 82.54 239.62 83.64 239.65 84.15C239.66 84.54 240.95 87.49 243.55 92.97C243.92 93.75 244.49 94.89 245.26 96.38C246.03 97.88 246.6 99.02 246.97 99.8C247.21 100.3 249.12 99.68 252.76 98.07C257.15 96.12 258.21 92.42 255.86 86.8Z" stroke="black" stroke-miterlimit="10"/>
<path d="M327.45 102.06C327.53 102.56 327.34 102.94 326.89 103.21C326.34 103.53 324.53 103.93 321.49 104.51C318.7 105.03 316.88 105.3 316.04 105.25C315.34 105.2 314.79 104.67 314.39 103.68C312.87 99.91 311.85 97.92 311.42 97.76C311.08 97.63 308.34 98.11 303.32 99.38C299.92 100.23 298.16 100.86 298.01 101.16C297.79 101.69 297.82 103.22 298.1 105.77C298.36 108.09 298.26 109.43 297.8 109.75C297.22 110.15 295.05 110.87 291.36 112.03C288.45 112.94 286.87 113.05 286.62 112.29C286.39 111.61 285.46 102.47 285.23 84.77C285.1 74.21 285.46 63.48 285.61 53.04C285.62 51.96 285.8 51.34 286.18 51.24C286.82 51.07 287.82 50.88 289.2 50.67C290.57 50.46 291.58 50.27 292.25 50.11C292.89 49.95 293.82 49.67 295.04 49.28C296.27 48.89 297.19 48.62 297.81 48.48C298.26 48.38 298.78 48.73 299.37 49.54C305.17 58.37 310.33 67.64 315.3 76.88C323.78 92.61 327.33 101.32 327.45 102.06Z" stroke="black" stroke-miterlimit="10"/>
<path d="M297.41 69.49C297.24 70.79 297.11 73.57 297.05 77.79C296.98 82.27 297.06 84.89 297.26 85.61C297.39 86.1 298.11 86.17 299.36 85.93C300.01 85.81 301.1 85.57 302.59 85.21C303.98 84.88 304.7 84.48 304.74 84.02C304.75 83.87 304.73 83.68 304.67 83.43C304.46 82.54 303.4 80.18 301.42 76.4C299.51 72.75 298.15 70.45 297.41 69.49Z" stroke="black" stroke-miterlimit="10"/>
<path d="M376.3 80.51C376.18 86.15 374.27 90.93 370.82 94.95C367.79 98.49 364.23 100.81 360.04 101.95C359.88 101.98 359.76 102 359.66 102C359.21 102.02 358.13 100.11 356.34 96.3C354.54 92.49 353.56 90.16 353.51 89.3C353.49 89 353.63 88.79 353.94 88.69C356.88 87.6 358.85 86.75 359.81 86.07C361.92 84.54 362.97 82.38 362.89 79.55C362.84 77.75 362.06 75.75 360.5 73.58C357.79 69.89 356.25 67.87 356 67.47C354.32 64.66 353.35 61.52 353.15 58.02C352.86 52.95 354.6 48.6 358.5 45.09C361.7 42.21 365.8 40.28 370.7 39.45C370.97 39.43 371.18 39.41 371.33 39.41C371.69 39.41 371.98 39.75 372.2 40.42C372.82 42.45 374.28 46.12 376.41 51.47C376.47 51.63 376.51 51.77 376.5 51.88C376.49 52.36 376.28 52.59 375.86 52.58C375.67 52.58 375.35 52.53 374.91 52.44C374.47 52.35 374.13 52.31 373.89 52.3C372.21 52.29 370.72 52.76 369.47 53.66C367.98 54.73 367.22 56.21 367.24 58.09C367.26 59.79 368.11 61.86 369.74 64.33C372.61 68.76 374.02 71.12 374.15 71.35C375.67 74.42 376.36 77.48 376.3 80.51Z" stroke="black" stroke-miterlimit="10"/>
<path d="M424.92 104.17C424.81 104.66 424.49 104.96 423.97 105.04C423.35 105.14 421.51 104.87 418.46 104.31C415.67 103.8 413.88 103.4 413.12 103.05C412.48 102.75 412.16 102.06 412.15 100.99C412.11 96.94 411.89 94.71 411.55 94.41C411.28 94.17 408.56 93.63 403.43 93.01C399.96 92.59 398.1 92.55 397.85 92.77C397.46 93.18 396.92 94.62 396.26 97.1C395.65 99.35 395.08 100.57 394.53 100.7C393.85 100.87 391.58 100.76 387.74 100.51C384.71 100.31 383.22 99.85 383.26 99.04C383.29 98.32 385.75 89.48 391.98 72.9C395.69 63.01 399.93 53.14 403.87 43.46C404.28 42.46 404.67 41.95 405.05 41.99C405.71 42.06 406.71 42.24 408.06 42.54C409.41 42.83 410.43 43.03 411.1 43.11C411.76 43.19 412.72 43.27 414 43.34C415.28 43.42 416.24 43.5 416.86 43.59C417.32 43.66 417.68 44.17 417.93 45.14C420.1 55.45 421.52 65.94 422.78 76.33C424.94 94.04 425.07 103.44 424.92 104.17Z" stroke="black" stroke-miterlimit="10"/>
<path d="M408.83 63.03C408.2 64.18 407.07 66.72 405.47 70.63C403.77 74.79 402.9 77.26 402.82 78.01C402.76 78.5 403.4 78.83 404.65 79.06C405.3 79.17 406.4 79.35 407.92 79.55C409.33 79.73 410.14 79.62 410.35 79.2C410.41 79.07 410.46 78.88 410.5 78.63C410.63 77.72 410.5 75.15 410.04 70.92C409.59 66.82 409.17 64.19 408.83 63.03Z" stroke="black" stroke-miterlimit="10"/>
<path d="M492.53 66.39C491.32 69.32 489.39 73.67 486.76 79.46C484.13 85.25 482.21 89.62 481 92.58C476.81 102.75 474.72 107.83 470.53 118C470.25 118.69 469.84 118.93 469.3 118.71C468.85 118.53 468.16 118.28 467.24 117.98C466.31 117.68 465.63 117.44 465.18 117.27C464.69 117.08 463.98 116.75 463.05 116.28C462.11 115.81 461.4 115.49 460.91 115.31C460.57 115.19 460.32 114.61 460.16 113.58C459.71 110.56 458.71 103.83 456.38 93.39C455.76 90.48 454.74 86.17 453.14 80.47C453.11 80.28 452.99 80.08 452.8 79.85C452.57 79.98 452.4 80.25 452.29 80.65C451.38 83.75 450.1 88.41 448.42 94.64C446.74 100.87 445.44 105.52 444.54 108.62C444.26 109.55 443.87 109.94 443.35 109.79C439.37 108.66 437.37 108.13 433.35 107.15C432.79 107.01 432.61 106.52 432.81 105.69C433.52 102.77 434.7 98.4 436.36 92.56C438.02 86.73 439.22 82.35 439.94 79.41C440.71 76.31 441.75 71.64 443.06 65.41C444.36 59.18 445.38 54.52 446.13 51.44C446.27 50.85 446.81 50.66 447.73 50.89C449.1 51.22 450.82 51.54 452.88 51.85C453.36 51.92 454.35 51.98 455.82 52.07C457.06 52.15 458.03 52.29 458.71 52.48C458.99 52.56 459.3 53.14 459.62 54.22C462.48 63.9 463.73 68.75 465.84 78.44C466.31 80.62 467.02 83.82 467.89 88.05C468.13 89.05 468.43 89.61 468.8 89.74C469.07 89.84 469.58 88.87 470.32 86.83C471.32 84.09 472.7 79.92 474.45 74.31C476.2 68.71 477.56 64.52 478.56 61.75C478.91 60.78 479.33 60.38 479.81 60.55C481.19 61.05 483.29 61.74 486.11 62.67C488.93 63.61 491.02 64.37 492.38 64.93C492.81 65.1 492.86 65.59 492.53 66.39Z" stroke="black" stroke-miterlimit="10"/>
<path d="M521.98 148.4C520.55 147.38 518.7 146 516.43 144.35C513.47 142.2 511.56 140.93 510.81 140.42C507.77 138.41 506.23 137.43 503.12 135.53C502.32 135.09 501.04 134.41 499.8 133.42C499.36 133.07 499.31 132.49 499.67 131.86C501.16 129.22 503.42 125.28 506.46 120.05C509.5 114.82 511.76 110.89 513.26 108.25C514.84 105.44 517.15 101.19 520.17 95.5C523.19 89.81 525.48 85.56 527.06 82.74C527.36 82.21 527.84 82.13 528.49 82.49C529.13 82.86 530.08 83.44 531.32 84.26C532.55 85.07 533.48 85.66 534.1 86.03C534.8 86.45 535.87 87.03 537.3 87.79C538.74 88.55 539.8 89.15 540.5 89.59C540.81 89.79 540.82 90.1 540.52 90.54C540.39 90.71 540.33 90.8 540.2 90.98C537.16 95.25 532.71 101.73 526.86 110.44C524.52 114.17 523.35 116.04 521 119.77C519.12 122.79 517.69 125.02 516.9 126.41C516.74 126.69 516.58 127 516.42 127.29C516.26 127.58 516.29 127.85 516.5 128.08C516.52 128.09 516.75 128.23 517.21 128.52C518.84 129.55 521.34 130.99 524.69 132.93C528.04 134.88 530.48 136.47 532.06 137.61C532.53 137.96 532.58 138.39 532.21 138.91C529.41 142.75 526.77 145.91 524.33 148.4C523.83 148.93 523.4 149.15 523.05 149.07C522.94 149.06 522.58 148.83 521.98 148.4Z" stroke="black" stroke-miterlimit="10"/>
<path d="M573.96 165.63C568.85 170.54 564.89 173.4 562.12 174.25C557.05 175.8 551.32 173.21 544.41 166.98C541.29 164.16 539.12 161.75 537.93 159.63C536.04 156.24 535.86 152.7 537.4 148.93C538.16 147.09 540.04 144.21 543.07 140.34C543.78 139.44 544.85 138.12 546.29 136.39C547.73 134.66 548.8 133.35 549.48 132.48C551.47 129.94 554.36 126.05 558.12 120.8C561.89 115.55 564.74 111.66 566.71 109.14C567.12 108.61 567.53 108.51 567.95 108.84C569.16 109.79 570.95 111.3 573.28 113.4C575.61 115.5 577.35 117.08 578.53 118.09C579.01 118.5 579.05 118.95 578.65 119.41C576.25 122.19 572.58 126.28 567.65 131.71C562.72 137.13 559.06 141.24 556.67 144.03C553.83 147.34 552.19 149.83 551.74 151.45C551.12 153.66 551.93 155.77 554.2 157.83C557.52 160.86 561.04 160.44 564.85 156.43C567.63 153.5 571.73 149.06 577.16 143.1C582.59 137.13 586.68 132.68 589.45 129.75C590.05 129.12 590.58 129.03 591.04 129.48C592.13 130.53 593.83 132.07 596.09 134.15C598.36 136.23 600.02 137.85 601.07 138.96C601.59 139.5 601.61 140.01 601.13 140.47C598.82 142.68 595.24 145.92 590.43 150.21C585.61 154.5 582.04 157.77 579.72 160.01C579.08 160.62 578.12 161.56 576.84 162.82C575.56 164.08 574.6 165.02 573.96 165.63Z" stroke="black" stroke-miterlimit="10"/>
<path d="M567.84 187.42C567.82 187.44 567.81 187.45 567.81 187.44" stroke="black" stroke-miterlimit="10"/>
<path d="M567.84 187.42C568.06 187.26 569.97 185.72 573.56 182.79C582.28 175.68 588 170.97 590.65 168.65C592.89 166.69 596.2 163.7 600.56 159.65C604.92 155.6 608.21 152.59 610.45 150.63C610.91 150.22 611.34 150.25 611.73 150.71C612.27 151.32 613.04 152.28 614.03 153.6C615.03 154.91 615.79 155.89 616.31 156.52C616.83 157.15 617.62 158.06 618.69 159.26C619.76 160.45 620.55 161.38 621.06 162.03C621.54 162.64 621.53 163.13 621.05 163.51C618.72 165.35 615.12 167.99 610.27 171.44C605.43 174.9 601.85 177.56 599.52 179.41C596.95 181.45 593.13 184.57 588.05 188.77C582.97 192.96 579.14 196.07 576.57 198.1C576.14 198.45 575.8 198.59 575.57 198.52C575.52 198.5 575.31 198.31 574.92 197.96C573.87 196.99 572.61 195.58 571.11 193.77C569.11 191.34 567.88 189.76 567.49 188.97C567.21 188.39 567.33 187.88 567.84 187.42Z" stroke="black" stroke-miterlimit="10"/>
<path d="M611.58 217.55C606.74 220.44 601.54 221.11 596.06 219.94C591.25 218.92 587.15 216.76 583.68 213.42C583.56 213.29 583.46 213.18 583.4 213.09C583.12 212.68 584.09 210.65 586.25 206.95C588.41 203.24 589.79 201.09 590.49 200.59C590.73 200.41 590.99 200.43 591.26 200.66C593.94 202.82 595.85 204.22 596.99 204.76C599.55 205.94 602.01 205.79 604.36 204.21C605.86 203.2 607.08 201.4 607.99 198.78C609.49 194.26 610.28 191.74 610.47 191.3C611.85 188.23 613.93 185.65 616.77 183.6C620.89 180.63 625.61 179.94 630.93 181.75C635.28 183.23 639.37 186.09 643.01 190.35C643.2 190.59 643.33 190.78 643.42 190.92C643.64 191.28 643.53 191.73 643.09 192.3C641.75 193.97 639.51 197.32 636.25 202.22C636.15 202.38 636.05 202.48 635.96 202.54C635.55 202.78 635.23 202.7 634.98 202.29C634.87 202.1 634.72 201.77 634.53 201.3C634.34 200.82 634.18 200.47 634.04 200.24C633.04 198.61 631.75 197.44 630.24 196.72C628.44 195.86 626.73 195.92 625.15 196.94C623.72 197.86 622.48 199.77 621.36 202.64C619.32 207.75 618.17 210.36 618.05 210.61C616.36 213.71 614.19 216.01 611.58 217.55Z" stroke="black" stroke-miterlimit="10"/>
<path d="M327.01 687.44C327.01 687.96 326.87 688.45 326.59 688.89C326.31 689.33 326 689.55 325.67 689.55C324.87 689.55 323.68 689.57 322.08 689.59C320.49 689.62 319.29 689.64 318.5 689.64C317.88 689.64 317.58 689.19 317.6 688.31L317.63 687.85C317.86 677.28 317.97 670.88 317.97 668.64V656.31C317.97 655.54 317.87 655.15 317.65 655.15C317.32 655.15 316.82 655.31 316.14 655.65C315.47 655.98 314.96 656.14 314.61 656.14C314.1 656.14 313.84 655.63 313.84 654.61C313.84 653.67 313.83 652.26 313.82 650.37C313.8 648.49 313.79 647.07 313.79 646.1C313.79 645.55 314 645.13 314.41 644.85C316.85 643.17 318.77 640.9 320.17 638.05C320.45 637.47 320.69 637.18 320.89 637.18C320.92 637.18 321.02 637.2 321.19 637.26C321.82 637.48 322.76 637.83 324 638.3C324.66 638.44 325.64 638.68 326.91 639.04C327.15 639.15 327.26 639.46 327.26 639.96C327.26 640.12 327.25 640.41 327.21 640.83C327.03 643.26 326.94 649.23 326.94 658.72C326.94 661.9 326.95 666.68 326.98 673.08C327 679.47 327.01 684.26 327.01 687.44Z" stroke="black" stroke-miterlimit="10"/>
<path d="M361.48 661.33C361.48 670.41 359.45 677.73 355.4 683.29C351.61 688.49 346.94 691.09 341.38 691.09C341.05 691.09 340.79 690.72 340.61 689.97C339.43 685.15 338.84 682.03 338.84 680.59C338.84 679.7 339.23 679.26 340.01 679.26C345.32 679.26 348.77 676.99 350.34 672.45C350.56 671.85 350.67 671.4 350.67 671.13C350.67 670.96 350.62 670.88 350.52 670.88C350.44 670.88 350.25 670.99 349.95 671.21C348.55 672.29 346.97 672.83 345.21 672.83C342.31 672.83 339.94 671.39 338.09 668.51C336.2 665.61 335.25 661.75 335.25 656.93C335.25 650.68 336.51 645.88 339.01 642.53C341.3 639.43 344.37 637.88 348.2 637.88C352.34 637.88 355.61 640.1 358.01 644.52C360.32 648.78 361.48 654.39 361.48 661.33Z" stroke="black" stroke-miterlimit="10"/>
<path d="M352.14 657.35C352.14 655.24 351.78 653.45 351.07 651.95C350.29 650.32 349.28 649.5 348.05 649.5C345.3 649.5 343.92 651.91 343.92 656.72C343.92 658.69 344.29 660.33 345.04 661.64C345.79 662.96 346.74 663.61 347.9 663.61C349.08 663.61 350.07 663.07 350.87 662C351.71 660.81 352.14 659.26 352.14 657.35Z" stroke="black" stroke-miterlimit="10"/>
<path d="M391.56 672.21C391.56 684.57 386.98 690.76 377.83 690.76C376.51 690.76 374.73 690.52 372.5 690.05C369.62 689.44 368.1 688.71 367.95 687.85C367.88 687.49 367.85 686.26 367.85 684.16C367.85 683 367.93 681.45 368.1 679.51C368.31 677.02 368.56 675.77 368.84 675.77C368.93 675.77 369.07 675.86 369.27 676.02C371.26 677.68 373.53 678.51 376.07 678.51C379.74 678.51 381.57 676.52 381.57 672.54C381.57 670.35 380.9 668.71 379.55 667.6C378.51 666.71 377.25 666.27 375.79 666.27C375.18 666.27 374.26 666.39 373.04 666.64C371.82 666.89 370.9 667.02 370.29 667.02C369.71 667.02 369.42 666.58 369.42 665.69C369.42 663.03 369.49 658.98 369.63 653.53C369.77 648.08 369.84 644.02 369.84 641.37C369.84 640.84 369.96 640.3 370.2 639.73C370.44 639.16 370.71 638.82 371.01 638.71C371.38 638.6 373.68 638.55 377.93 638.55C382.76 638.55 386.01 638.57 387.67 638.63C388.12 638.66 388.34 638.97 388.34 639.58C388.34 641.16 388.24 643.32 388.04 646.06C387.79 649.57 387.5 651.33 387.15 651.33L386.87 651.29C383.12 650.73 380.78 650.46 379.85 650.46C378.02 650.46 377.05 650.62 376.91 650.96C376.63 651.79 376.49 653.35 376.49 655.65C376.49 656 376.53 656.28 376.61 656.48C377.03 656.48 377.68 656.41 378.58 656.27C379.43 656.13 380.08 656.06 380.55 656.06C383.64 656.06 386.2 657.43 388.24 660.17C390.45 663.1 391.56 667.11 391.56 672.21Z" stroke="black" stroke-miterlimit="10"/>
<path d="M422.8 677.73C422.8 678.36 422.76 679.32 422.68 680.59C422.6 681.86 422.56 682.83 422.56 683.49C422.56 684.16 422.55 685.2 422.53 686.63C422.51 688.05 422.51 689.11 422.51 689.8C422.51 690.49 422.23 690.84 421.68 690.84C421.49 690.84 420.7 690.58 419.34 690.05C417.83 689.5 415.01 689.22 410.88 689.22C409.6 689.22 407.68 689.34 405.12 689.57C402.57 689.81 400.67 689.93 399.42 689.93C398.99 689.93 398.75 689.58 398.7 688.89C398.65 687.95 398.53 686.55 398.33 684.7C397.91 681.88 397.7 680.26 397.7 679.84C397.7 679.23 398.4 678.78 399.79 678.47C401.42 678.11 402.47 677.62 402.93 676.98C404.61 674.63 406.33 671.65 408.09 668.05C410.33 663.52 411.45 660.11 411.45 657.84C411.45 655.88 411.02 654.23 410.17 652.88C409.31 651.54 408.29 650.87 407.12 650.87C405.79 650.87 404.47 651.32 403.16 652.2C402.28 652.75 401.36 653.56 400.39 654.61C399.58 655.47 399.13 655.89 399.05 655.89C398.48 655.89 398.2 654.79 398.2 652.57C398.2 650.86 398.16 649.61 398.08 648.84C398.04 648.48 397.92 647.73 397.7 646.6C397.5 645.63 397.4 644.91 397.4 644.44C397.4 644.08 397.54 643.73 397.83 643.4C399.21 641.77 401.05 640.48 403.36 639.54C405.41 638.71 407.42 638.3 409.36 638.3C412.51 638.3 415.15 639.46 417.28 641.78C419.78 644.5 421.04 648.35 421.04 653.36C421.04 660.03 418.01 667.82 411.95 676.73C416.25 676.37 419.62 676.19 422.06 676.19C422.56 676.19 422.8 676.7 422.8 677.73Z" stroke="black" stroke-miterlimit="10"/>
<path d="M371 736C572.584 736 736 572.584 736 371C736 169.416 572.584 6 371 6C169.416 6 6 169.416 6 371C6 572.584 169.416 736 371 736Z" stroke="black" stroke-width="12" stroke-miterlimit="10"/>
<path d="M438.24 365.62C441.32 373.66 443 382.38 443 391.5C443 396.37 442.52 401.13 441.6 405.73C439.13 418.12 433.51 429.37 425.6 438.61C415.6 450.31 401.94 458.78 386.39 462.25C381.28 463.4 375.96 464 370.5 464C365.38 464 360.39 463.47 355.57 462.46C339.86 459.17 326.02 450.8 315.85 439.13C307.76 429.86 301.98 418.5 299.44 405.97C298.5 401.3 298 396.46 298 391.5C298 382.27 299.73 373.44 302.88 365.32C305.53 358.47 309.19 352.13 313.69 346.47C326.96 329.73 347.48 319 370.5 319C393.65 319 414.26 329.85 427.53 346.74C431.99 352.42 435.62 358.77 438.24 365.62Z" stroke="black" stroke-width="6" stroke-miterlimit="10"/>
<path d="M312.85 345.79C303.21 338.85 297.98 326.17 297.98 326.17C293.59 315.75 288.2 297.6 294.4 278.68C299.01 264.64 308.37 255.16 319.43 243.96C324.62 238.7 328.32 235.7 332.14 232.7C336.16 229.52 340.32 226.33 346.49 220.47C357.95 209.59 365.98 199.36 371 192.38C376.02 199.36 384.05 209.59 395.51 220.47C401.68 226.33 405.84 229.52 409.86 232.7C413.68 235.7 417.38 238.7 422.57 243.96C433.63 255.16 442.99 264.64 447.6 278.68C453.8 297.6 448.41 315.75 444.02 326.17C444.02 326.17 438.79 338.85 429.15 345.79" stroke="black" stroke-width="6" stroke-miterlimit="10"/>
<path d="M371 571.81L393.62 550.31L419 526.19C419 526.19 395.85 514.62 390.4 484.66L389.31 478.5L387.35 467.5L386.47 462.6" stroke="black" stroke-width="6" stroke-miterlimit="2" stroke-linecap="square"/>
<path d="M493.84 448.22C501.74 437.58 503.45 424.04 497.92 413.51C492.03 402.29 480.28 398.98 477.49 398.19C465.35 394.77 445.42 404.63 442.61 405.92" stroke="black" stroke-width="6" stroke-miterlimit="2"/>
<path d="M439.09 365.29C439.09 365.29 489.64 315.19 529.31 339.06C535.15 342.57 540.75 347.68 545.92 354.79C565.79 382.11 548.97 407.19 529.31 424.47C512.84 438.96 494.36 447.97 493.84 448.22C493.83 448.23 493.83 448.23 493.83 448.23" stroke="black" stroke-width="6" stroke-miterlimit="2"/>
<path d="M426.28 439.18C427.82 439.32 430.04 439.66 432.56 440.57C435.83 441.76 439.6 443.13 441.49 446.7C443.8 451.05 441.9 455.75 441.62 456.4C439.7 460.95 435.2 462.65 431.92 463.94C426.52 466.06 421.83 466 419.79 465.98C418.42 465.97 416.86 466 415.16 466.05C407.67 466.32 397.34 467.15 387.69 467.44" stroke="black" stroke-width="6" stroke-miterlimit="2"/>
<path d="M415.16 466.06C416.37 468.96 417.84 471.42 419.39 473.51C434.53 493.87 467.34 490.94 472.9 490.36C472.9 490.36 429.9 555.95 389.31 478.5" stroke="black" stroke-width="6" stroke-miterlimit="2"/>
<path d="M371 571.87L370.97 571.84L348.31 550.31L323 526.25C323 526.25 346.15 514.68 351.6 484.72L352.69 478.56L354.65 467.56L355.53 462.66" stroke="black" stroke-width="6" stroke-miterlimit="2" stroke-linecap="square"/>
<path d="M248.17 448.29C248.17 448.29 248.17 448.28 248.16 448.28C240.26 437.64 238.55 424.1 244.08 413.57C249.97 402.35 261.72 399.04 264.51 398.25C276.65 394.83 296.58 404.69 299.39 405.98" stroke="black" stroke-width="6" stroke-miterlimit="2"/>
<path d="M302.91 365.35C302.91 365.35 302.9 365.34 302.88 365.32C301.46 363.93 250.94 314.76 211.69 339.74C206.21 343.22 200.95 348.15 196.08 354.85C176.55 381.7 192.47 406.4 211.69 423.65C228.41 438.66 247.63 448.03 248.16 448.28" stroke="black" stroke-width="6" stroke-miterlimit="2"/>
<path d="M315.72 439.24C314.18 439.38 311.96 439.72 309.44 440.63C306.17 441.82 302.4 443.19 300.51 446.76C298.2 451.11 300.1 455.81 300.38 456.46C302.3 461.01 306.8 462.71 310.08 464C315.48 466.12 320.17 466.06 322.21 466.04C323.58 466.03 325.14 466.06 326.84 466.11C334.33 466.38 344.66 467.21 354.31 467.5" stroke="black" stroke-width="6" stroke-miterlimit="2"/>
<path d="M326.84 466.12C325.63 469.02 324.16 471.48 322.61 473.57C307.47 493.93 274.66 491 269.1 490.42C269.1 490.42 312.1 556.01 352.69 478.56" stroke="black" stroke-width="6" stroke-miterlimit="2"/>
<path d="M529.31 424.48V550.31H589.56V232.69H529.31V339.06" stroke="black" stroke-width="4" stroke-miterlimit="10"/>
<path d="M348.31 550.31H211.69V610.56H529.31V550.31H393.62" stroke="black" stroke-width="4" stroke-miterlimit="10"/>
<path d="M409.87 232.69H529.31V172.44H211.69V232.69H332.13" stroke="black" stroke-width="4" stroke-miterlimit="10"/>
<path d="M211.69 339.74V232.69H151.44V550.31H211.69V423.65" stroke="black" stroke-width="4" stroke-miterlimit="10"/>
<path d="M376.5 349.9H409.4V338.9H331.45V349.9H365.5V442.79H376.5V349.9Z" stroke="black" stroke-miterlimit="10"/>
<path d="M356.21 411.7C356.65 392.76 346.56 389.58 340.51 389.36C339.16 389.31 337.72 389.44 336.21 389.58C333.34 389.83 329.45 390.18 327.99 388.79C327.22 386.99 327.66 379.9 330.82 375.25C332.66 372.54 334.09 372.68 334.56 372.73C348.54 374.12 350.44 382.11 350.51 382.45L361.36 380.61C361.24 379.93 358.28 364.03 335.65 361.78C329.39 361.15 323.73 364.77 320.17 371.69C316.29 379.24 314.98 390.65 319.61 395.93C324.65 401.65 332.19 400.98 337.18 400.53C338.35 400.43 339.44 400.34 340.12 400.36C341.85 400.42 345.47 400.54 345.21 411.45C345.08 417.31 339.07 420.07 336.8 420.13C332.36 420.25 330.69 420.29 325.01 403.89L314.61 407.49C320.61 424.78 324.86 431.14 336.24 431.14C336.52 431.14 336.81 431.13 337.1 431.12C344.73 430.92 355.93 423.89 356.21 411.7Z" stroke="black" stroke-miterlimit="10"/>
<path d="M414.87 429.14L416.53 428.75L417.68 427.5C419.57 425.43 421.21 420.82 418.25 410.58L407.68 413.63C408.41 416.16 408.71 417.95 408.82 419.16C402.95 420.22 397.12 420.61 394.97 420.02C394.52 418.14 395.46 412.64 396.17 408.55C397.25 402.28 398.6 394.48 398.68 385.46C398.73 379.47 396.61 363.5 396.37 361.69L385.46 363.16C386.09 367.84 387.71 380.95 387.68 385.37C387.61 393.49 386.35 400.8 385.33 406.68C383.71 416.05 382.55 422.82 386.81 427.6C389.25 430.34 393.7 431.32 398.8 431.32C403.97 431.32 409.8 430.32 414.87 429.14Z" stroke="black" stroke-miterlimit="10"/>
</svg>
