<?xml version="1.0" encoding="utf-8"?>
<!-- Generator: Adobe Illustrator 23.1.0, SVG Export Plug-In . SVG Version: 6.00 Build 0)  -->
<svg version="1.1" id="Capa_2" xmlns="http://www.w3.org/2000/svg" xmlns:xlink="http://www.w3.org/1999/xlink" x="0px" y="0px"
	 viewBox="0 0 1080 1080" style="enable-background:new 0 0 1080 1080;" xml:space="preserve">
<style type="text/css">
	.st0{fill:#FFFFFF;stroke:#000000;stroke-width:22;stroke-miterlimit:10;}
	.st1{fill:#C1272D;stroke:#000000;stroke-width:4;stroke-miterlimit:10;}
	.st2{fill:#0071BC;}
	.st3{fill:#C1272D;}
	.st4{fill:none;stroke:#000000;stroke-width:6;stroke-miterlimit:10;}
	.st5{fill:none;stroke:#000000;stroke-width:6;stroke-linecap:square;stroke-miterlimit:2;}
	.st6{fill:none;stroke:#000000;stroke-width:6;stroke-miterlimit:2;}
	.st7{fill:none;stroke:#000000;stroke-width:11;stroke-miterlimit:10;}
	.st8{fill:#C1272D;stroke:#000000;stroke-width:11;stroke-miterlimit:10;}
	.st9{fill:#FFFFFF;}
	.st10{fill:none;stroke:#000000;stroke-miterlimit:10;}
	.st11{fill:none;stroke:#000000;stroke-width:12;stroke-miterlimit:10;}
	.st12{fill:none;stroke:#000000;stroke-width:4;stroke-miterlimit:10;}
</style>
<g id="XMLID_2_">
	<g>
		<path class="st9" d="M552.79,238.42c0.46,4.23,0.59,6.8,0.46,7.71c-0.04,0.25-0.09,0.44-0.15,0.57c-0.21,0.42-1.02,0.53-2.43,0.35
			c-1.52-0.2-2.62-0.38-3.27-0.49c-1.25-0.23-1.89-0.56-1.83-1.05c0.08-0.75,0.95-3.22,2.65-7.38c1.6-3.91,2.73-6.45,3.36-7.6
			C551.92,231.69,552.34,234.32,552.79,238.42z"/>
		<path d="M786.17,358.42c0.22,0.36,0.11,0.81-0.33,1.38c-1.34,1.67-3.58,5.02-6.84,9.92c-0.1,0.16-0.2,0.26-0.29,0.32
			c-0.41,0.24-0.73,0.16-0.98-0.25c-0.11-0.19-0.26-0.52-0.45-0.99c-0.19-0.48-0.35-0.83-0.49-1.06c-1-1.63-2.29-2.8-3.8-3.52
			c-1.8-0.86-3.51-0.8-5.09,0.22c-1.43,0.92-2.67,2.83-3.79,5.7c-2.04,5.11-3.19,7.72-3.31,7.97c-1.69,3.1-3.86,5.4-6.47,6.94
			c-4.84,2.89-10.04,3.56-15.52,2.39c-4.81-1.02-8.91-3.18-12.38-6.52c-0.12-0.13-0.22-0.24-0.28-0.33
			c-0.28-0.41,0.69-2.44,2.85-6.14c2.16-3.71,3.54-5.86,4.24-6.36c0.24-0.18,0.5-0.16,0.77,0.07c2.68,2.16,4.59,3.56,5.73,4.1
			c2.56,1.18,5.02,1.03,7.37-0.55c1.5-1.01,2.72-2.81,3.63-5.43c1.5-4.52,2.29-7.04,2.48-7.48c1.38-3.07,3.46-5.65,6.3-7.7
			c4.12-2.97,8.84-3.66,14.16-1.85c4.35,1.48,8.44,4.34,12.08,8.6C785.95,358.09,786.08,358.28,786.17,358.42z"/>
		<path class="st9" d="M710.59,354.92c-0.51,0.46-0.63,0.97-0.35,1.55c0.39,0.79,1.62,2.37,3.62,4.8c1.5,1.81,2.76,3.22,3.81,4.19
			c0.39,0.35,0.6,0.54,0.65,0.56c0.23,0.07,0.57-0.07,1-0.42c2.57-2.03,6.4-5.14,11.48-9.33c5.08-4.2,8.9-7.32,11.47-9.36
			c2.33-1.85,5.91-4.51,10.75-7.97c4.85-3.45,8.45-6.09,10.78-7.93c0.48-0.38,0.49-0.87,0.01-1.48c-0.51-0.65-1.3-1.58-2.37-2.77
			c-1.07-1.2-1.86-2.11-2.38-2.74c-0.52-0.63-1.28-1.61-2.28-2.92c-0.99-1.32-1.76-2.28-2.3-2.89c-0.39-0.46-0.82-0.49-1.28-0.08
			c-2.24,1.96-5.53,4.97-9.89,9.02c-4.36,4.05-7.67,7.04-9.91,9c-2.65,2.32-8.37,7.03-17.09,14.14
			C712.72,353.22,710.81,354.76,710.59,354.92z M513.75,173.5c201.58,0,365,163.42,365,365s-163.42,365-365,365s-365-163.42-365-365
			S312.17,173.5,513.75,173.5z M785.84,359.8c0.44-0.57,0.55-1.02,0.33-1.38c-0.09-0.14-0.22-0.33-0.41-0.57
			c-3.64-4.26-7.73-7.12-12.08-8.6c-5.32-1.81-10.04-1.12-14.16,1.85c-2.84,2.05-4.92,4.63-6.3,7.7c-0.19,0.44-0.98,2.96-2.48,7.48
			c-0.91,2.62-2.13,4.42-3.63,5.43c-2.35,1.58-4.81,1.73-7.37,0.55c-1.14-0.54-3.05-1.94-5.73-4.1c-0.27-0.23-0.53-0.25-0.77-0.07
			c-0.7,0.5-2.08,2.65-4.24,6.36c-2.16,3.7-3.13,5.73-2.85,6.14c0.06,0.09,0.16,0.2,0.28,0.33c3.47,3.34,7.57,5.5,12.38,6.52
			c5.48,1.17,10.68,0.5,15.52-2.39c2.61-1.54,4.78-3.84,6.47-6.94c0.12-0.25,1.27-2.86,3.31-7.97c1.12-2.87,2.36-4.78,3.79-5.7
			c1.58-1.02,3.29-1.08,5.09-0.22c1.51,0.72,2.8,1.89,3.8,3.52c0.14,0.23,0.3,0.58,0.49,1.06c0.19,0.47,0.34,0.8,0.45,0.99
			c0.25,0.41,0.57,0.49,0.98,0.25c0.09-0.06,0.19-0.16,0.29-0.32C782.26,364.82,784.5,361.47,785.84,359.8z M743.88,307.97
			c0.48-0.46,0.46-0.97-0.06-1.51c-1.05-1.11-2.71-2.73-4.98-4.81c-2.26-2.08-3.96-3.62-5.05-4.67c-0.46-0.45-0.99-0.36-1.59,0.27
			c-2.77,2.93-6.86,7.38-12.29,13.35c-5.43,5.96-9.53,10.4-12.31,13.33c-3.81,4.01-7.33,4.43-10.65,1.4
			c-2.27-2.06-3.08-4.17-2.46-6.38c0.45-1.62,2.09-4.11,4.93-7.42c2.39-2.79,6.05-6.9,10.98-12.32c4.93-5.43,8.6-9.52,11-12.3
			c0.4-0.46,0.36-0.91-0.12-1.32c-1.18-1.01-2.92-2.59-5.25-4.69c-2.33-2.1-4.12-3.61-5.33-4.56c-0.42-0.33-0.83-0.23-1.24,0.3
			c-1.97,2.52-4.82,6.41-8.59,11.66c-3.76,5.25-6.65,9.14-8.64,11.68c-0.68,0.87-1.75,2.18-3.19,3.91
			c-1.44,1.73-2.51,3.05-3.22,3.95c-3.03,3.87-4.91,6.75-5.67,8.59c-1.54,3.77-1.36,7.31,0.53,10.7c1.19,2.12,3.36,4.53,6.48,7.35
			c6.91,6.23,12.64,8.82,17.71,7.27c2.77-0.85,6.73-3.71,11.84-8.62c0.64-0.61,1.6-1.55,2.88-2.81c1.28-1.26,2.24-2.2,2.88-2.81
			c2.32-2.24,5.89-5.51,10.71-9.8C737.99,313.42,741.57,310.18,743.88,307.97z M732.31,717.81V400.19h-60.25v-60.25H354.44v60.25
			h-60.25v317.62h60.25v60.25h317.62v-60.25H732.31z M683.27,258.04c0.3-0.44,0.29-0.75-0.02-0.95c-0.7-0.44-1.76-1.04-3.2-1.8
			c-1.43-0.76-2.5-1.34-3.2-1.76c-0.62-0.37-1.55-0.96-2.78-1.77c-1.24-0.82-2.19-1.4-2.83-1.77c-0.65-0.36-1.13-0.28-1.43,0.25
			c-1.58,2.82-3.87,7.07-6.89,12.76c-3.02,5.69-5.33,9.94-6.91,12.75c-1.5,2.64-3.76,6.57-6.8,11.8c-3.04,5.23-5.3,9.17-6.79,11.81
			c-0.36,0.63-0.31,1.21,0.13,1.56c1.24,0.99,2.52,1.67,3.32,2.11c3.11,1.9,4.65,2.88,7.69,4.89c0.75,0.51,2.66,1.78,5.62,3.93
			c2.27,1.65,4.12,3.03,5.55,4.05c0.6,0.43,0.96,0.66,1.07,0.67c0.35,0.08,0.78-0.14,1.28-0.67c2.44-2.49,5.08-5.65,7.88-9.49
			c0.37-0.52,0.32-0.95-0.15-1.3c-1.58-1.14-4.02-2.73-7.37-4.68c-3.35-1.94-5.85-3.38-7.48-4.41c-0.46-0.29-0.69-0.43-0.71-0.44
			c-0.21-0.23-0.24-0.5-0.08-0.79c0.16-0.29,0.32-0.6,0.48-0.88c0.79-1.39,2.22-3.62,4.1-6.64c2.35-3.73,3.52-5.6,5.86-9.33
			c5.85-8.71,10.3-15.19,13.34-19.46C683.08,258.3,683.14,258.21,683.27,258.04z M635.28,233.89c0.33-0.8,0.28-1.29-0.15-1.46
			c-1.36-0.56-3.45-1.32-6.27-2.26c-2.82-0.93-4.92-1.62-6.3-2.12c-0.48-0.17-0.9,0.23-1.25,1.2c-1,2.77-2.36,6.96-4.11,12.56
			c-1.75,5.61-3.13,9.78-4.13,12.52c-0.74,2.04-1.25,3.01-1.52,2.91c-0.37-0.13-0.67-0.69-0.91-1.69c-0.87-4.23-1.58-7.43-2.05-9.61
			c-2.11-9.69-3.36-14.54-6.22-24.22c-0.32-1.08-0.63-1.66-0.91-1.74c-0.68-0.19-1.65-0.33-2.89-0.41
			c-1.47-0.09-2.46-0.15-2.94-0.22c-2.06-0.31-3.78-0.63-5.15-0.96c-0.92-0.23-1.46-0.04-1.6,0.55c-0.75,3.08-1.77,7.74-3.07,13.97
			c-1.31,6.23-2.35,10.9-3.12,14c-0.72,2.94-1.92,7.32-3.58,13.15c-1.66,5.84-2.84,10.21-3.55,13.13c-0.2,0.83-0.02,1.32,0.54,1.46
			c4.02,0.98,6.02,1.51,10,2.64c0.52,0.15,0.91-0.24,1.19-1.17c0.9-3.1,2.2-7.75,3.88-13.98c1.68-6.23,2.96-10.89,3.87-13.99
			c0.11-0.4,0.28-0.67,0.51-0.8c0.19,0.23,0.31,0.43,0.34,0.62c1.6,5.7,2.62,10.01,3.24,12.92c2.33,10.44,3.33,17.17,3.78,20.19
			c0.16,1.03,0.41,1.61,0.75,1.73c0.49,0.18,1.2,0.5,2.14,0.97c0.93,0.47,1.64,0.8,2.13,0.99c0.45,0.17,1.13,0.41,2.06,0.71
			c0.92,0.3,1.61,0.55,2.06,0.73c0.54,0.22,0.95-0.02,1.23-0.71c4.19-10.17,6.28-15.25,10.47-25.42c1.21-2.96,3.13-7.33,5.76-13.12
			C632.14,241.17,634.07,236.82,635.28,233.89z M567.67,271.67c0.15-0.73,0.02-10.13-2.14-27.84c-1.26-10.39-2.68-20.88-4.85-31.19
			c-0.25-0.97-0.61-1.48-1.07-1.55c-0.62-0.09-1.58-0.17-2.86-0.25c-1.28-0.07-2.24-0.15-2.9-0.23c-0.67-0.08-1.69-0.28-3.04-0.57
			c-1.35-0.3-2.35-0.48-3.01-0.55c-0.38-0.04-0.77,0.47-1.18,1.47c-3.94,9.68-8.18,19.55-11.89,29.44
			c-6.23,16.58-8.69,25.42-8.72,26.14c-0.04,0.81,1.45,1.27,4.48,1.47c3.84,0.25,6.11,0.36,6.79,0.19c0.55-0.13,1.12-1.35,1.73-3.6
			c0.66-2.48,1.2-3.92,1.59-4.33c0.25-0.22,2.11-0.18,5.58,0.24c5.13,0.62,7.85,1.16,8.12,1.4c0.34,0.3,0.56,2.53,0.6,6.58
			c0.01,1.07,0.33,1.76,0.97,2.06c0.76,0.35,2.55,0.75,5.34,1.26c3.05,0.56,4.89,0.83,5.51,0.73
			C567.24,272.46,567.56,272.16,567.67,271.67z M565.43,848.09c0.08-1.27,0.12-2.23,0.12-2.86c0-1.03-0.24-1.54-0.74-1.54
			c-2.44,0-5.81,0.18-10.11,0.54c6.06-8.91,9.09-16.7,9.09-23.37c0-5.01-1.26-8.86-3.76-11.58c-2.13-2.32-4.77-3.48-7.92-3.48
			c-1.94,0-3.95,0.41-6,1.24c-2.31,0.94-4.15,2.23-5.53,3.86c-0.29,0.33-0.43,0.68-0.43,1.04c0,0.47,0.1,1.19,0.3,2.16
			c0.22,1.13,0.34,1.88,0.38,2.24c0.08,0.77,0.12,2.02,0.12,3.73c0,2.22,0.28,3.32,0.85,3.32c0.08,0,0.53-0.42,1.34-1.28
			c0.97-1.05,1.89-1.86,2.77-2.41c1.31-0.88,2.63-1.33,3.96-1.33c1.17,0,2.19,0.67,3.05,2.01c0.85,1.35,1.28,3,1.28,4.96
			c0,2.27-1.12,5.68-3.36,10.21c-1.76,3.6-3.48,6.58-5.16,8.93c-0.46,0.64-1.51,1.13-3.14,1.49c-1.39,0.31-2.09,0.76-2.09,1.37
			c0,0.42,0.21,2.04,0.63,4.86c0.2,1.85,0.32,3.25,0.37,4.19c0.05,0.69,0.29,1.04,0.72,1.04c1.25,0,3.15-0.12,5.7-0.36
			c2.56-0.23,4.48-0.35,5.76-0.35c4.13,0,6.95,0.28,8.46,0.83c1.36,0.53,2.15,0.79,2.34,0.79c0.55,0,0.83-0.35,0.83-1.04
			s0-1.75,0.02-3.17c0.02-1.43,0.03-2.47,0.03-3.14C565.31,850.33,565.35,849.36,565.43,848.09z M534.31,839.71
			c0-5.1-1.11-9.11-3.32-12.04c-2.04-2.74-4.6-4.11-7.69-4.11c-0.47,0-1.12,0.07-1.97,0.21c-0.9,0.14-1.55,0.21-1.97,0.21
			c-0.08-0.2-0.12-0.48-0.12-0.83c0-2.3,0.14-3.86,0.42-4.69c0.14-0.34,1.11-0.5,2.94-0.5c0.93,0,3.27,0.27,7.02,0.83l0.28,0.04
			c0.35,0,0.64-1.76,0.89-5.27c0.2-2.74,0.3-4.9,0.3-6.48c0-0.61-0.22-0.92-0.67-0.95c-1.66-0.06-4.91-0.08-9.74-0.08
			c-4.25,0-6.55,0.05-6.92,0.16c-0.3,0.11-0.57,0.45-0.81,1.02s-0.36,1.11-0.36,1.64c0,2.65-0.07,6.71-0.21,12.16
			c-0.14,5.45-0.21,9.5-0.21,12.16c0,0.89,0.29,1.33,0.87,1.33c0.61,0,1.53-0.13,2.75-0.38c1.22-0.25,2.14-0.37,2.75-0.37
			c1.46,0,2.72,0.44,3.76,1.33c1.35,1.11,2.02,2.75,2.02,4.94c0,3.98-1.83,5.97-5.5,5.97c-2.54,0-4.81-0.83-6.8-2.49
			c-0.2-0.16-0.34-0.25-0.43-0.25c-0.28,0-0.53,1.25-0.74,3.74c-0.17,1.94-0.25,3.49-0.25,4.65c0,2.1,0.03,3.33,0.1,3.69
			c0.15,0.86,1.67,1.59,4.55,2.2c2.23,0.47,4.01,0.71,5.33,0.71C529.73,858.26,534.31,852.07,534.31,839.71z M519.25,219.38
			c0.01-0.11-0.03-0.25-0.09-0.41c-2.13-5.35-3.59-9.02-4.21-11.05c-0.22-0.67-0.51-1.01-0.87-1.01c-0.15,0-0.36,0.02-0.63,0.04
			c-4.9,0.83-9,2.76-12.2,5.64c-3.9,3.51-5.64,7.86-5.35,12.93c0.2,3.5,1.17,6.64,2.85,9.45c0.25,0.4,1.79,2.42,4.5,6.11
			c1.56,2.17,2.34,4.17,2.39,5.97c0.08,2.83-0.97,4.99-3.08,6.52c-0.96,0.68-2.93,1.53-5.87,2.62c-0.31,0.1-0.45,0.31-0.43,0.61
			c0.05,0.86,1.03,3.19,2.83,7c1.79,3.81,2.87,5.72,3.32,5.7c0.1,0,0.22-0.02,0.38-0.05c4.19-1.14,7.75-3.46,10.78-7
			c3.45-4.02,5.36-8.8,5.48-14.44c0.06-3.03-0.63-6.09-2.15-9.16c-0.13-0.23-1.54-2.59-4.41-7.02c-1.63-2.47-2.48-4.54-2.5-6.24
			c-0.02-1.88,0.74-3.36,2.23-4.43c1.25-0.9,2.74-1.37,4.42-1.36c0.24,0.01,0.58,0.05,1.02,0.14s0.76,0.14,0.95,0.14
			C519.03,220.09,519.24,219.86,519.25,219.38z M504.23,828.83c0-6.94-1.16-12.55-3.47-16.81c-2.4-4.42-5.67-6.64-9.81-6.64
			c-3.83,0-6.9,1.55-9.19,4.65c-2.5,3.35-3.76,8.15-3.76,14.4c0,4.82,0.95,8.68,2.84,11.58c1.85,2.88,4.22,4.32,7.12,4.32
			c1.76,0,3.34-0.54,4.74-1.62c0.3-0.22,0.49-0.33,0.57-0.33c0.1,0,0.15,0.08,0.15,0.25c0,0.27-0.11,0.72-0.33,1.32
			c-1.57,4.54-5.02,6.81-10.33,6.81c-0.78,0-1.17,0.44-1.17,1.33c0,1.44,0.59,4.56,1.77,9.38c0.18,0.75,0.44,1.12,0.77,1.12
			c5.56,0,10.23-2.6,14.02-7.8C502.2,845.23,504.23,837.91,504.23,828.83z M469.64,270.71c0.45-0.27,0.64-0.65,0.56-1.15
			c-0.12-0.74-3.67-9.45-12.15-25.18c-4.97-9.24-10.13-18.51-15.93-27.34c-0.59-0.81-1.11-1.16-1.56-1.06
			c-0.62,0.14-1.54,0.41-2.77,0.8c-1.22,0.39-2.15,0.67-2.79,0.83c-0.67,0.16-1.68,0.35-3.05,0.56c-1.38,0.21-2.38,0.4-3.02,0.57
			c-0.38,0.1-0.56,0.72-0.57,1.8c-0.15,10.44-0.51,21.17-0.38,31.73c0.23,17.7,1.16,26.84,1.39,27.52c0.25,0.76,1.83,0.65,4.74-0.26
			c3.69-1.16,5.86-1.88,6.44-2.28c0.46-0.32,0.56-1.66,0.3-3.98c-0.28-2.55-0.31-4.08-0.09-4.61c0.15-0.3,1.91-0.93,5.31-1.78
			c5.02-1.27,7.76-1.75,8.1-1.62c0.43,0.16,1.45,2.15,2.97,5.92c0.4,0.99,0.95,1.52,1.65,1.57c0.84,0.05,2.66-0.22,5.45-0.74
			C467.28,271.43,469.09,271.03,469.64,270.71z M469.96,808.33c0.04-0.42,0.05-0.71,0.05-0.87c0-0.5-0.11-0.81-0.35-0.92
			c-1.27-0.36-2.25-0.6-2.91-0.74c-1.24-0.47-2.18-0.82-2.81-1.04c-0.17-0.06-0.27-0.08-0.3-0.08c-0.2,0-0.44,0.29-0.72,0.87
			c-1.4,2.85-3.32,5.12-5.76,6.8c-0.41,0.28-0.62,0.7-0.62,1.25c0,0.97,0.01,2.39,0.03,4.27c0.01,1.89,0.02,3.3,0.02,4.24
			c0,1.02,0.26,1.53,0.77,1.53c0.35,0,0.86-0.16,1.53-0.49c0.68-0.34,1.18-0.5,1.51-0.5c0.22,0,0.32,0.39,0.32,1.16v12.33
			c0,2.24-0.11,8.64-0.34,19.21l-0.03,0.46c-0.02,0.88,0.28,1.33,0.9,1.33c0.79,0,1.99-0.02,3.58-0.05c1.6-0.02,2.79-0.04,3.59-0.04
			c0.33,0,0.64-0.22,0.92-0.66s0.42-0.93,0.42-1.45c0-3.18-0.01-7.97-0.03-14.36c-0.03-6.4-0.04-11.18-0.04-14.36
			C469.69,816.73,469.78,810.76,469.96,808.33z M412.84,265.53c1.08-4.85,0.55-10.46-1.76-16.78c-2.25-6.16-5.69-10.6-10.46-13.11
			c-4.66-2.45-9.84-2.64-15.26-0.51c-3.29,1.3-6.69,2.78-10.19,4.44c-5.93,2.81-9.63,4.92-11.2,6.06c-0.65,0.46-0.83,0.92-0.54,1.36
			c0.13,0.2,0.19,0.3,0.31,0.5c5.11,8.19,9.66,16.16,13.74,23.89c1.44,2.73,3.57,6.85,6.4,12.35c2.82,5.51,4.96,9.62,6.41,12.35
			c0.37,0.72,0.82,0.93,1.34,0.66c1.09-0.57,2.76-1.37,5.01-2.38c2.24-1,3.93-1.75,5.04-2.27c0.38-0.18,0.44-0.55,0.17-1.13
			c-0.53-1.14-1.42-2.81-2.66-5.02c-1.25-2.21-2.15-3.89-2.69-5.05c-0.44-0.93-0.25-1.59,0.58-1.97c0.76-0.36,1.95-0.84,3.56-1.41
			c1.6-0.58,2.8-1.03,3.57-1.36C408.85,274.17,411.69,270.69,412.84,265.53z M373.04,298.77c0.5-7.17-1.22-14.56-5.57-22.07
			c-4.31-7.43-9.97-12.62-17.23-15.14c-7.39-2.57-14.52-1.62-20.87,2.81c-6.39,4.45-9.8,10.87-10.02,18.73
			c-0.21,7.7,2.65,14.83,8.17,21.48c5.51,6.64,11.87,10.73,18.84,12.7c7.12,2,13.05,1.26,18.22-2.34
			C369.78,311.32,372.52,306.05,373.04,298.77z M339.97,332.4c0.26-0.34,0.32-0.58,0.19-0.73c-0.48-0.54-3.95-2.64-10.63-6.03
			c-6.64-3.37-10.07-4.93-10.09-4.93c-0.26-0.28-0.36-0.77-0.28-1.45c0.34-3.44,0.1-6.39-0.78-8.85s-2.65-5.22-5.34-8.26
			c-4.04-4.56-8.63-6.74-13.84-6.31c-4.6,0.38-9.09,2.65-13.23,6.86c-2,2.03-4.63,4.82-7.8,8.46c-4.69,5.37-7.14,8.58-7.57,9.34
			c-0.42,0.76-0.45,1.29-0.07,1.57c0.19,0.14,0.28,0.21,0.47,0.35c5.34,3.89,12.46,9.67,21.4,17.3c2.34,2.01,5.78,5.11,10.32,9.3
			c4.54,4.18,7.98,7.26,10.31,9.24c0.53,0.45,1.06,0.49,1.59,0.12s1.79-1.73,3.81-4.02c1.78-2,3.06-3.48,3.83-4.48
			c0.19-0.24,0.43-0.49,0.55-0.71c0.09-0.16-0.06-0.46-0.41-0.79c-1.37-1.29-3.52-3.13-6.44-5.5c-2.92-2.37-5.07-4.2-6.45-5.49
			c-1.04-0.97-1.44-1.58-1.2-1.83c1.66-1.79,2.51-2.7,2.51-2.75c1.06-0.9,2.1-1.11,3.1-0.67c5.18,2.46,9.02,4.44,11.55,5.83
			c1.95,1.07,3.41,1.91,4.39,2.46c0.45,0.22,0.75,0.31,0.9,0.29c0.09-0.01,0.32-0.14,0.71-0.41c0.83-0.57,2.23-1.81,4.24-3.69
			C338.05,334.44,339.49,333.05,339.97,332.4z M301.6,375.06c0.25-0.5,0.37-0.79,0.37-0.87c0-0.25-0.21-0.52-0.64-0.84
			c-2.64-1.93-6.68-4.76-12.13-8.46c-5.45-3.71-9.5-6.51-12.15-8.44c-2.25-1.64-6.17-4.58-11.76-8.85c4.32-5.25,6.86-8.11,7.46-8.88
			c0.34-0.44,0.3-0.83-0.14-1.18c-0.52-0.41-1.36-0.97-2.52-1.68c-1.16-0.7-2.01-1.27-2.56-1.7c-0.48-0.38-1.28-1.04-2.4-2
			c-1.02-0.86-1.82-1.57-2.4-2c-0.37-0.27-0.64-0.4-0.74-0.38c-0.1,0.02-0.32,0.24-0.65,0.66c-0.02,0.02-0.99,1.48-2.86,4.42
			c-3.47,5.48-5.8,9.32-7.19,11.32c-4.86,7.04-8.57,12.45-11.39,15.97c-0.2,0.27-0.31,0.42-0.34,0.47c-0.24,0.4,0.48,1.24,2.17,2.46
			c1.05,0.77,2.19,1.52,3.21,2.27c0.32,0.24,1.21,1.09,2.66,2.44c1.33,1.23,2.16,1.94,2.47,2.12c0.24,0.14,0.47,0.03,0.69-0.33
			c1.61-2.7,3.56-6.43,5.95-11.11c6.39,3.93,10.48,6.5,12.29,7.69c2.74,1.8,6.78,4.6,12.14,8.39c5.36,3.79,9.41,6.57,12.16,8.36
			c0.6,0.39,1.15,0.37,1.59-0.08c0.82-0.82,2.02-2.47,3.63-4.82C299.97,377.9,301.01,376.26,301.6,375.06z"/>
		<path d="M763.81,329.53c0.48,0.61,0.47,1.1-0.01,1.48c-2.33,1.84-5.93,4.48-10.78,7.93c-4.84,3.46-8.42,6.12-10.75,7.97
			c-2.57,2.04-6.39,5.16-11.47,9.36c-5.08,4.19-8.91,7.3-11.48,9.33c-0.43,0.35-0.77,0.49-1,0.42c-0.05-0.02-0.26-0.21-0.65-0.56
			c-1.05-0.97-2.31-2.38-3.81-4.19c-2-2.43-3.23-4.01-3.62-4.8c-0.28-0.58-0.16-1.09,0.35-1.55c0.22-0.16,2.13-1.7,5.72-4.63
			c8.72-7.11,14.44-11.82,17.09-14.14c2.24-1.96,5.55-4.95,9.91-9c4.36-4.05,7.65-7.06,9.89-9.02c0.46-0.41,0.89-0.38,1.28,0.08
			c0.54,0.61,1.31,1.57,2.3,2.89c1,1.31,1.76,2.29,2.28,2.92c0.52,0.63,1.31,1.54,2.38,2.74
			C762.51,327.95,763.3,328.88,763.81,329.53z"/>
		<path d="M743.82,306.46c0.52,0.54,0.54,1.05,0.06,1.51c-2.31,2.21-5.89,5.45-10.7,9.74c-4.82,4.29-8.39,7.56-10.71,9.8
			c-0.64,0.61-1.6,1.55-2.88,2.81c-1.28,1.26-2.24,2.2-2.88,2.81c-5.11,4.91-9.07,7.77-11.84,8.62c-5.07,1.55-10.8-1.04-17.71-7.27
			c-3.12-2.82-5.29-5.23-6.48-7.35c-1.89-3.39-2.07-6.93-0.53-10.7c0.76-1.84,2.64-4.72,5.67-8.59c0.71-0.9,1.78-2.22,3.22-3.95
			c1.44-1.73,2.51-3.04,3.19-3.91c1.99-2.54,4.88-6.43,8.64-11.68c3.77-5.25,6.62-9.14,8.59-11.66c0.41-0.53,0.82-0.63,1.24-0.3
			c1.21,0.95,3,2.46,5.33,4.56c2.33,2.1,4.07,3.68,5.25,4.69c0.48,0.41,0.52,0.86,0.12,1.32c-2.4,2.78-6.07,6.87-11,12.3
			c-4.93,5.42-8.59,9.53-10.98,12.32c-2.84,3.31-4.48,5.8-4.93,7.42c-0.62,2.21,0.19,4.32,2.46,6.38c3.32,3.03,6.84,2.61,10.65-1.4
			c2.78-2.93,6.88-7.37,12.31-13.33c5.43-5.97,9.52-10.42,12.29-13.35c0.6-0.63,1.13-0.72,1.59-0.27c1.09,1.05,2.79,2.59,5.05,4.67
			C741.11,303.73,742.77,305.35,743.82,306.46z"/>
		<path class="st3" d="M732.31,400.19v317.62h-60.25V591.98v-0.01c19.66-17.28,36.48-42.36,16.61-69.68
			c-5.17-7.11-10.77-12.22-16.61-15.73V400.19H732.31z"/>
		<path class="st2" d="M688.67,522.29c19.87,27.32,3.05,52.4-16.61,69.68c-16.47,14.49-34.95,23.5-35.47,23.75
			c7.9-10.64,9.61-24.18,4.08-34.71c-5.89-11.22-17.64-14.53-20.43-15.32c-12.14-3.42-32.07,6.44-34.88,7.73l-1.01-0.19
			c0.92-4.6,1.4-9.36,1.4-14.23c0-9.12-1.68-17.84-4.76-25.88l0.85-0.33c0,0,50.55-50.1,90.22-26.23
			C677.9,510.07,683.5,515.18,688.67,522.29z"/>
		<path d="M683.25,257.09c0.31,0.2,0.32,0.51,0.02,0.95c-0.13,0.17-0.19,0.26-0.32,0.44c-3.04,4.27-7.49,10.75-13.34,19.46
			c-2.34,3.73-3.51,5.6-5.86,9.33c-1.88,3.02-3.31,5.25-4.1,6.64c-0.16,0.28-0.32,0.59-0.48,0.88c-0.16,0.29-0.13,0.56,0.08,0.79
			c0.02,0.01,0.25,0.15,0.71,0.44c1.63,1.03,4.13,2.47,7.48,4.41c3.35,1.95,5.79,3.54,7.37,4.68c0.47,0.35,0.52,0.78,0.15,1.3
			c-2.8,3.84-5.44,7-7.88,9.49c-0.5,0.53-0.93,0.75-1.28,0.67c-0.11-0.01-0.47-0.24-1.07-0.67c-1.43-1.02-3.28-2.4-5.55-4.05
			c-2.96-2.15-4.87-3.42-5.62-3.93c-3.04-2.01-4.58-2.99-7.69-4.89c-0.8-0.44-2.08-1.12-3.32-2.11c-0.44-0.35-0.49-0.93-0.13-1.56
			c1.49-2.64,3.75-6.58,6.79-11.81c3.04-5.23,5.3-9.16,6.8-11.8c1.58-2.81,3.89-7.06,6.91-12.75c3.02-5.69,5.31-9.94,6.89-12.76
			c0.3-0.53,0.78-0.61,1.43-0.25c0.64,0.37,1.59,0.95,2.83,1.77c1.23,0.81,2.16,1.4,2.78,1.77c0.7,0.42,1.77,1,3.2,1.76
			C681.49,256.05,682.55,256.65,683.25,257.09z"/>
		<polygon class="st3" points="513.72,739.34 513.75,739.31 536.37,717.81 672.06,717.81 672.06,778.06 354.44,778.06 
			354.44,717.81 491.06,717.81 		"/>
		<path class="st9" d="M636.59,615.72c0.52-0.25,19-9.26,35.47-23.75v0.01v125.83H536.37l25.38-24.12c0,0-23.15-11.57-28.6-41.53
			l-1.09-6.16c40.59,77.45,83.59,11.86,83.59,11.86c-5.56,0.58-38.37,3.51-53.51-16.85c-1.55-2.09-3.02-4.55-4.23-7.45v-0.01
			c1.7-0.05,3.26-0.08,4.63-0.07c2.04,0.02,6.73,0.08,12.13-2.04c3.28-1.29,7.78-2.99,9.7-7.54c0.28-0.65,2.18-5.35-0.13-9.7
			c-1.89-3.57-5.66-4.94-8.93-6.13c-2.52-0.91-4.74-1.25-6.28-1.39l-0.68-0.57c7.91-9.24,13.53-20.49,16-32.88l1.01,0.19
			c2.81-1.29,22.74-11.15,34.88-7.73c2.79,0.79,14.54,4.1,20.43,15.32C646.2,591.54,644.49,605.08,636.59,615.72z"/>
		<path class="st9" d="M672.06,400.19v106.37c-39.67-23.87-90.22,26.23-90.22,26.23l-0.85,0.33c-2.62-6.85-6.25-13.2-10.71-18.88
			l1.62-0.95c9.64-6.94,14.87-19.62,14.87-19.62c4.39-10.42,9.78-28.57,3.58-47.49c-4.61-14.04-13.97-23.52-25.03-34.72
			c-5.19-5.26-8.89-8.26-12.71-11.26l0.01-0.01H672.06z"/>
		<path class="st3" d="M672.06,339.94v60.25H552.62l-0.01,0.01c-4.02-3.18-8.18-6.37-14.35-12.23
			c-11.46-10.88-19.49-21.11-24.51-28.09c-5.02,6.98-13.05,17.21-24.51,28.09c-6.17,5.86-10.33,9.05-14.35,12.23l-0.01-0.01H354.44
			v-60.25H672.06z"/>
		<path d="M635.13,232.43c0.43,0.17,0.48,0.66,0.15,1.46c-1.21,2.93-3.14,7.28-5.77,13.07c-2.63,5.79-4.55,10.16-5.76,13.12
			c-4.19,10.17-6.28,15.25-10.47,25.42c-0.28,0.69-0.69,0.93-1.23,0.71c-0.45-0.18-1.14-0.43-2.06-0.73
			c-0.93-0.3-1.61-0.54-2.06-0.71c-0.49-0.19-1.2-0.52-2.13-0.99c-0.94-0.47-1.65-0.79-2.14-0.97c-0.34-0.12-0.59-0.7-0.75-1.73
			c-0.45-3.02-1.45-9.75-3.78-20.19c-0.62-2.91-1.64-7.22-3.24-12.92c-0.03-0.19-0.15-0.39-0.34-0.62c-0.23,0.13-0.4,0.4-0.51,0.8
			c-0.91,3.1-2.19,7.76-3.87,13.99c-1.68,6.23-2.98,10.88-3.88,13.98c-0.28,0.93-0.67,1.32-1.19,1.17c-3.98-1.13-5.98-1.66-10-2.64
			c-0.56-0.14-0.74-0.63-0.54-1.46c0.71-2.92,1.89-7.29,3.55-13.13c1.66-5.83,2.86-10.21,3.58-13.15c0.77-3.1,1.81-7.77,3.12-14
			c1.3-6.23,2.32-10.89,3.07-13.97c0.14-0.59,0.68-0.78,1.6-0.55c1.37,0.33,3.09,0.65,5.15,0.96c0.48,0.07,1.47,0.13,2.94,0.22
			c1.24,0.08,2.21,0.22,2.89,0.41c0.28,0.08,0.59,0.66,0.91,1.74c2.86,9.68,4.11,14.53,6.22,24.22c0.47,2.18,1.18,5.38,2.05,9.61
			c0.24,1,0.54,1.56,0.91,1.69c0.27,0.1,0.78-0.87,1.52-2.91c1-2.74,2.38-6.91,4.13-12.52c1.75-5.6,3.11-9.79,4.11-12.56
			c0.35-0.97,0.77-1.37,1.25-1.2c1.38,0.5,3.48,1.19,6.3,2.12C631.68,231.11,633.77,231.87,635.13,232.43z"/>
		<path class="st2" d="M562.14,641.01c15.14,20.36,47.95,17.43,53.51,16.85c0,0-43,65.59-83.59-11.86l-1.96-11l0.34-0.06
			c9.65-0.29,19.98-1.12,27.47-1.39v0.01C559.12,636.46,560.59,638.92,562.14,641.01z"/>
		<path class="st2" d="M590.35,446.18c6.2,18.92,0.81,37.07-3.58,47.49c0,0-5.23,12.68-14.87,19.62l-1.62,0.95
			c-13.27-16.89-33.88-27.74-57.03-27.74c-23.02,0-43.54,10.73-56.81,27.47l-0.84-0.68c-9.64-6.94-14.87-19.62-14.87-19.62
			c-4.39-10.42-9.78-28.57-3.58-47.49c4.61-14.04,13.97-23.52,25.03-34.72c5.19-5.26,8.89-8.26,12.71-11.26
			c4.02-3.18,8.18-6.37,14.35-12.23c11.46-10.88,19.49-21.11,24.51-28.09c5.02,6.98,13.05,17.21,24.51,28.09
			c6.17,5.86,10.33,9.05,14.35,12.23c3.82,3,7.52,6,12.71,11.26C576.38,422.66,585.74,432.14,590.35,446.18z"/>
		<path class="st3" d="M445.63,532.82c2.65-6.85,6.31-13.19,10.81-18.85c13.27-16.74,33.79-27.47,56.81-27.47
			c23.15,0,43.76,10.85,57.03,27.74c4.46,5.68,8.09,12.03,10.71,18.88c3.08,8.04,4.76,16.76,4.76,25.88c0,4.87-0.48,9.63-1.4,14.23
			c-2.47,12.39-8.09,23.64-16,32.88c-10,11.7-23.66,20.17-39.21,23.64c-5.11,1.15-10.43,1.75-15.89,1.75
			c-5.12,0-10.11-0.53-14.93-1.54c-15.71-3.29-29.55-11.66-39.72-23.33c-8.09-9.27-13.87-20.63-16.41-33.16
			c-0.94-4.67-1.44-9.51-1.44-14.47C440.75,549.77,442.48,540.94,445.63,532.82z M560.43,595c1.89-2.07,3.53-6.68,0.57-16.92
			l-10.57,3.05c0.73,2.53,1.03,4.32,1.14,5.53c-5.87,1.06-11.7,1.45-13.85,0.86c-0.45-1.88,0.49-7.38,1.2-11.47
			c1.08-6.27,2.43-14.07,2.51-23.09c0.05-5.99-2.07-21.96-2.31-23.77l-10.91,1.47c0.63,4.68,2.25,17.79,2.22,22.21
			c-0.07,8.12-1.33,15.43-2.35,21.31c-1.62,9.37-2.78,16.14,1.48,20.92c2.44,2.74,6.89,3.72,11.99,3.72c5.17,0,11-1,16.07-2.18
			l1.66-0.39L560.43,595z M552.15,517.4v-11H474.2v11h34.05v92.89h11V517.4H552.15z M493.26,549.95l10.85-1.84
			c-0.12-0.68-3.08-16.58-25.71-18.83c-6.26-0.63-11.92,2.99-15.48,9.91c-3.88,7.55-5.19,18.96-0.56,24.24
			c5.04,5.72,12.58,5.05,17.57,4.6c1.17-0.1,2.26-0.19,2.94-0.17c1.73,0.06,5.35,0.18,5.09,11.09c-0.13,5.86-6.14,8.62-8.41,8.68
			c-4.44,0.12-6.11,0.16-11.79-16.24l-10.4,3.6c6,17.29,10.25,23.65,21.63,23.65c0.28,0,0.57-0.01,0.86-0.02
			c7.63-0.2,18.83-7.23,19.11-19.42c0.44-18.94-9.65-22.12-15.7-22.34c-1.35-0.05-2.79,0.08-4.3,0.22c-2.87,0.25-6.76,0.6-8.22-0.79
			c-0.77-1.8-0.33-8.89,2.83-13.54c1.84-2.71,3.27-2.57,3.74-2.52C491.29,541.62,493.19,549.61,493.26,549.95z"/>
		<path class="st2" d="M584.24,614.2c2.31,4.35,0.41,9.05,0.13,9.7c-1.92,4.55-6.42,6.25-9.7,7.54c-5.4,2.12-10.09,2.06-12.13,2.04
			c-1.37-0.01-2.93,0.02-4.63,0.07c-7.49,0.27-17.82,1.1-27.47,1.39L530.1,635l-0.88-4.9l-0.08-0.35
			c15.55-3.47,29.21-11.94,39.21-23.64l0.68,0.57c1.54,0.14,3.76,0.48,6.28,1.39C578.58,609.26,582.35,610.63,584.24,614.2z"/>
		<path d="M565.53,243.83c2.16,17.71,2.29,27.11,2.14,27.84c-0.11,0.49-0.43,0.79-0.95,0.87c-0.62,0.1-2.46-0.17-5.51-0.73
			c-2.79-0.51-4.58-0.91-5.34-1.26c-0.64-0.3-0.96-0.99-0.97-2.06c-0.04-4.05-0.26-6.28-0.6-6.58c-0.27-0.24-2.99-0.78-8.12-1.4
			c-3.47-0.42-5.33-0.46-5.58-0.24c-0.39,0.41-0.93,1.85-1.59,4.33c-0.61,2.25-1.18,3.47-1.73,3.6c-0.68,0.17-2.95,0.06-6.79-0.19
			c-3.03-0.2-4.52-0.66-4.48-1.47c0.03-0.72,2.49-9.56,8.72-26.14c3.71-9.89,7.95-19.76,11.89-29.44c0.41-1,0.8-1.51,1.18-1.47
			c0.66,0.07,1.66,0.25,3.01,0.55c1.35,0.29,2.37,0.49,3.04,0.57c0.66,0.08,1.62,0.16,2.9,0.23c1.28,0.08,2.24,0.16,2.86,0.25
			c0.46,0.07,0.82,0.58,1.07,1.55C562.85,222.95,564.27,233.44,565.53,243.83z M553.25,246.13c0.13-0.91,0-3.48-0.46-7.71
			c-0.45-4.1-0.87-6.73-1.21-7.89c-0.63,1.15-1.76,3.69-3.36,7.6c-1.7,4.16-2.57,6.63-2.65,7.38c-0.06,0.49,0.58,0.82,1.83,1.05
			c0.65,0.11,1.75,0.29,3.27,0.49c1.41,0.18,2.22,0.07,2.43-0.35C553.16,246.57,553.21,246.38,553.25,246.13z"/>
		<path d="M565.55,845.23c0,0.63-0.04,1.59-0.12,2.86c-0.08,1.27-0.12,2.24-0.12,2.9c0,0.67-0.01,1.71-0.03,3.14
			c-0.02,1.42-0.02,2.48-0.02,3.17s-0.28,1.04-0.83,1.04c-0.19,0-0.98-0.26-2.34-0.79c-1.51-0.55-4.33-0.83-8.46-0.83
			c-1.28,0-3.2,0.12-5.76,0.35c-2.55,0.24-4.45,0.36-5.7,0.36c-0.43,0-0.67-0.35-0.72-1.04c-0.05-0.94-0.17-2.34-0.37-4.19
			c-0.42-2.82-0.63-4.44-0.63-4.86c0-0.61,0.7-1.06,2.09-1.37c1.63-0.36,2.68-0.85,3.14-1.49c1.68-2.35,3.4-5.33,5.16-8.93
			c2.24-4.53,3.36-7.94,3.36-10.21c0-1.96-0.43-3.61-1.28-4.96c-0.86-1.34-1.88-2.01-3.05-2.01c-1.33,0-2.65,0.45-3.96,1.33
			c-0.88,0.55-1.8,1.36-2.77,2.41c-0.81,0.86-1.26,1.28-1.34,1.28c-0.57,0-0.85-1.1-0.85-3.32c0-1.71-0.04-2.96-0.12-3.73
			c-0.04-0.36-0.16-1.11-0.38-2.24c-0.2-0.97-0.3-1.69-0.3-2.16c0-0.36,0.14-0.71,0.43-1.04c1.38-1.63,3.22-2.92,5.53-3.86
			c2.05-0.83,4.06-1.24,6-1.24c3.15,0,5.79,1.16,7.92,3.48c2.5,2.72,3.76,6.57,3.76,11.58c0,6.67-3.03,14.46-9.09,23.37
			c4.3-0.36,7.67-0.54,10.11-0.54C565.31,843.69,565.55,844.2,565.55,845.23z"/>
		<path class="st2" d="M561.75,693.69l-25.38,24.12l-22.62,21.5l-0.03,0.03l-22.66-21.53l-25.31-24.06c0,0,23.15-11.57,28.6-41.53
			l1.09-6.16l1.96-11l0.88-4.9l0.04-0.2c4.82,1.01,9.81,1.54,14.93,1.54c5.46,0,10.78-0.6,15.89-1.75l0.08,0.35l0.88,4.9l1.96,11
			l1.09,6.16C538.6,682.12,561.75,693.69,561.75,693.69z"/>
		<path d="M561,578.08c2.96,10.24,1.32,14.85-0.57,16.92l-1.15,1.25l-1.66,0.39c-5.07,1.18-10.9,2.18-16.07,2.18
			c-5.1,0-9.55-0.98-11.99-3.72c-4.26-4.78-3.1-11.55-1.48-20.92c1.02-5.88,2.28-13.19,2.35-21.31c0.03-4.42-1.59-17.53-2.22-22.21
			l10.91-1.47c0.24,1.81,2.36,17.78,2.31,23.77c-0.08,9.02-1.43,16.82-2.51,23.09c-0.71,4.09-1.65,9.59-1.2,11.47
			c2.15,0.59,7.98,0.2,13.85-0.86c-0.11-1.21-0.41-3-1.14-5.53L561,578.08z"/>
		<polygon points="552.15,506.4 552.15,517.4 519.25,517.4 519.25,610.29 508.25,610.29 508.25,517.4 474.2,517.4 474.2,506.4 		"/>
		<path d="M530.99,827.67c2.21,2.93,3.32,6.94,3.32,12.04c0,12.36-4.58,18.55-13.73,18.55c-1.32,0-3.1-0.24-5.33-0.71
			c-2.88-0.61-4.4-1.34-4.55-2.2c-0.07-0.36-0.1-1.59-0.1-3.69c0-1.16,0.08-2.71,0.25-4.65c0.21-2.49,0.46-3.74,0.74-3.74
			c0.09,0,0.23,0.09,0.43,0.25c1.99,1.66,4.26,2.49,6.8,2.49c3.67,0,5.5-1.99,5.5-5.97c0-2.19-0.67-3.83-2.02-4.94
			c-1.04-0.89-2.3-1.33-3.76-1.33c-0.61,0-1.53,0.12-2.75,0.37c-1.22,0.25-2.14,0.38-2.75,0.38c-0.58,0-0.87-0.44-0.87-1.33
			c0-2.66,0.07-6.71,0.21-12.16c0.14-5.45,0.21-9.51,0.21-12.16c0-0.53,0.12-1.07,0.36-1.64s0.51-0.91,0.81-1.02
			c0.37-0.11,2.67-0.16,6.92-0.16c4.83,0,8.08,0.02,9.74,0.08c0.45,0.03,0.67,0.34,0.67,0.95c0,1.58-0.1,3.74-0.3,6.48
			c-0.25,3.51-0.54,5.27-0.89,5.27l-0.28-0.04c-3.75-0.56-6.09-0.83-7.02-0.83c-1.83,0-2.8,0.16-2.94,0.5
			c-0.28,0.83-0.42,2.39-0.42,4.69c0,0.35,0.04,0.63,0.12,0.83c0.42,0,1.07-0.07,1.97-0.21c0.85-0.14,1.5-0.21,1.97-0.21
			C526.39,823.56,528.95,824.93,530.99,827.67z"/>
		<path d="M519.16,218.97c0.06,0.16,0.1,0.3,0.09,0.41c-0.01,0.48-0.22,0.71-0.64,0.7c-0.19,0-0.51-0.05-0.95-0.14
			s-0.78-0.13-1.02-0.14c-1.68-0.01-3.17,0.46-4.42,1.36c-1.49,1.07-2.25,2.55-2.23,4.43c0.02,1.7,0.87,3.77,2.5,6.24
			c2.87,4.43,4.28,6.79,4.41,7.02c1.52,3.07,2.21,6.13,2.15,9.16c-0.12,5.64-2.03,10.42-5.48,14.44c-3.03,3.54-6.59,5.86-10.78,7
			c-0.16,0.03-0.28,0.05-0.38,0.05c-0.45,0.02-1.53-1.89-3.32-5.7c-1.8-3.81-2.78-6.14-2.83-7c-0.02-0.3,0.12-0.51,0.43-0.61
			c2.94-1.09,4.91-1.94,5.87-2.62c2.11-1.53,3.16-3.69,3.08-6.52c-0.05-1.8-0.83-3.8-2.39-5.97c-2.71-3.69-4.25-5.71-4.5-6.11
			c-1.68-2.81-2.65-5.95-2.85-9.45c-0.29-5.07,1.45-9.42,5.35-12.93c3.2-2.88,7.3-4.81,12.2-5.64c0.27-0.02,0.48-0.04,0.63-0.04
			c0.36,0,0.65,0.34,0.87,1.01C515.57,209.95,517.03,213.62,519.16,218.97z"/>
		<path d="M504.11,548.11l-10.85,1.84c-0.07-0.34-1.97-8.33-15.95-9.72c-0.47-0.05-1.9-0.19-3.74,2.52
			c-3.16,4.65-3.6,11.74-2.83,13.54c1.46,1.39,5.35,1.04,8.22,0.79c1.51-0.14,2.95-0.27,4.3-0.22c6.05,0.22,16.14,3.4,15.7,22.34
			c-0.28,12.19-11.48,19.22-19.11,19.42c-0.29,0.01-0.58,0.02-0.86,0.02c-11.38,0-15.63-6.36-21.63-23.65l10.4-3.6
			c5.68,16.4,7.35,16.36,11.79,16.24c2.27-0.06,8.28-2.82,8.41-8.68c0.26-10.91-3.36-11.03-5.09-11.09
			c-0.68-0.02-1.77,0.07-2.94,0.17c-4.99,0.45-12.53,1.12-17.57-4.6c-4.63-5.28-3.32-16.69,0.56-24.24
			c3.56-6.92,9.22-10.54,15.48-9.91C501.03,531.53,503.99,547.43,504.11,548.11z"/>
		<path d="M500.76,812.02c2.31,4.26,3.47,9.87,3.47,16.81c0,9.08-2.03,16.4-6.08,21.96c-3.79,5.2-8.46,7.8-14.02,7.8
			c-0.33,0-0.59-0.37-0.77-1.12c-1.18-4.82-1.77-7.94-1.77-9.38c0-0.89,0.39-1.33,1.17-1.33c5.31,0,8.76-2.27,10.33-6.81
			c0.22-0.6,0.33-1.05,0.33-1.32c0-0.17-0.05-0.25-0.15-0.25c-0.08,0-0.27,0.11-0.57,0.33c-1.4,1.08-2.98,1.62-4.74,1.62
			c-2.9,0-5.27-1.44-7.12-4.32c-1.89-2.9-2.84-6.76-2.84-11.58c0-6.25,1.26-11.05,3.76-14.4c2.29-3.1,5.36-4.65,9.19-4.65
			C495.09,805.38,498.36,807.6,500.76,812.02z M494.89,824.85c0-2.11-0.36-3.9-1.07-5.4c-0.78-1.63-1.79-2.45-3.02-2.45
			c-2.75,0-4.13,2.41-4.13,7.22c0,1.97,0.37,3.61,1.12,4.92c0.75,1.32,1.7,1.97,2.86,1.97c1.18,0,2.17-0.54,2.97-1.61
			C494.46,828.31,494.89,826.76,494.89,824.85z"/>
		<path class="st2" d="M498.32,629.96l-0.04,0.2l-0.88,4.9l-0.34-0.06c-9.65-0.29-19.98-1.12-27.47-1.39
			c-1.7-0.05-3.26-0.08-4.63-0.07c-2.04,0.02-6.73,0.08-12.13-2.04c-3.28-1.29-7.78-2.99-9.7-7.54c-0.28-0.65-2.18-5.35,0.13-9.7
			c1.89-3.57,5.66-4.94,8.93-6.13c2.52-0.91,4.74-1.25,6.28-1.39l0.13-0.11C468.77,618.3,482.61,626.67,498.32,629.96z"/>
		<path class="st2" d="M497.4,635.06l-1.96,11c-40.59,77.45-83.59,11.86-83.59,11.86c5.56,0.58,38.37,3.51,53.51-16.85
			c1.55-2.09,3.02-4.55,4.23-7.45v-0.01c7.49,0.27,17.82,1.1,27.47,1.39L497.4,635.06z"/>
		<path class="st9" d="M390.91,615.78c-7.9-10.64-9.61-24.18-4.08-34.71c5.89-11.22,17.64-14.53,20.43-15.32
			c12.14-3.42,32.07,6.44,34.88,7.73l0.05-0.01c2.54,12.53,8.32,23.89,16.41,33.16l-0.13,0.11c-1.54,0.14-3.76,0.48-6.28,1.39
			c-3.27,1.19-7.04,2.56-8.93,6.13c-2.31,4.35-0.41,9.05-0.13,9.7c1.92,4.55,6.42,6.25,9.7,7.54c5.4,2.12,10.09,2.06,12.13,2.04
			c1.37-0.01,2.93,0.02,4.63,0.07v0.01c-1.21,2.9-2.68,5.36-4.23,7.45c-15.14,20.36-47.95,17.43-53.51,16.85
			c0,0,43,65.59,83.59-11.86l-1.09,6.16c-5.45,29.96-28.6,41.53-28.6,41.53l25.31,24.06H354.44V591.15
			C371.16,606.16,390.38,615.53,390.91,615.78z"/>
		<path class="st9" d="M493.82,819.45c0.71,1.5,1.07,3.29,1.07,5.4c0,1.91-0.43,3.46-1.27,4.65c-0.8,1.07-1.79,1.61-2.97,1.61
			c-1.16,0-2.11-0.65-2.86-1.97c-0.75-1.31-1.12-2.95-1.12-4.92c0-4.81,1.38-7.22,4.13-7.22C492.03,817,493.04,817.82,493.82,819.45
			z"/>
		<path class="st9" d="M474.88,400.19l0.01,0.01c-3.82,3-7.52,6-12.71,11.26c-11.06,11.2-20.42,20.68-25.03,34.72
			c-6.2,18.92-0.81,37.07,3.58,47.49c0,0,5.23,12.68,14.87,19.62l0.84,0.68c-4.5,5.66-8.16,12-10.81,18.85
			c-1.42-1.39-51.94-50.56-91.19-25.58V400.19H474.88z"/>
		<path d="M470.2,269.56c0.08,0.5-0.11,0.88-0.56,1.15c-0.55,0.32-2.36,0.72-5.4,1.3c-2.79,0.52-4.61,0.79-5.45,0.74
			c-0.7-0.05-1.25-0.58-1.65-1.57c-1.52-3.77-2.54-5.76-2.97-5.92c-0.34-0.13-3.08,0.35-8.1,1.62c-3.4,0.85-5.16,1.48-5.31,1.78
			c-0.22,0.53-0.19,2.06,0.09,4.61c0.26,2.32,0.16,3.66-0.3,3.98c-0.58,0.4-2.75,1.12-6.44,2.28c-2.91,0.91-4.49,1.02-4.74,0.26
			c-0.23-0.68-1.16-9.82-1.39-27.52c-0.13-10.56,0.23-21.29,0.38-31.73c0.01-1.08,0.19-1.7,0.57-1.8c0.64-0.17,1.64-0.36,3.02-0.57
			c1.37-0.21,2.38-0.4,3.05-0.56c0.64-0.16,1.57-0.44,2.79-0.83c1.23-0.39,2.15-0.66,2.77-0.8c0.45-0.1,0.97,0.25,1.56,1.06
			c5.8,8.83,10.96,18.1,15.93,27.34C466.53,260.11,470.08,268.82,470.2,269.56z M447.49,251.52c0.01-0.15-0.01-0.34-0.07-0.59
			c-0.21-0.89-1.27-3.25-3.25-7.03c-1.91-3.65-3.27-5.95-4.01-6.91c-0.17,1.3-0.3,4.08-0.36,8.3c-0.07,4.48,0.01,7.1,0.21,7.82
			c0.13,0.49,0.85,0.56,2.1,0.32c0.65-0.12,1.74-0.36,3.23-0.72C446.73,252.38,447.45,251.98,447.49,251.52z"/>
		<path d="M470.01,807.46c0,0.16-0.01,0.45-0.05,0.87c-0.18,2.43-0.27,8.4-0.27,17.89c0,3.18,0.01,7.96,0.04,14.36
			c0.02,6.39,0.03,11.18,0.03,14.36c0,0.52-0.14,1.01-0.42,1.45s-0.59,0.66-0.92,0.66c-0.8,0-1.99,0.02-3.59,0.04
			c-1.59,0.03-2.79,0.05-3.58,0.05c-0.62,0-0.92-0.45-0.9-1.33l0.03-0.46c0.23-10.57,0.34-16.97,0.34-19.21v-12.33
			c0-0.77-0.1-1.16-0.32-1.16c-0.33,0-0.83,0.16-1.51,0.5c-0.67,0.33-1.18,0.49-1.53,0.49c-0.51,0-0.77-0.51-0.77-1.53
			c0-0.94-0.01-2.35-0.02-4.24c-0.02-1.88-0.03-3.3-0.03-4.27c0-0.55,0.21-0.97,0.62-1.25c2.44-1.68,4.36-3.95,5.76-6.8
			c0.28-0.58,0.52-0.87,0.72-0.87c0.03,0,0.13,0.02,0.3,0.08c0.63,0.22,1.57,0.57,2.81,1.04c0.66,0.14,1.64,0.38,2.91,0.74
			C469.9,806.65,470.01,806.96,470.01,807.46z"/>
		<path class="st9" d="M447.42,250.93c0.06,0.25,0.08,0.44,0.07,0.59c-0.04,0.46-0.76,0.86-2.15,1.19c-1.49,0.36-2.58,0.6-3.23,0.72
			c-1.25,0.24-1.97,0.17-2.1-0.32c-0.2-0.72-0.28-3.34-0.21-7.82c0.06-4.22,0.19-7,0.36-8.3c0.74,0.96,2.1,3.26,4.01,6.91
			C446.15,247.68,447.21,250.04,447.42,250.93z"/>
		<path class="st2" d="M442.19,573.47l-0.05,0.01c-2.81-1.29-22.74-11.15-34.88-7.73c-2.79,0.79-14.54,4.1-20.43,15.32
			c-5.53,10.53-3.82,24.07,4.08,34.71c-0.53-0.25-19.75-9.62-36.47-24.63c-19.22-17.25-35.14-41.95-15.61-68.8
			c4.87-6.7,10.13-11.63,15.61-15.11c39.25-24.98,89.77,24.19,91.19,25.58c-3.15,8.12-4.88,16.95-4.88,26.18
			C440.75,563.96,441.25,568.8,442.19,573.47z"/>
		<path d="M411.08,248.75c2.31,6.32,2.84,11.93,1.76,16.78c-1.15,5.16-3.99,8.64-8.63,10.62c-0.77,0.33-1.97,0.78-3.57,1.36
			c-1.61,0.57-2.8,1.05-3.56,1.41c-0.83,0.38-1.02,1.04-0.58,1.97c0.54,1.16,1.44,2.84,2.69,5.05c1.24,2.21,2.13,3.88,2.66,5.02
			c0.27,0.58,0.21,0.95-0.17,1.13c-1.11,0.52-2.8,1.27-5.04,2.27c-2.25,1.01-3.92,1.81-5.01,2.38c-0.52,0.27-0.97,0.06-1.34-0.66
			c-1.45-2.73-3.59-6.84-6.41-12.35c-2.83-5.5-4.96-9.62-6.4-12.35c-4.08-7.73-8.63-15.7-13.74-23.89c-0.12-0.2-0.18-0.3-0.31-0.5
			c-0.29-0.44-0.11-0.9,0.54-1.36c1.57-1.14,5.27-3.25,11.2-6.06c3.5-1.66,6.9-3.14,10.19-4.44c5.42-2.13,10.6-1.94,15.26,0.51
			C405.39,238.15,408.83,242.59,411.08,248.75z M395.51,265.57c4.39-1.95,5.45-5.65,3.1-11.27c-2.5-5.98-6.23-7.98-11.13-5.8
			c-3.44,1.54-5.11,2.64-5.08,3.15c0.01,0.39,1.3,3.34,3.9,8.82c0.37,0.78,0.94,1.92,1.71,3.41c0.77,1.5,1.34,2.64,1.71,3.42
			C389.96,267.8,391.87,267.18,395.51,265.57z"/>
		<path class="st9" d="M398.61,254.3c2.35,5.62,1.29,9.32-3.1,11.27c-3.64,1.61-5.55,2.23-5.79,1.73c-0.37-0.78-0.94-1.92-1.71-3.42
			c-0.77-1.49-1.34-2.63-1.71-3.41c-2.6-5.48-3.89-8.43-3.9-8.82c-0.03-0.51,1.64-1.61,5.08-3.15
			C392.38,246.32,396.11,248.32,398.61,254.3z"/>
		<path d="M367.47,276.7c4.35,7.51,6.07,14.9,5.57,22.07c-0.52,7.28-3.26,12.55-8.46,16.17c-5.17,3.6-11.1,4.34-18.22,2.34
			c-6.97-1.97-13.33-6.06-18.84-12.7c-5.52-6.65-8.38-13.78-8.17-21.48c0.22-7.86,3.63-14.28,10.02-18.73
			c6.35-4.43,13.48-5.38,20.87-2.81C357.5,264.08,363.16,269.27,367.47,276.7z M359.49,293.81c0.08-3.64-0.91-7.15-3.06-10.5
			c-2.24-3.51-5.04-5.95-8.42-7.22c-3.55-1.33-6.84-0.98-9.75,1.05c-2.78,1.93-4.18,4.92-4.17,8.85c0.01,3.8,1.26,7.28,3.66,10.45
			c2.57,3.4,5.52,5.61,8.78,6.72c3.42,1.16,6.43,0.81,9.11-1.06C358.14,300.36,359.4,297.62,359.49,293.81z"/>
		<path class="st9" d="M356.43,283.31c2.15,3.35,3.14,6.86,3.06,10.5c-0.09,3.81-1.35,6.55-3.85,8.29
			c-2.68,1.87-5.69,2.22-9.11,1.06c-3.26-1.11-6.21-3.32-8.78-6.72c-2.4-3.17-3.65-6.65-3.66-10.45c-0.01-3.93,1.39-6.92,4.17-8.85
			c2.91-2.03,6.2-2.38,9.75-1.05C351.39,277.36,354.19,279.8,356.43,283.31z"/>
		<path class="st3" d="M354.44,591.15v126.66h-60.25V400.19h60.25v107.05c-5.48,3.48-10.74,8.41-15.61,15.11
			C319.3,549.2,335.22,573.9,354.44,591.15z"/>
		<path d="M310.82,332.81c0,0.05-0.85,0.96-2.51,2.75c-0.24,0.25,0.16,0.86,1.2,1.83c1.38,1.29,3.53,3.12,6.45,5.49
			c2.92,2.37,5.07,4.21,6.44,5.5c0.35,0.33,0.5,0.63,0.41,0.79c-0.12,0.22-0.36,0.47-0.55,0.71c-0.77,1-2.05,2.48-3.83,4.48
			c-2.02,2.29-3.28,3.65-3.81,4.02s-1.06,0.33-1.59-0.12c-2.33-1.98-5.77-5.06-10.31-9.24c-4.54-4.19-7.98-7.29-10.32-9.3
			c-8.94-7.63-16.06-13.41-21.4-17.3c-0.19-0.14-0.28-0.21-0.47-0.35c-0.38-0.28-0.35-0.81,0.07-1.57c0.43-0.76,2.88-3.97,7.57-9.34
			c3.17-3.64,5.8-6.43,7.8-8.46c4.14-4.21,8.63-6.48,13.23-6.86c5.21-0.43,9.8,1.75,13.84,6.31c2.69,3.04,4.46,5.8,5.34,8.26
			s1.12,5.41,0.78,8.85c-0.08,0.68,0.02,1.17,0.28,1.45c0.02,0,3.45,1.56,10.09,4.93c6.68,3.39,10.15,5.49,10.63,6.03
			c0.13,0.15,0.07,0.39-0.19,0.73c-0.48,0.65-1.92,2.04-4.26,4.22c-2.01,1.88-3.41,3.12-4.24,3.69c-0.39,0.27-0.62,0.4-0.71,0.41
			c-0.15,0.02-0.45-0.07-0.9-0.29c-0.98-0.55-2.44-1.39-4.39-2.46c-2.53-1.39-6.37-3.37-11.55-5.83
			C312.92,331.7,311.88,331.91,310.82,332.81z M303.99,324.6c3.6-3.73,3.77-7.24,0.4-10.71c-2.37-2.43-4.71-3.44-7.03-2.96
			c-1.78,0.37-3.84,1.74-6.12,4.13c-1.64,1.72-2.2,2.94-1.72,3.59c0.57,0.75,2.53,2.67,5.82,5.75c0.46,0.44,1.16,1.07,2.09,1.91
			s1.62,1.47,2.06,1.89c0.11,0.09,0.47-0.09,1.09-0.55C301.75,326.77,302.89,325.74,303.99,324.6z"/>
		<path class="st9" d="M304.39,313.89c3.37,3.47,3.2,6.98-0.4,10.71c-1.1,1.14-2.24,2.17-3.41,3.05c-0.62,0.46-0.98,0.64-1.09,0.55
			c-0.44-0.42-1.13-1.05-2.06-1.89s-1.63-1.47-2.09-1.91c-3.29-3.08-5.25-5-5.82-5.75c-0.48-0.65,0.08-1.87,1.72-3.59
			c2.28-2.39,4.34-3.76,6.12-4.13C299.68,310.45,302.02,311.46,304.39,313.89z"/>
		<path d="M301.97,374.19c0,0.08-0.12,0.37-0.37,0.87c-0.59,1.2-1.63,2.84-3.08,4.95c-1.61,2.35-2.81,4-3.63,4.82
			c-0.44,0.45-0.99,0.47-1.59,0.08c-2.75-1.79-6.8-4.57-12.16-8.36c-5.36-3.79-9.4-6.59-12.14-8.39c-1.81-1.19-5.9-3.76-12.29-7.69
			c-2.39,4.68-4.34,8.41-5.95,11.11c-0.22,0.36-0.45,0.47-0.69,0.33c-0.31-0.18-1.14-0.89-2.47-2.12c-1.45-1.35-2.34-2.2-2.66-2.44
			c-1.02-0.75-2.16-1.5-3.21-2.27c-1.69-1.22-2.41-2.06-2.17-2.46c0.03-0.05,0.14-0.2,0.34-0.47c2.82-3.52,6.53-8.93,11.39-15.97
			c1.39-2,3.72-5.84,7.19-11.32c1.87-2.94,2.84-4.4,2.86-4.42c0.33-0.42,0.55-0.64,0.65-0.66c0.1-0.02,0.37,0.11,0.74,0.38
			c0.58,0.43,1.38,1.14,2.4,2c1.12,0.96,1.92,1.62,2.4,2c0.55,0.43,1.4,1,2.56,1.7c1.16,0.71,2,1.27,2.52,1.68
			c0.44,0.35,0.48,0.74,0.14,1.18c-0.6,0.77-3.14,3.63-7.46,8.88c5.59,4.27,9.51,7.21,11.76,8.85c2.65,1.93,6.7,4.73,12.15,8.44
			c5.45,3.7,9.49,6.53,12.13,8.46C301.76,373.67,301.97,373.94,301.97,374.19z"/>
	</g>
	<g>
		<path class="st10" d="M272.61,337.54c0.44,0.35,0.48,0.74,0.14,1.18c-0.6,0.77-3.14,3.63-7.46,8.88
			c5.59,4.27,9.51,7.21,11.76,8.85c2.65,1.93,6.7,4.73,12.15,8.44c5.45,3.7,9.49,6.53,12.13,8.46c0.43,0.32,0.64,0.59,0.64,0.84
			c0,0.08-0.12,0.37-0.37,0.87c-0.59,1.2-1.63,2.84-3.08,4.95c-1.61,2.35-2.81,4-3.63,4.82c-0.44,0.45-0.99,0.47-1.59,0.08
			c-2.75-1.79-6.8-4.57-12.16-8.36c-5.36-3.79-9.4-6.59-12.14-8.39c-1.81-1.19-5.9-3.76-12.29-7.69c-2.39,4.68-4.34,8.41-5.95,11.11
			c-0.22,0.36-0.45,0.47-0.69,0.33c-0.31-0.18-1.14-0.89-2.47-2.12c-1.45-1.35-2.34-2.2-2.66-2.44c-1.02-0.75-2.16-1.5-3.21-2.27
			c-1.69-1.22-2.41-2.06-2.17-2.46c0.03-0.05,0.14-0.2,0.34-0.47c2.82-3.52,6.53-8.93,11.39-15.97c1.39-2,3.72-5.84,7.19-11.32
			c1.87-2.94,2.84-4.4,2.86-4.42c0.33-0.42,0.55-0.64,0.65-0.66c0.1-0.02,0.37,0.11,0.74,0.38c0.58,0.43,1.38,1.14,2.4,2
			c1.12,0.96,1.92,1.62,2.4,2c0.55,0.43,1.4,1,2.56,1.7C271.25,336.57,272.09,337.13,272.61,337.54z"/>
		<path class="st10" d="M310.67,332.93c0.04-0.04,0.08-0.07,0.12-0.1c0.02-0.01,0.03-0.02,0.03-0.02"/>
		<path class="st10" d="M310.82,332.81c0,0.05-0.85,0.96-2.51,2.75c-0.24,0.25,0.16,0.86,1.2,1.83c1.38,1.29,3.53,3.12,6.45,5.49
			c2.92,2.37,5.07,4.21,6.44,5.5c0.35,0.33,0.5,0.63,0.41,0.79c-0.12,0.22-0.36,0.47-0.55,0.71c-0.77,1-2.05,2.48-3.83,4.48
			c-2.02,2.29-3.28,3.65-3.81,4.02s-1.06,0.33-1.59-0.12c-2.33-1.98-5.77-5.06-10.31-9.24c-4.54-4.19-7.98-7.29-10.32-9.3
			c-8.94-7.63-16.06-13.41-21.4-17.3c-0.19-0.14-0.28-0.21-0.47-0.35c-0.38-0.28-0.35-0.81,0.07-1.57c0.43-0.76,2.88-3.97,7.57-9.34
			c3.17-3.64,5.8-6.43,7.8-8.46c4.14-4.21,8.63-6.48,13.23-6.86c5.21-0.43,9.8,1.75,13.84,6.31c2.69,3.04,4.46,5.8,5.34,8.26
			s1.12,5.41,0.78,8.85c-0.08,0.68,0.02,1.17,0.28,1.45c0.02,0,3.45,1.56,10.09,4.93c6.68,3.39,10.15,5.49,10.63,6.03
			c0.13,0.15,0.07,0.39-0.19,0.73c-0.48,0.65-1.92,2.04-4.26,4.22c-2.01,1.88-3.41,3.12-4.24,3.69c-0.39,0.27-0.62,0.4-0.71,0.41
			c-0.15,0.02-0.45-0.07-0.9-0.29c-0.98-0.55-2.44-1.39-4.39-2.46c-2.53-1.39-6.37-3.37-11.55-5.83
			C312.92,331.7,311.88,331.91,310.82,332.81z"/>
		<path class="st10" d="M304.39,313.89c-2.37-2.43-4.71-3.44-7.03-2.96c-1.78,0.37-3.84,1.74-6.12,4.13
			c-1.64,1.72-2.2,2.94-1.72,3.59c0.57,0.75,2.53,2.67,5.82,5.75c0.46,0.44,1.16,1.07,2.09,1.91s1.62,1.47,2.06,1.89
			c0.11,0.09,0.47-0.09,1.09-0.55c1.17-0.88,2.31-1.91,3.41-3.05C307.59,320.87,307.76,317.36,304.39,313.89z"/>
		<path class="st10" d="M367.47,276.7c4.35,7.51,6.07,14.9,5.57,22.07c-0.52,7.28-3.26,12.55-8.46,16.17
			c-5.17,3.6-11.1,4.34-18.22,2.34c-6.97-1.97-13.33-6.06-18.84-12.7c-5.52-6.65-8.38-13.78-8.17-21.48
			c0.22-7.86,3.63-14.28,10.02-18.73c6.35-4.43,13.48-5.38,20.87-2.81C357.5,264.08,363.16,269.27,367.47,276.7z"/>
		<path class="st10" d="M356.43,283.31c-2.24-3.51-5.04-5.95-8.42-7.22c-3.55-1.33-6.84-0.98-9.75,1.05
			c-2.78,1.93-4.18,4.92-4.17,8.85c0.01,3.8,1.26,7.28,3.66,10.45c2.57,3.4,5.52,5.61,8.78,6.72c3.42,1.16,6.43,0.81,9.11-1.06
			c2.5-1.74,3.76-4.48,3.85-8.29C359.57,290.17,358.58,286.66,356.43,283.31z"/>
		<path class="st10" d="M411.08,248.75c2.31,6.32,2.84,11.93,1.76,16.78c-1.15,5.16-3.99,8.64-8.63,10.62
			c-0.77,0.33-1.97,0.78-3.57,1.36c-1.61,0.57-2.8,1.05-3.56,1.41c-0.83,0.38-1.02,1.04-0.58,1.97c0.54,1.16,1.44,2.84,2.69,5.05
			c1.24,2.21,2.13,3.88,2.66,5.02c0.27,0.58,0.21,0.95-0.17,1.13c-1.11,0.52-2.8,1.27-5.04,2.27c-2.25,1.01-3.92,1.81-5.01,2.38
			c-0.52,0.27-0.97,0.06-1.34-0.66c-1.45-2.73-3.59-6.84-6.41-12.35c-2.83-5.5-4.96-9.62-6.4-12.35
			c-4.08-7.73-8.63-15.7-13.74-23.89c-0.12-0.2-0.18-0.3-0.31-0.5c-0.29-0.44-0.11-0.9,0.54-1.36c1.57-1.14,5.27-3.25,11.2-6.06
			c3.5-1.66,6.9-3.14,10.19-4.44c5.42-2.13,10.6-1.94,15.26,0.51C405.39,238.15,408.83,242.59,411.08,248.75z"/>
		<path class="st10" d="M398.61,254.3c-2.5-5.98-6.23-7.98-11.13-5.8c-3.44,1.54-5.11,2.64-5.08,3.15c0.01,0.39,1.3,3.34,3.9,8.82
			c0.37,0.78,0.94,1.92,1.71,3.41c0.77,1.5,1.34,2.64,1.71,3.42c0.24,0.5,2.15-0.12,5.79-1.73
			C399.9,263.62,400.96,259.92,398.61,254.3z"/>
		<path class="st10" d="M470.2,269.56c0.08,0.5-0.11,0.88-0.56,1.15c-0.55,0.32-2.36,0.72-5.4,1.3c-2.79,0.52-4.61,0.79-5.45,0.74
			c-0.7-0.05-1.25-0.58-1.65-1.57c-1.52-3.77-2.54-5.76-2.97-5.92c-0.34-0.13-3.08,0.35-8.1,1.62c-3.4,0.85-5.16,1.48-5.31,1.78
			c-0.22,0.53-0.19,2.06,0.09,4.61c0.26,2.32,0.16,3.66-0.3,3.98c-0.58,0.4-2.75,1.12-6.44,2.28c-2.91,0.91-4.49,1.02-4.74,0.26
			c-0.23-0.68-1.16-9.82-1.39-27.52c-0.13-10.56,0.23-21.29,0.38-31.73c0.01-1.08,0.19-1.7,0.57-1.8c0.64-0.17,1.64-0.36,3.02-0.57
			c1.37-0.21,2.38-0.4,3.05-0.56c0.64-0.16,1.57-0.44,2.79-0.83c1.23-0.39,2.15-0.66,2.77-0.8c0.45-0.1,0.97,0.25,1.56,1.06
			c5.8,8.83,10.96,18.1,15.93,27.34C466.53,260.11,470.08,268.82,470.2,269.56z"/>
		<path class="st10" d="M440.16,236.99c-0.17,1.3-0.3,4.08-0.36,8.3c-0.07,4.48,0.01,7.1,0.21,7.82c0.13,0.49,0.85,0.56,2.1,0.32
			c0.65-0.12,1.74-0.36,3.23-0.72c1.39-0.33,2.11-0.73,2.15-1.19c0.01-0.15-0.01-0.34-0.07-0.59c-0.21-0.89-1.27-3.25-3.25-7.03
			C442.26,240.25,440.9,237.95,440.16,236.99z"/>
		<path class="st10" d="M519.05,248.01c-0.12,5.64-2.03,10.42-5.48,14.44c-3.03,3.54-6.59,5.86-10.78,7
			c-0.16,0.03-0.28,0.05-0.38,0.05c-0.45,0.02-1.53-1.89-3.32-5.7c-1.8-3.81-2.78-6.14-2.83-7c-0.02-0.3,0.12-0.51,0.43-0.61
			c2.94-1.09,4.91-1.94,5.87-2.62c2.11-1.53,3.16-3.69,3.08-6.52c-0.05-1.8-0.83-3.8-2.39-5.97c-2.71-3.69-4.25-5.71-4.5-6.11
			c-1.68-2.81-2.65-5.95-2.85-9.45c-0.29-5.07,1.45-9.42,5.35-12.93c3.2-2.88,7.3-4.81,12.2-5.64c0.27-0.02,0.48-0.04,0.63-0.04
			c0.36,0,0.65,0.34,0.87,1.01c0.62,2.03,2.08,5.7,4.21,11.05c0.06,0.16,0.1,0.3,0.09,0.41c-0.01,0.48-0.22,0.71-0.64,0.7
			c-0.19,0-0.51-0.05-0.95-0.14s-0.78-0.13-1.02-0.14c-1.68-0.01-3.17,0.46-4.42,1.36c-1.49,1.07-2.25,2.55-2.23,4.43
			c0.02,1.7,0.87,3.77,2.5,6.24c2.87,4.43,4.28,6.79,4.41,7.02C518.42,241.92,519.11,244.98,519.05,248.01z"/>
		<path class="st10" d="M567.67,271.67c-0.11,0.49-0.43,0.79-0.95,0.87c-0.62,0.1-2.46-0.17-5.51-0.73
			c-2.79-0.51-4.58-0.91-5.34-1.26c-0.64-0.3-0.96-0.99-0.97-2.06c-0.04-4.05-0.26-6.28-0.6-6.58c-0.27-0.24-2.99-0.78-8.12-1.4
			c-3.47-0.42-5.33-0.46-5.58-0.24c-0.39,0.41-0.93,1.85-1.59,4.33c-0.61,2.25-1.18,3.47-1.73,3.6c-0.68,0.17-2.95,0.06-6.79-0.19
			c-3.03-0.2-4.52-0.66-4.48-1.47c0.03-0.72,2.49-9.56,8.72-26.14c3.71-9.89,7.95-19.76,11.89-29.44c0.41-1,0.8-1.51,1.18-1.47
			c0.66,0.07,1.66,0.25,3.01,0.55c1.35,0.29,2.37,0.49,3.04,0.57c0.66,0.08,1.62,0.16,2.9,0.23c1.28,0.08,2.24,0.16,2.86,0.25
			c0.46,0.07,0.82,0.58,1.07,1.55c2.17,10.31,3.59,20.8,4.85,31.19C567.69,261.54,567.82,270.94,567.67,271.67z"/>
		<path class="st10" d="M551.58,230.53c-0.63,1.15-1.76,3.69-3.36,7.6c-1.7,4.16-2.57,6.63-2.65,7.38
			c-0.06,0.49,0.58,0.82,1.83,1.05c0.65,0.11,1.75,0.29,3.27,0.49c1.41,0.18,2.22,0.07,2.43-0.35c0.06-0.13,0.11-0.32,0.15-0.57
			c0.13-0.91,0-3.48-0.46-7.71C552.34,234.32,551.92,231.69,551.58,230.53z"/>
		<path class="st10" d="M635.28,233.89c-1.21,2.93-3.14,7.28-5.77,13.07c-2.63,5.79-4.55,10.16-5.76,13.12
			c-4.19,10.17-6.28,15.25-10.47,25.42c-0.28,0.69-0.69,0.93-1.23,0.71c-0.45-0.18-1.14-0.43-2.06-0.73
			c-0.93-0.3-1.61-0.54-2.06-0.71c-0.49-0.19-1.2-0.52-2.13-0.99c-0.94-0.47-1.65-0.79-2.14-0.97c-0.34-0.12-0.59-0.7-0.75-1.73
			c-0.45-3.02-1.45-9.75-3.78-20.19c-0.62-2.91-1.64-7.22-3.24-12.92c-0.03-0.19-0.15-0.39-0.34-0.62c-0.23,0.13-0.4,0.4-0.51,0.8
			c-0.91,3.1-2.19,7.76-3.87,13.99c-1.68,6.23-2.98,10.88-3.88,13.98c-0.28,0.93-0.67,1.32-1.19,1.17c-3.98-1.13-5.98-1.66-10-2.64
			c-0.56-0.14-0.74-0.63-0.54-1.46c0.71-2.92,1.89-7.29,3.55-13.13c1.66-5.83,2.86-10.21,3.58-13.15c0.77-3.1,1.81-7.77,3.12-14
			c1.3-6.23,2.32-10.89,3.07-13.97c0.14-0.59,0.68-0.78,1.6-0.55c1.37,0.33,3.09,0.65,5.15,0.96c0.48,0.07,1.47,0.13,2.94,0.22
			c1.24,0.08,2.21,0.22,2.89,0.41c0.28,0.08,0.59,0.66,0.91,1.74c2.86,9.68,4.11,14.53,6.22,24.22c0.47,2.18,1.18,5.38,2.05,9.61
			c0.24,1,0.54,1.56,0.91,1.69c0.27,0.1,0.78-0.87,1.52-2.91c1-2.74,2.38-6.91,4.13-12.52c1.75-5.6,3.11-9.79,4.11-12.56
			c0.35-0.97,0.77-1.37,1.25-1.2c1.38,0.5,3.48,1.19,6.3,2.12c2.82,0.94,4.91,1.7,6.27,2.26
			C635.56,232.6,635.61,233.09,635.28,233.89z"/>
		<path class="st10" d="M664.73,315.9c-1.43-1.02-3.28-2.4-5.55-4.05c-2.96-2.15-4.87-3.42-5.62-3.93
			c-3.04-2.01-4.58-2.99-7.69-4.89c-0.8-0.44-2.08-1.12-3.32-2.11c-0.44-0.35-0.49-0.93-0.13-1.56c1.49-2.64,3.75-6.58,6.79-11.81
			c3.04-5.23,5.3-9.16,6.8-11.8c1.58-2.81,3.89-7.06,6.91-12.75c3.02-5.69,5.31-9.94,6.89-12.76c0.3-0.53,0.78-0.61,1.43-0.25
			c0.64,0.37,1.59,0.95,2.83,1.77c1.23,0.81,2.16,1.4,2.78,1.77c0.7,0.42,1.77,1,3.2,1.76c1.44,0.76,2.5,1.36,3.2,1.8
			c0.31,0.2,0.32,0.51,0.02,0.95c-0.13,0.17-0.19,0.26-0.32,0.44c-3.04,4.27-7.49,10.75-13.34,19.46c-2.34,3.73-3.51,5.6-5.86,9.33
			c-1.88,3.02-3.31,5.25-4.1,6.64c-0.16,0.28-0.32,0.59-0.48,0.88c-0.16,0.29-0.13,0.56,0.08,0.79c0.02,0.01,0.25,0.15,0.71,0.44
			c1.63,1.03,4.13,2.47,7.48,4.41c3.35,1.95,5.79,3.54,7.37,4.68c0.47,0.35,0.52,0.78,0.15,1.3c-2.8,3.84-5.44,7-7.88,9.49
			c-0.5,0.53-0.93,0.75-1.28,0.67C665.69,316.56,665.33,316.33,664.73,315.9z"/>
		<path class="st10" d="M716.71,333.13c-5.11,4.91-9.07,7.77-11.84,8.62c-5.07,1.55-10.8-1.04-17.71-7.27
			c-3.12-2.82-5.29-5.23-6.48-7.35c-1.89-3.39-2.07-6.93-0.53-10.7c0.76-1.84,2.64-4.72,5.67-8.59c0.71-0.9,1.78-2.22,3.22-3.95
			c1.44-1.73,2.51-3.04,3.19-3.91c1.99-2.54,4.88-6.43,8.64-11.68c3.77-5.25,6.62-9.14,8.59-11.66c0.41-0.53,0.82-0.63,1.24-0.3
			c1.21,0.95,3,2.46,5.33,4.56c2.33,2.1,4.07,3.68,5.25,4.69c0.48,0.41,0.52,0.86,0.12,1.32c-2.4,2.78-6.07,6.87-11,12.3
			c-4.93,5.42-8.59,9.53-10.98,12.32c-2.84,3.31-4.48,5.8-4.93,7.42c-0.62,2.21,0.19,4.32,2.46,6.38c3.32,3.03,6.84,2.61,10.65-1.4
			c2.78-2.93,6.88-7.37,12.31-13.33c5.43-5.97,9.52-10.42,12.29-13.35c0.6-0.63,1.13-0.72,1.59-0.27c1.09,1.05,2.79,2.59,5.05,4.67
			c2.27,2.08,3.93,3.7,4.98,4.81c0.52,0.54,0.54,1.05,0.06,1.51c-2.31,2.21-5.89,5.45-10.7,9.74c-4.82,4.29-8.39,7.56-10.71,9.8
			c-0.64,0.61-1.6,1.55-2.88,2.81C718.31,331.58,717.35,332.52,716.71,333.13z"/>
		<path class="st10" d="M710.59,354.92c-0.02,0.02-0.03,0.03-0.03,0.02"/>
		<path class="st10" d="M710.59,354.92c0.22-0.16,2.13-1.7,5.72-4.63c8.72-7.11,14.44-11.82,17.09-14.14c2.24-1.96,5.55-4.95,9.91-9
			c4.36-4.05,7.65-7.06,9.89-9.02c0.46-0.41,0.89-0.38,1.28,0.08c0.54,0.61,1.31,1.57,2.3,2.89c1,1.31,1.76,2.29,2.28,2.92
			c0.52,0.63,1.31,1.54,2.38,2.74c1.07,1.19,1.86,2.12,2.37,2.77c0.48,0.61,0.47,1.1-0.01,1.48c-2.33,1.84-5.93,4.48-10.78,7.93
			c-4.84,3.46-8.42,6.12-10.75,7.97c-2.57,2.04-6.39,5.16-11.47,9.36c-5.08,4.19-8.91,7.3-11.48,9.33c-0.43,0.35-0.77,0.49-1,0.42
			c-0.05-0.02-0.26-0.21-0.65-0.56c-1.05-0.97-2.31-2.38-3.81-4.19c-2-2.43-3.23-4.01-3.62-4.8
			C709.96,355.89,710.08,355.38,710.59,354.92z"/>
		<path class="st10" d="M754.33,385.05c-4.84,2.89-10.04,3.56-15.52,2.39c-4.81-1.02-8.91-3.18-12.38-6.52
			c-0.12-0.13-0.22-0.24-0.28-0.33c-0.28-0.41,0.69-2.44,2.85-6.14c2.16-3.71,3.54-5.86,4.24-6.36c0.24-0.18,0.5-0.16,0.77,0.07
			c2.68,2.16,4.59,3.56,5.73,4.1c2.56,1.18,5.02,1.03,7.37-0.55c1.5-1.01,2.72-2.81,3.63-5.43c1.5-4.52,2.29-7.04,2.48-7.48
			c1.38-3.07,3.46-5.65,6.3-7.7c4.12-2.97,8.84-3.66,14.16-1.85c4.35,1.48,8.44,4.34,12.08,8.6c0.19,0.24,0.32,0.43,0.41,0.57
			c0.22,0.36,0.11,0.81-0.33,1.38c-1.34,1.67-3.58,5.02-6.84,9.92c-0.1,0.16-0.2,0.26-0.29,0.32c-0.41,0.24-0.73,0.16-0.98-0.25
			c-0.11-0.19-0.26-0.52-0.45-0.99c-0.19-0.48-0.35-0.83-0.49-1.06c-1-1.63-2.29-2.8-3.8-3.52c-1.8-0.86-3.51-0.8-5.09,0.22
			c-1.43,0.92-2.67,2.83-3.79,5.7c-2.04,5.11-3.19,7.72-3.31,7.97C759.11,381.21,756.94,383.51,754.33,385.05z"/>
		<path class="st10" d="M469.76,854.94c0,0.52-0.14,1.01-0.42,1.45s-0.59,0.66-0.92,0.66c-0.8,0-1.99,0.02-3.59,0.04
			c-1.59,0.03-2.79,0.05-3.58,0.05c-0.62,0-0.92-0.45-0.9-1.33l0.03-0.46c0.23-10.57,0.34-16.97,0.34-19.21v-12.33
			c0-0.77-0.1-1.16-0.32-1.16c-0.33,0-0.83,0.16-1.51,0.5c-0.67,0.33-1.18,0.49-1.53,0.49c-0.51,0-0.77-0.51-0.77-1.53
			c0-0.94-0.01-2.35-0.02-4.24c-0.02-1.88-0.03-3.3-0.03-4.27c0-0.55,0.21-0.97,0.62-1.25c2.44-1.68,4.36-3.95,5.76-6.8
			c0.28-0.58,0.52-0.87,0.72-0.87c0.03,0,0.13,0.02,0.3,0.08c0.63,0.22,1.57,0.57,2.81,1.04c0.66,0.14,1.64,0.38,2.91,0.74
			c0.24,0.11,0.35,0.42,0.35,0.92c0,0.16-0.01,0.45-0.05,0.87c-0.18,2.43-0.27,8.4-0.27,17.89c0,3.18,0.01,7.96,0.04,14.36
			C469.75,846.97,469.76,851.76,469.76,854.94z"/>
		<path class="st10" d="M504.23,828.83c0,9.08-2.03,16.4-6.08,21.96c-3.79,5.2-8.46,7.8-14.02,7.8c-0.33,0-0.59-0.37-0.77-1.12
			c-1.18-4.82-1.77-7.94-1.77-9.38c0-0.89,0.39-1.33,1.17-1.33c5.31,0,8.76-2.27,10.33-6.81c0.22-0.6,0.33-1.05,0.33-1.32
			c0-0.17-0.05-0.25-0.15-0.25c-0.08,0-0.27,0.11-0.57,0.33c-1.4,1.08-2.98,1.62-4.74,1.62c-2.9,0-5.27-1.44-7.12-4.32
			c-1.89-2.9-2.84-6.76-2.84-11.58c0-6.25,1.26-11.05,3.76-14.4c2.29-3.1,5.36-4.65,9.19-4.65c4.14,0,7.41,2.22,9.81,6.64
			C503.07,816.28,504.23,821.89,504.23,828.83z"/>
		<path class="st10" d="M494.89,824.85c0-2.11-0.36-3.9-1.07-5.4c-0.78-1.63-1.79-2.45-3.02-2.45c-2.75,0-4.13,2.41-4.13,7.22
			c0,1.97,0.37,3.61,1.12,4.92c0.75,1.32,1.7,1.97,2.86,1.97c1.18,0,2.17-0.54,2.97-1.61C494.46,828.31,494.89,826.76,494.89,824.85
			z"/>
		<path class="st10" d="M534.31,839.71c0,12.36-4.58,18.55-13.73,18.55c-1.32,0-3.1-0.24-5.33-0.71c-2.88-0.61-4.4-1.34-4.55-2.2
			c-0.07-0.36-0.1-1.59-0.1-3.69c0-1.16,0.08-2.71,0.25-4.65c0.21-2.49,0.46-3.74,0.74-3.74c0.09,0,0.23,0.09,0.43,0.25
			c1.99,1.66,4.26,2.49,6.8,2.49c3.67,0,5.5-1.99,5.5-5.97c0-2.19-0.67-3.83-2.02-4.94c-1.04-0.89-2.3-1.33-3.76-1.33
			c-0.61,0-1.53,0.12-2.75,0.37c-1.22,0.25-2.14,0.38-2.75,0.38c-0.58,0-0.87-0.44-0.87-1.33c0-2.66,0.07-6.71,0.21-12.16
			c0.14-5.45,0.21-9.51,0.21-12.16c0-0.53,0.12-1.07,0.36-1.64s0.51-0.91,0.81-1.02c0.37-0.11,2.67-0.16,6.92-0.16
			c4.83,0,8.08,0.02,9.74,0.08c0.45,0.03,0.67,0.34,0.67,0.95c0,1.58-0.1,3.74-0.3,6.48c-0.25,3.51-0.54,5.27-0.89,5.27l-0.28-0.04
			c-3.75-0.56-6.09-0.83-7.02-0.83c-1.83,0-2.8,0.16-2.94,0.5c-0.28,0.83-0.42,2.39-0.42,4.69c0,0.35,0.04,0.63,0.12,0.83
			c0.42,0,1.07-0.07,1.97-0.21c0.85-0.14,1.5-0.21,1.97-0.21c3.09,0,5.65,1.37,7.69,4.11C533.2,830.6,534.31,834.61,534.31,839.71z"
			/>
		<path class="st10" d="M565.55,845.23c0,0.63-0.04,1.59-0.12,2.86c-0.08,1.27-0.12,2.24-0.12,2.9c0,0.67-0.01,1.71-0.03,3.14
			c-0.02,1.42-0.02,2.48-0.02,3.17s-0.28,1.04-0.83,1.04c-0.19,0-0.98-0.26-2.34-0.79c-1.51-0.55-4.33-0.83-8.46-0.83
			c-1.28,0-3.2,0.12-5.76,0.35c-2.55,0.24-4.45,0.36-5.7,0.36c-0.43,0-0.67-0.35-0.72-1.04c-0.05-0.94-0.17-2.34-0.37-4.19
			c-0.42-2.82-0.63-4.44-0.63-4.86c0-0.61,0.7-1.06,2.09-1.37c1.63-0.36,2.68-0.85,3.14-1.49c1.68-2.35,3.4-5.33,5.16-8.93
			c2.24-4.53,3.36-7.94,3.36-10.21c0-1.96-0.43-3.61-1.28-4.96c-0.86-1.34-1.88-2.01-3.05-2.01c-1.33,0-2.65,0.45-3.96,1.33
			c-0.88,0.55-1.8,1.36-2.77,2.41c-0.81,0.86-1.26,1.28-1.34,1.28c-0.57,0-0.85-1.1-0.85-3.32c0-1.71-0.04-2.96-0.12-3.73
			c-0.04-0.36-0.16-1.11-0.38-2.24c-0.2-0.97-0.3-1.69-0.3-2.16c0-0.36,0.14-0.71,0.43-1.04c1.38-1.63,3.22-2.92,5.53-3.86
			c2.05-0.83,4.06-1.24,6-1.24c3.15,0,5.79,1.16,7.92,3.48c2.5,2.72,3.76,6.57,3.76,11.58c0,6.67-3.03,14.46-9.09,23.37
			c4.3-0.36,7.67-0.54,10.11-0.54C565.31,843.69,565.55,844.2,565.55,845.23z"/>
		<circle class="st11" cx="513.75" cy="538.5" r="365"/>
		<path class="st4" d="M580.99,533.12c3.08,8.04,4.76,16.76,4.76,25.88c0,4.87-0.48,9.63-1.4,14.23c-2.47,12.39-8.09,23.64-16,32.88
			c-10,11.7-23.66,20.17-39.21,23.64c-5.11,1.15-10.43,1.75-15.89,1.75c-5.12,0-10.11-0.53-14.93-1.54
			c-15.71-3.29-29.55-11.66-39.72-23.33c-8.09-9.27-13.87-20.63-16.41-33.16c-0.94-4.67-1.44-9.51-1.44-14.47
			c0-9.23,1.73-18.06,4.88-26.18c2.65-6.85,6.31-13.19,10.81-18.85c13.27-16.74,33.79-27.47,56.81-27.47
			c23.15,0,43.76,10.85,57.03,27.74C574.74,519.92,578.37,526.27,580.99,533.12z"/>
		<path class="st4" d="M455.6,513.29c-9.64-6.94-14.87-19.62-14.87-19.62c-4.39-10.42-9.78-28.57-3.58-47.49
			c4.61-14.04,13.97-23.52,25.03-34.72c5.19-5.26,8.89-8.26,12.71-11.26c4.02-3.18,8.18-6.37,14.35-12.23
			c11.46-10.88,19.49-21.11,24.51-28.09c5.02,6.98,13.05,17.21,24.51,28.09c6.17,5.86,10.33,9.05,14.35,12.23
			c3.82,3,7.52,6,12.71,11.26c11.06,11.2,20.42,20.68,25.03,34.72c6.2,18.92,0.81,37.07-3.58,47.49c0,0-5.23,12.68-14.87,19.62"/>
		<path class="st5" d="M513.75,739.31l22.62-21.5l25.38-24.12c0,0-23.15-11.57-28.6-41.53l-1.09-6.16l-1.96-11l-0.88-4.9"/>
		<path class="st6" d="M636.59,615.72c7.9-10.64,9.61-24.18,4.08-34.71c-5.89-11.22-17.64-14.53-20.43-15.32
			c-12.14-3.42-32.07,6.44-34.88,7.73"/>
		<path class="st6" d="M581.84,532.79c0,0,50.55-50.1,90.22-26.23c5.84,3.51,11.44,8.62,16.61,15.73
			c19.87,27.32,3.05,52.4-16.61,69.68c-16.47,14.49-34.95,23.5-35.47,23.75c-0.01,0.01-0.01,0.01-0.01,0.01"/>
		<path class="st6" d="M569.03,606.68c1.54,0.14,3.76,0.48,6.28,1.39c3.27,1.19,7.04,2.56,8.93,6.13c2.31,4.35,0.41,9.05,0.13,9.7
			c-1.92,4.55-6.42,6.25-9.7,7.54c-5.4,2.12-10.09,2.06-12.13,2.04c-1.37-0.01-2.93,0.02-4.63,0.07c-7.49,0.27-17.82,1.1-27.47,1.39
			"/>
		<path class="st6" d="M557.91,633.56c1.21,2.9,2.68,5.36,4.23,7.45c15.14,20.36,47.95,17.43,53.51,16.85c0,0-43,65.59-83.59-11.86"
			/>
		<path class="st5" d="M513.75,739.37l-0.03-0.03l-22.66-21.53l-25.31-24.06c0,0,23.15-11.57,28.6-41.53l1.09-6.16l1.96-11l0.88-4.9
			"/>
		<path class="st6" d="M390.92,615.79c0,0,0-0.01-0.01-0.01c-7.9-10.64-9.61-24.18-4.08-34.71c5.89-11.22,17.64-14.53,20.43-15.32
			c12.14-3.42,32.07,6.44,34.88,7.73"/>
		<path class="st6" d="M445.66,532.85c0,0-0.01-0.01-0.03-0.03c-1.42-1.39-51.94-50.56-91.19-25.58
			c-5.48,3.48-10.74,8.41-15.61,15.11c-19.53,26.85-3.61,51.55,15.61,68.8c16.72,15.01,35.94,24.38,36.47,24.63"/>
		<path class="st6" d="M458.47,606.74c-1.54,0.14-3.76,0.48-6.28,1.39c-3.27,1.19-7.04,2.56-8.93,6.13
			c-2.31,4.35-0.41,9.05-0.13,9.7c1.92,4.55,6.42,6.25,9.7,7.54c5.4,2.12,10.09,2.06,12.13,2.04c1.37-0.01,2.93,0.02,4.63,0.07
			c7.49,0.27,17.82,1.1,27.47,1.39"/>
		<path class="st6" d="M469.59,633.62c-1.21,2.9-2.68,5.36-4.23,7.45c-15.14,20.36-47.95,17.43-53.51,16.85
			c0,0,43,65.59,83.59-11.86"/>
		<polyline class="st12" points="672.06,591.98 672.06,717.81 732.31,717.81 732.31,400.19 672.06,400.19 672.06,506.56 		"/>
		<polyline class="st12" points="491.06,717.81 354.44,717.81 354.44,778.06 672.06,778.06 672.06,717.81 536.37,717.81 		"/>
		<polyline class="st12" points="552.62,400.19 672.06,400.19 672.06,339.94 354.44,339.94 354.44,400.19 474.88,400.19 		"/>
		<polyline class="st12" points="354.44,507.24 354.44,400.19 294.19,400.19 294.19,717.81 354.44,717.81 354.44,591.15 		"/>
		<polygon class="st10" points="519.25,517.4 552.15,517.4 552.15,506.4 474.2,506.4 474.2,517.4 508.25,517.4 508.25,610.29 
			519.25,610.29 		"/>
		<path class="st10" d="M498.96,579.2c0.44-18.94-9.65-22.12-15.7-22.34c-1.35-0.05-2.79,0.08-4.3,0.22
			c-2.87,0.25-6.76,0.6-8.22-0.79c-0.77-1.8-0.33-8.89,2.83-13.54c1.84-2.71,3.27-2.57,3.74-2.52c13.98,1.39,15.88,9.38,15.95,9.72
			l10.85-1.84c-0.12-0.68-3.08-16.58-25.71-18.83c-6.26-0.63-11.92,2.99-15.48,9.91c-3.88,7.55-5.19,18.96-0.56,24.24
			c5.04,5.72,12.58,5.05,17.57,4.6c1.17-0.1,2.26-0.19,2.94-0.17c1.73,0.06,5.35,0.18,5.09,11.09c-0.13,5.86-6.14,8.62-8.41,8.68
			c-4.44,0.12-6.11,0.16-11.79-16.24l-10.4,3.6c6,17.29,10.25,23.65,21.63,23.65c0.28,0,0.57-0.01,0.86-0.02
			C487.48,598.42,498.68,591.39,498.96,579.2z"/>
		<path class="st10" d="M557.62,596.64l1.66-0.39l1.15-1.25c1.89-2.07,3.53-6.68,0.57-16.92l-10.57,3.05
			c0.73,2.53,1.03,4.32,1.14,5.53c-5.87,1.06-11.7,1.45-13.85,0.86c-0.45-1.88,0.49-7.38,1.2-11.47c1.08-6.27,2.43-14.07,2.51-23.09
			c0.05-5.99-2.07-21.96-2.31-23.77l-10.91,1.47c0.63,4.68,2.25,17.79,2.22,22.21c-0.07,8.12-1.33,15.43-2.35,21.31
			c-1.62,9.37-2.78,16.14,1.48,20.92c2.44,2.74,6.89,3.72,11.99,3.72C546.72,598.82,552.55,597.82,557.62,596.64z"/>
	</g>
</g>
</svg>
